140615_FengardoRedux_Black 2.ufo
<glyph name="numbersign" format="1">
  <advance width="619"/>
  <unicode hex="0023"/>
  <outline>
    <contour>
      <point x="302" y="600" type="line"/>
      <point x="162" y="600" type="line"/>
      <point x="101" y="0" type="line"/>
      <point x="243" y="0" type="line"/>
    </contour>
    <contour>
      <point x="518" y="600" type="line"/>
      <point x="378" y="600" type="line"/>
      <point x="317" y="0" type="line"/>
      <point x="459" y="0" type="line"/>
    </contour>
    <contour>
      <point x="586" y="343" type="line"/>
      <point x="599" y="468" type="line"/>
      <point x="54" y="468" type="line"/>
      <point x="40" y="343" type="line"/>
    </contour>
    <contour>
      <point x="568" y="143" type="line"/>
      <point x="580" y="268" type="line"/>
      <point x="35" y="268" type="line"/>
      <point x="20" y="143" type="line"/>
    </contour>
  </outline>
</glyph>
<glyph name="dollar" format="1">
  <advance width="539"/>
  <unicode hex="0024"/>
  <outline>
    <contour>
      <point x="218" y="144" type="line"/>
      <point x="218" y="-55" type="line"/>
      <point x="348" y="-21" type="line"/>
      <point x="348" y="142" type="line"/>
    </contour>
    <contour>
      <point x="348" y="588" type="line"/>
      <point x="348" y="780" type="line"/>
      <point x="218" y="746" type="line"/>
      <point x="218" y="579" type="line"/>
    </contour>
    <contour>
      <point x="280" y="183" type="curve" smooth="yes"/>
      <point x="243" y="183"/>
      <point x="213" y="202"/>
      <point x="213" y="259" type="curve"/>
      <point x="36" y="254" type="line"/>
      <point x="31" y="96"/>
      <point x="151" y="45"/>
      <point x="282" y="45" type="curve" smooth="yes"/>
      <point x="411" y="45"/>
      <point x="516" y="113"/>
      <point x="516" y="230" type="curve" smooth="yes"/>
      <point x="516" y="347"/>
      <point x="415" y="388"/>
      <point x="329" y="420" type="curve" smooth="yes"/>
      <point x="271" y="442"/>
      <point x="220" y="455"/>
      <point x="220" y="500" type="curve" smooth="yes"/>
      <point x="220" y="531"/>
      <point x="243" y="545"/>
      <point x="272" y="545" type="curve" smooth="yes"/>
      <point x="310" y="545"/>
      <point x="326" y="514"/>
      <point x="326" y="469" type="curve"/>
      <point x="502" y="474" type="line"/>
      <point x="511" y="623"/>
      <point x="408" y="684"/>
      <point x="271" y="684" type="curve" smooth="yes"/>
      <point x="143" y="684"/>
      <point x="38" y="616"/>
      <point x="38" y="489" type="curve" smooth="yes"/>
      <point x="38" y="373"/>
      <point x="111" y="332"/>
      <point x="201" y="301" type="curve" smooth="yes"/>
      <point x="270" y="277"/>
      <point x="334" y="265"/>
      <point x="334" y="224" type="curve" smooth="yes"/>
      <point x="334" y="193"/>
      <point x="306" y="183"/>
    </contour>
  </outline>
</glyph>
<glyph name="percent" format="1">
  <advance width="741"/>
  <unicode hex="0025"/>
  <outline>
    <contour>
      <point x="20" y="529" type="curve" smooth="yes"/>
      <point x="20" y="441"/>
      <point x="82" y="380"/>
      <point x="170" y="380" type="curve" smooth="yes"/>
      <point x="253" y="380"/>
      <point x="321" y="441"/>
      <point x="321" y="529" type="curve" smooth="yes"/>
      <point x="321" y="618"/>
      <point x="259" y="680"/>
      <point x="170" y="680" type="curve" smooth="yes"/>
      <point x="82" y="680"/>
      <point x="20" y="618"/>
    </contour>
    <contour>
      <point x="141" y="530" type="curve" smooth="yes"/>
      <point x="141" y="550"/>
      <point x="154" y="565"/>
      <point x="171" y="565" type="curve" smooth="yes"/>
      <point x="188" y="565"/>
      <point x="201" y="550"/>
      <point x="201" y="530" type="curve" smooth="yes"/>
      <point x="201" y="510"/>
      <point x="188" y="495"/>
      <point x="171" y="495" type="curve" smooth="yes"/>
      <point x="154" y="495"/>
      <point x="141" y="510"/>
    </contour>
    <contour>
      <point x="420" y="134" type="curve" smooth="yes"/>
      <point x="420" y="46"/>
      <point x="482" y="-15"/>
      <point x="570" y="-15" type="curve" smooth="yes"/>
      <point x="653" y="-15"/>
      <point x="721" y="46"/>
      <point x="721" y="134" type="curve" smooth="yes"/>
      <point x="721" y="223"/>
      <point x="659" y="285"/>
      <point x="570" y="285" type="curve" smooth="yes"/>
      <point x="482" y="285"/>
      <point x="420" y="223"/>
    </contour>
    <contour>
      <point x="541" y="135" type="curve" smooth="yes"/>
      <point x="541" y="155"/>
      <point x="554" y="170"/>
      <point x="571" y="170" type="curve" smooth="yes"/>
      <point x="588" y="170"/>
      <point x="601" y="155"/>
      <point x="601" y="135" type="curve" smooth="yes"/>
      <point x="601" y="115"/>
      <point x="588" y="100"/>
      <point x="571" y="100" type="curve" smooth="yes"/>
      <point x="554" y="100"/>
      <point x="541" y="115"/>
    </contour>
    <component base="fraction" xOffset="97"/>
  </outline>
</glyph>
<glyph name="quotesingle" format="1">
  <advance width="197"/>
  <unicode hex="0027"/>
  <outline>
    <contour>
      <point x="15" y="725" type="line"/>
      <point x="15" y="712"/>
      <point x="43" y="400"/>
      <point x="43" y="400" type="curve"/>
      <point x="160" y="400" type="line"/>
      <point x="160" y="400"/>
      <point x="182" y="736"/>
      <point x="182" y="742" type="curve"/>
    </contour>
  </outline>
</glyph>
<glyph name="plus" format="1">
  <advance width="540"/>
  <unicode hex="002B"/>
  <outline>
    <contour>
      <point x="350" y="-5" type="line"/>
      <point x="350" y="180" type="line"/>
      <point x="515" y="180" type="line"/>
      <point x="515" y="325" type="line"/>
      <point x="350" y="325" type="line"/>
      <point x="350" y="505" type="line"/>
      <point x="190" y="505" type="line"/>
      <point x="190" y="325" type="line"/>
      <point x="25" y="325" type="line"/>
      <point x="25" y="180" type="line"/>
      <point x="190" y="180" type="line"/>
      <point x="190" y="-5" type="line"/>
    </contour>
  </outline>
</glyph>
<glyph name="hyphen" format="1">
  <advance width="283"/>
  <unicode hex="002D"/>
  <outline>
    <contour>
      <point x="15" y="180" type="line"/>
      <point x="268" y="180" type="line"/>
      <point x="268" y="325" type="line"/>
      <point x="15" y="325" type="line"/>
    </contour>
  </outline>
</glyph>
<glyph name="slash" format="1">
  <advance width="498"/>
  <unicode hex="002F"/>
  <outline>
    <contour>
      <point x="503" y="740" type="line"/>
      <point x="353" y="740" type="line"/>
      <point x="-5" y="-100" type="line"/>
      <point x="145" y="-100" type="line"/>
    </contour>
  </outline>
</glyph>
<glyph name="zero" format="1">
  <advance width="527"/>
  <unicode hex="0030"/>
  <outline>
    <contour>
      <point x="266" y="-15" type="curve" smooth="yes"/>
      <point x="124" y="-15"/>
      <point x="35" y="72"/>
      <point x="32" y="175" type="curve" smooth="yes"/>
      <point x="31" y="219"/>
      <point x="30" y="284"/>
      <point x="32" y="330" type="curve" smooth="yes"/>
      <point x="36" y="434"/>
      <point x="124" y="525"/>
      <point x="263" y="525" type="curve" smooth="yes"/>
      <point x="393" y="525"/>
      <point x="490" y="442"/>
      <point x="495" y="332" type="curve" smooth="yes"/>
      <point x="497" y="278"/>
      <point x="497" y="231"/>
      <point x="495" y="175" type="curve" smooth="yes"/>
      <point x="491" y="71"/>
      <point x="407" y="-15"/>
    </contour>
    <contour>
      <point x="264" y="135" type="curve" smooth="yes"/>
      <point x="289" y="135"/>
      <point x="304" y="152"/>
      <point x="306" y="180" type="curve" smooth="yes"/>
      <point x="309" y="228"/>
      <point x="309" y="283"/>
      <point x="306" y="330" type="curve" smooth="yes"/>
      <point x="304" y="357"/>
      <point x="291" y="375"/>
      <point x="264" y="375" type="curve" smooth="yes"/>
      <point x="237" y="375"/>
      <point x="223" y="357"/>
      <point x="221" y="330" type="curve" smooth="yes"/>
      <point x="218" y="291"/>
      <point x="218" y="222"/>
      <point x="221" y="180" type="curve" smooth="yes"/>
      <point x="223" y="151"/>
      <point x="240" y="135"/>
    </contour>
  </outline>
</glyph>
<glyph name="four" format="1">
  <advance width="533"/>
  <unicode hex="0034"/>
  <outline>
    <contour>
      <point x="296" y="260" type="line"/>
      <point x="286" y="135" type="line"/>
      <point x="208" y="135" type="line"/>
      <point x="366" y="549" type="line"/>
      <point x="366" y="549"/>
      <point x="181" y="511"/>
      <point x="181" y="511" type="curve"/>
      <point x="20" y="95" type="line"/>
      <point x="38" y="5" type="line"/>
      <point x="286" y="5" type="line"/>
      <point x="286" y="-140" type="line"/>
      <point x="451" y="-140" type="line"/>
      <point x="456" y="5" type="line"/>
      <point x="528" y="5" type="line"/>
      <point x="528" y="135" type="line"/>
      <point x="456" y="135" type="line"/>
      <point x="456" y="302" type="line"/>
    </contour>
  </outline>
</glyph>
<glyph name="five" format="1">
  <advance width="479"/>
  <unicode hex="0035"/>
  <outline>
    <contour>
      <point x="464" y="80" type="curve" smooth="yes"/>
      <point x="464" y="217"/>
      <point x="383" y="270"/>
      <point x="291" y="270" type="curve" smooth="yes"/>
      <point x="236" y="270"/>
      <point x="204" y="252"/>
      <point x="204" y="252" type="curve"/>
      <point x="216" y="370" type="line"/>
      <point x="431" y="370" type="line"/>
      <point x="431" y="510" type="line"/>
      <point x="77" y="510" type="line"/>
      <point x="46" y="133" type="line"/>
      <point x="185" y="124" type="line"/>
      <point x="191" y="139"/>
      <point x="205" y="158"/>
      <point x="231" y="158" type="curve" smooth="yes"/>
      <point x="263" y="158"/>
      <point x="279" y="137"/>
      <point x="279" y="80" type="curve" smooth="yes"/>
      <point x="279" y="27"/>
      <point x="266" y="-5"/>
      <point x="231" y="-5" type="curve" smooth="yes"/>
      <point x="199" y="-5"/>
      <point x="193" y="24"/>
      <point x="190" y="59" type="curve"/>
      <point x="20" y="49" type="line"/>
      <point x="23" y="-86"/>
      <point x="131" y="-155"/>
      <point x="238" y="-155" type="curve" smooth="yes"/>
      <point x="356" y="-155"/>
      <point x="464" y="-80"/>
    </contour>
  </outline>
</glyph>
<glyph name="six" format="1">
  <advance width="500"/>
  <unicode hex="0036"/>
  <outline>
    <contour>
      <point x="28" y="208" type="curve" smooth="yes"/>
      <point x="35" y="68"/>
      <point x="130" y="-15"/>
      <point x="260" y="-15" type="curve" smooth="yes"/>
      <point x="388" y="-15"/>
      <point x="485" y="67"/>
      <point x="485" y="214" type="curve" smooth="yes"/>
      <point x="485" y="338"/>
      <point x="413" y="405"/>
      <point x="320" y="405" type="curve" smooth="yes"/>
      <point x="211" y="405"/>
      <point x="193" y="335"/>
      <point x="193" y="335" type="curve"/>
      <point x="181" y="225" type="line"/>
      <point x="200" y="209" type="line"/>
      <point x="200" y="247"/>
      <point x="214" y="279"/>
      <point x="253" y="279" type="curve" smooth="yes"/>
      <point x="285" y="279"/>
      <point x="300" y="257"/>
      <point x="300" y="210" type="curve" smooth="yes"/>
      <point x="300" y="168"/>
      <point x="288" y="135"/>
      <point x="253" y="135" type="curve" smooth="yes"/>
      <point x="216" y="135"/>
      <point x="204" y="167"/>
      <point x="200" y="215" type="curve" smooth="yes"/>
      <point x="195" y="278"/>
      <point x="196" y="381"/>
      <point x="200" y="443" type="curve" smooth="yes"/>
      <point x="203" y="490"/>
      <point x="216" y="515"/>
      <point x="252" y="515" type="curve" smooth="yes"/>
      <point x="282" y="515"/>
      <point x="292" y="484"/>
      <point x="291" y="450" type="curve"/>
      <point x="461" y="460" type="line"/>
      <point x="466" y="584"/>
      <point x="385" y="665"/>
      <point x="256" y="665" type="curve" smooth="yes"/>
      <point x="109" y="665"/>
      <point x="36" y="566"/>
      <point x="28" y="451" type="curve" smooth="yes"/>
      <point x="24" y="389"/>
      <point x="24" y="273"/>
    </contour>
  </outline>
</glyph>
<glyph name="eight" format="1">
  <advance width="502"/>
  <unicode hex="0038"/>
  <outline>
    <contour>
      <point x="209" y="451" type="curve" smooth="yes"/>
      <point x="209" y="491"/>
      <point x="224" y="510"/>
      <point x="251" y="510" type="curve" smooth="yes"/>
      <point x="278" y="510"/>
      <point x="293" y="492"/>
      <point x="293" y="451" type="curve" smooth="yes"/>
      <point x="293" y="411"/>
      <point x="278" y="390"/>
      <point x="251" y="390" type="curve" smooth="yes"/>
      <point x="224" y="390"/>
      <point x="209" y="410"/>
    </contour>
    <contour>
      <point x="205" y="203" type="curve" smooth="yes"/>
      <point x="205" y="248"/>
      <point x="223" y="270"/>
      <point x="251" y="270" type="curve" smooth="yes"/>
      <point x="279" y="270"/>
      <point x="297" y="248"/>
      <point x="297" y="203" type="curve" smooth="yes"/>
      <point x="297" y="158"/>
      <point x="279" y="135"/>
      <point x="251" y="135" type="curve" smooth="yes"/>
      <point x="223" y="135"/>
      <point x="205" y="157"/>
    </contour>
    <contour>
      <point x="482" y="190" type="curve" smooth="yes"/>
      <point x="482" y="250"/>
      <point x="447" y="317"/>
      <point x="382" y="334" type="curve"/>
      <point x="442" y="359"/>
      <point x="478" y="420"/>
      <point x="478" y="472" type="curve" smooth="yes"/>
      <point x="478" y="601"/>
      <point x="369" y="660"/>
      <point x="253" y="660" type="curve" smooth="yes"/>
      <point x="135" y="660"/>
      <point x="24" y="599"/>
      <point x="24" y="467" type="curve" smooth="yes"/>
      <point x="24" y="416"/>
      <point x="56" y="357"/>
      <point x="117" y="334" type="curve"/>
      <point x="48" y="302"/>
      <point x="20" y="243"/>
      <point x="20" y="181" type="curve" smooth="yes"/>
      <point x="20" y="48"/>
      <point x="127" y="-15"/>
      <point x="248" y="-15" type="curve" smooth="yes"/>
      <point x="371" y="-15"/>
      <point x="482" y="49"/>
    </contour>
  </outline>
</glyph>
<glyph name="nine" format="1">
  <advance width="495"/>
  <unicode hex="0039"/>
  <outline>
    <contour>
      <point x="235" y="-165" type="curve" smooth="yes"/>
      <point x="374" y="-165"/>
      <point x="460" y="-88"/>
      <point x="470" y="50" type="curve" smooth="yes"/>
      <point x="476" y="132"/>
      <point x="476" y="230"/>
      <point x="470" y="305" type="curve" smooth="yes"/>
      <point x="461" y="435"/>
      <point x="381" y="525"/>
      <point x="236" y="525" type="curve" smooth="yes"/>
      <point x="94" y="525"/>
      <point x="15" y="424"/>
      <point x="15" y="291" type="curve" smooth="yes"/>
      <point x="15" y="157"/>
      <point x="101" y="94"/>
      <point x="195" y="94" type="curve" smooth="yes"/>
      <point x="304" y="94"/>
      <point x="308" y="172"/>
      <point x="308" y="172" type="curve"/>
      <point x="311" y="277" type="line"/>
      <point x="297" y="294" type="line"/>
      <point x="301" y="255"/>
      <point x="292" y="219"/>
      <point x="251" y="219" type="curve" smooth="yes"/>
      <point x="212" y="219"/>
      <point x="200" y="248"/>
      <point x="200" y="296" type="curve" smooth="yes"/>
      <point x="200" y="344"/>
      <point x="210" y="375"/>
      <point x="245" y="375" type="curve" smooth="yes"/>
      <point x="282" y="375"/>
      <point x="294" y="350"/>
      <point x="297" y="302" type="curve" smooth="yes"/>
      <point x="301" y="221"/>
      <point x="302" y="121"/>
      <point x="297" y="52" type="curve" smooth="yes"/>
      <point x="293" y="2"/>
      <point x="281" y="-15"/>
      <point x="244" y="-15" type="curve" smooth="yes"/>
      <point x="207" y="-15"/>
      <point x="192" y="9"/>
      <point x="192" y="46" type="curve"/>
      <point x="22" y="37" type="line"/>
      <point x="24" y="-79"/>
      <point x="112" y="-165"/>
    </contour>
  </outline>
</glyph>
<glyph name="equal" format="1">
  <advance width="512"/>
  <unicode hex="003D"/>
  <outline>
    <contour>
      <point x="25" y="288" type="line"/>
      <point x="487" y="288" type="line"/>
      <point x="487" y="428" type="line"/>
      <point x="25" y="428" type="line"/>
    </contour>
    <contour>
      <point x="25" y="93" type="line"/>
      <point x="487" y="93" type="line"/>
      <point x="487" y="233" type="line"/>
      <point x="25" y="233" type="line"/>
    </contour>
  </outline>
</glyph>
<glyph name="greater" format="1">
  <advance width="511"/>
  <unicode hex="003E"/>
  <outline>
    <contour>
      <point x="481" y="254" type="line"/>
      <point x="103" y="506" type="line"/>
      <point x="26" y="399" type="line"/>
      <point x="262" y="241" type="line"/>
      <point x="263" y="228" type="line"/>
      <point x="25" y="80" type="line"/>
      <point x="91" y="-32" type="line"/>
      <point x="481" y="214" type="line"/>
    </contour>
  </outline>
</glyph>
<glyph name="question" format="1">
  <advance width="486"/>
  <unicode hex="003F"/>
  <outline>
    <contour>
      <point x="273" y="260" type="line"/>
      <point x="273" y="282" type="line" smooth="yes"/>
      <point x="273" y="306"/>
      <point x="303" y="324"/>
      <point x="373" y="378" type="curve" smooth="yes"/>
      <point x="445" y="433"/>
      <point x="471" y="467"/>
      <point x="471" y="533" type="curve" smooth="yes"/>
      <point x="471" y="659"/>
      <point x="364" y="725"/>
      <point x="252" y="725" type="curve" smooth="yes"/>
      <point x="122" y="725"/>
      <point x="15" y="650"/>
      <point x="21" y="500" type="curve"/>
      <point x="196" y="505" type="line"/>
      <point x="194" y="548"/>
      <point x="214" y="570"/>
      <point x="240" y="570" type="curve" smooth="yes"/>
      <point x="267" y="570"/>
      <point x="281" y="551"/>
      <point x="281" y="523" type="curve" smooth="yes"/>
      <point x="281" y="492"/>
      <point x="281" y="475"/>
      <point x="244" y="436" type="curve" smooth="yes"/>
      <point x="189" y="379"/>
      <point x="161" y="351"/>
      <point x="174" y="285" type="curve" smooth="yes"/>
      <point x="180" y="260" type="line"/>
    </contour>
    <contour>
      <point x="130" y="83" type="curve" smooth="yes"/>
      <point x="130" y="26"/>
      <point x="174" y="-15"/>
      <point x="230" y="-15" type="curve" smooth="yes"/>
      <point x="287" y="-15"/>
      <point x="331" y="26"/>
      <point x="331" y="83" type="curve" smooth="yes"/>
      <point x="331" y="143"/>
      <point x="287" y="183"/>
      <point x="230" y="183" type="curve" smooth="yes"/>
      <point x="174" y="183"/>
      <point x="130" y="143"/>
    </contour>
  </outline>
</glyph>
<glyph name="at" format="1">
  <advance width="959"/>
  <unicode hex="0040"/>
  <outline>
    <contour>
      <point x="462" y="161" type="curve" smooth="yes"/>
      <point x="439" y="161"/>
      <point x="429" y="176"/>
      <point x="433" y="207" type="curve" smooth="yes"/>
      <point x="438" y="246"/>
      <point x="442" y="271"/>
      <point x="452" y="310" type="curve" smooth="yes"/>
      <point x="459" y="337"/>
      <point x="472" y="351"/>
      <point x="497" y="351" type="curve" smooth="yes"/>
      <point x="507" y="351"/>
      <point x="518" y="348"/>
      <point x="527" y="342" type="curve"/>
      <point x="498" y="184" type="line"/>
      <point x="492" y="172"/>
      <point x="479" y="161"/>
    </contour>
    <contour>
      <point x="707" y="-23" type="line"/>
      <point x="652" y="-47"/>
      <point x="563" y="-75"/>
      <point x="476" y="-75" type="curve" smooth="yes"/>
      <point x="289" y="-75"/>
      <point x="174" y="31"/>
      <point x="174" y="205" type="curve" smooth="yes"/>
      <point x="174" y="424"/>
      <point x="311" y="565"/>
      <point x="519" y="565" type="curve" smooth="yes"/>
      <point x="692" y="565"/>
      <point x="790" y="461"/>
      <point x="790" y="304" type="curve" smooth="yes"/>
      <point x="790" y="164"/>
      <point x="732" y="129"/>
      <point x="695" y="129" type="curve" smooth="yes"/>
      <point x="660" y="129"/>
      <point x="652" y="153"/>
      <point x="658" y="189" type="curve" smooth="yes"/>
      <point x="698" y="421" type="line"/>
      <point x="653" y="463"/>
      <point x="591" y="486"/>
      <point x="510" y="486" type="curve" smooth="yes"/>
      <point x="394" y="486"/>
      <point x="317" y="432"/>
      <point x="289" y="324" type="curve" smooth="yes"/>
      <point x="277" y="277"/>
      <point x="272" y="252"/>
      <point x="268" y="208" type="curve" smooth="yes"/>
      <point x="256" y="78"/>
      <point x="318" y="31"/>
      <point x="391" y="31" type="curve" smooth="yes"/>
      <point x="448" y="31"/>
      <point x="490" y="61"/>
      <point x="517" y="96" type="curve"/>
      <point x="539" y="53"/>
      <point x="584" y="16"/>
      <point x="671" y="16" type="curve" smooth="yes"/>
      <point x="841" y="16"/>
      <point x="939" y="142"/>
      <point x="939" y="314" type="curve" smooth="yes"/>
      <point x="939" y="568"/>
      <point x="747" y="690"/>
      <point x="520" y="690" type="curve" smooth="yes"/>
      <point x="228" y="690"/>
      <point x="20" y="486"/>
      <point x="20" y="192" type="curve" smooth="yes"/>
      <point x="20" y="-62"/>
      <point x="213" y="-201"/>
      <point x="442" y="-201" type="curve" smooth="yes"/>
      <point x="544" y="-201"/>
      <point x="666" y="-176"/>
      <point x="746" y="-113" type="curve"/>
    </contour>
  </outline>
</glyph>
<glyph name="A" format="1">
  <advance width="645"/>
  <unicode hex="0041"/>
  <outline>
    <contour>
      <point x="200" y="134" type="line"/>
      <point x="437" y="134" type="line"/>
      <point x="437" y="134"/>
      <point x="403" y="282"/>
      <point x="403" y="282" type="curve"/>
      <point x="237" y="282" type="line"/>
    </contour>
    <contour>
      <point x="193" y="710" type="line"/>
      <point x="0" y="0" type="line"/>
      <point x="195" y="0" type="line"/>
      <point x="332" y="592" type="line"/>
      <point x="332" y="710" type="line"/>
    </contour>
    <contour>
      <point x="318" y="592" type="line"/>
      <point x="450" y="0" type="line"/>
      <point x="650" y="0" type="line"/>
      <point x="458" y="710" type="line"/>
      <point x="178" y="710" type="line"/>
      <point x="243" y="594" type="line"/>
    </contour>
  </outline>
</glyph>
<glyph name="B" format="1">
  <advance width="621"/>
  <unicode hex="0042"/>
  <outline>
    <contour>
      <point x="50" y="0" type="line"/>
      <point x="300" y="0" type="line" smooth="yes"/>
      <point x="528" y="0"/>
      <point x="601" y="99"/>
      <point x="601" y="211" type="curve" smooth="yes"/>
      <point x="601" y="316"/>
      <point x="537" y="360"/>
      <point x="448" y="371" type="curve"/>
      <point x="448" y="374" type="line"/>
      <point x="533" y="388"/>
      <point x="595" y="431"/>
      <point x="595" y="525" type="curve" smooth="yes"/>
      <point x="595" y="669"/>
      <point x="464" y="710"/>
      <point x="298" y="710" type="curve" smooth="yes"/>
      <point x="50" y="710" type="line"/>
    </contour>
    <contour>
      <point x="245" y="304" type="line"/>
      <point x="310" y="304" type="line" smooth="yes"/>
      <point x="373" y="304"/>
      <point x="407" y="287"/>
      <point x="407" y="228" type="curve" smooth="yes"/>
      <point x="407" y="169"/>
      <point x="372" y="153"/>
      <point x="308" y="153" type="curve" smooth="yes"/>
      <point x="245" y="153" type="line"/>
    </contour>
    <contour>
      <point x="245" y="557" type="line"/>
      <point x="305" y="557" type="line" smooth="yes"/>
      <point x="369" y="557"/>
      <point x="399" y="541"/>
      <point x="399" y="488" type="curve" smooth="yes"/>
      <point x="399" y="437"/>
      <point x="369" y="417"/>
      <point x="305" y="417" type="curve" smooth="yes"/>
      <point x="245" y="417" type="line"/>
    </contour>
  </outline>
</glyph>
<glyph name="C" format="1">
  <advance width="586"/>
  <unicode hex="0043"/>
  <outline>
    <contour>
      <point x="574" y="479" type="line"/>
      <point x="575" y="484"/>
      <point x="576" y="492"/>
      <point x="576" y="499" type="curve" smooth="yes"/>
      <point x="576" y="650"/>
      <point x="462" y="725"/>
      <point x="314" y="725" type="curve" smooth="yes"/>
      <point x="166" y="725"/>
      <point x="40" y="651"/>
      <point x="33" y="491" type="curve" smooth="yes"/>
      <point x="29" y="418"/>
      <point x="29" y="330"/>
      <point x="33" y="224" type="curve" smooth="yes"/>
      <point x="37" y="69"/>
      <point x="145" y="-15"/>
      <point x="308" y="-15" type="curve" smooth="yes"/>
      <point x="476" y="-15"/>
      <point x="582" y="75"/>
      <point x="582" y="207" type="curve" smooth="yes"/>
      <point x="582" y="216"/>
      <point x="581" y="226"/>
      <point x="580" y="231" type="curve"/>
      <point x="401" y="231" type="line"/>
      <point x="401" y="165"/>
      <point x="367" y="138"/>
      <point x="313" y="138" type="curve" smooth="yes"/>
      <point x="261" y="138"/>
      <point x="230" y="164"/>
      <point x="227" y="228" type="curve" smooth="yes"/>
      <point x="224" y="308"/>
      <point x="224" y="417"/>
      <point x="227" y="487" type="curve" smooth="yes"/>
      <point x="230" y="549"/>
      <point x="263" y="572"/>
      <point x="314" y="572" type="curve" smooth="yes"/>
      <point x="372" y="572"/>
      <point x="396" y="542"/>
      <point x="397" y="479" type="curve"/>
    </contour>
  </outline>
</glyph>
<glyph name="D" format="1">
  <advance width="631"/>
  <unicode hex="0044"/>
  <outline>
    <contour>
      <point x="50" y="0" type="line"/>
      <point x="236" y="0" type="line" smooth="yes"/>
      <point x="431" y="0"/>
      <point x="587" y="52"/>
      <point x="598" y="227" type="curve" smooth="yes"/>
      <point x="603" y="309"/>
      <point x="603" y="411"/>
      <point x="598" y="478" type="curve" smooth="yes"/>
      <point x="584" y="671"/>
      <point x="433" y="710"/>
      <point x="234" y="710" type="curve" smooth="yes"/>
      <point x="50" y="710" type="line"/>
    </contour>
    <contour>
      <point x="399" y="468" type="curve" smooth="yes"/>
      <point x="404" y="400"/>
      <point x="404" y="298"/>
      <point x="399" y="243" type="curve" smooth="yes"/>
      <point x="394" y="175"/>
      <point x="353" y="153"/>
      <point x="275" y="153" type="curve" smooth="yes"/>
      <point x="240" y="153" type="line"/>
      <point x="240" y="557" type="line"/>
      <point x="277" y="557" type="line" smooth="yes"/>
      <point x="353" y="557"/>
      <point x="395" y="536"/>
    </contour>
  </outline>
</glyph>
<glyph name="E" format="1">
  <advance width="536"/>
  <unicode hex="0045"/>
  <outline>
    <contour>
      <point x="50" y="0" type="line"/>
      <point x="496" y="0" type="line"/>
      <point x="496" y="153" type="line"/>
      <point x="245" y="153" type="line"/>
      <point x="245" y="286" type="line"/>
      <point x="472" y="286" type="line"/>
      <point x="472" y="435" type="line"/>
      <point x="245" y="435" type="line"/>
      <point x="245" y="557" type="line"/>
      <point x="496" y="557" type="line"/>
      <point x="496" y="710" type="line"/>
      <point x="50" y="710" type="line"/>
    </contour>
  </outline>
</glyph>
<glyph name="F" format="1">
  <advance width="507"/>
  <unicode hex="0046"/>
  <outline>
    <contour>
      <point x="50" y="0" type="line"/>
      <point x="245" y="0" type="line"/>
      <point x="245" y="258" type="line"/>
      <point x="480" y="258" type="line"/>
      <point x="480" y="406" type="line"/>
      <point x="245" y="406" type="line"/>
      <point x="245" y="557" type="line"/>
      <point x="502" y="557" type="line"/>
      <point x="502" y="710" type="line"/>
      <point x="50" y="710" type="line"/>
    </contour>
  </outline>
</glyph>
<glyph name="G" format="1">
  <advance width="618"/>
  <unicode hex="0047"/>
  <outline>
    <contour>
      <point x="597" y="396" type="line"/>
      <point x="319" y="396" type="line"/>
      <point x="319" y="265" type="line"/>
      <point x="411" y="265" type="line"/>
      <point x="411" y="232" type="line" smooth="yes"/>
      <point x="411" y="161"/>
      <point x="378" y="137"/>
      <point x="321" y="137" type="curve" smooth="yes"/>
      <point x="264" y="137"/>
      <point x="230" y="169"/>
      <point x="227" y="232" type="curve" smooth="yes"/>
      <point x="224" y="311"/>
      <point x="224" y="414"/>
      <point x="227" y="483" type="curve" smooth="yes"/>
      <point x="230" y="539"/>
      <point x="262" y="572"/>
      <point x="318" y="572" type="curve" smooth="yes"/>
      <point x="377" y="572"/>
      <point x="403" y="542"/>
      <point x="403" y="479" type="curve"/>
      <point x="582" y="479" type="line"/>
      <point x="583" y="483"/>
      <point x="584" y="492"/>
      <point x="584" y="503" type="curve" smooth="yes"/>
      <point x="584" y="656"/>
      <point x="463" y="725"/>
      <point x="318" y="725" type="curve" smooth="yes"/>
      <point x="169" y="725"/>
      <point x="39" y="646"/>
      <point x="33" y="491" type="curve" smooth="yes"/>
      <point x="29" y="418"/>
      <point x="30" y="330"/>
      <point x="33" y="224" type="curve" smooth="yes"/>
      <point x="36" y="67"/>
      <point x="158" y="-15"/>
      <point x="316" y="-15" type="curve" smooth="yes"/>
      <point x="470" y="-15"/>
      <point x="597" y="60"/>
      <point x="597" y="234" type="curve" smooth="yes"/>
    </contour>
  </outline>
</glyph>
<glyph name="H" format="1">
  <advance width="687"/>
  <unicode hex="0048"/>
  <outline>
    <contour>
      <point x="637" y="710" type="line"/>
      <point x="441" y="710" type="line"/>
      <point x="441" y="434" type="line"/>
      <point x="245" y="434" type="line"/>
      <point x="245" y="710" type="line"/>
      <point x="50" y="710" type="line"/>
      <point x="50" y="0" type="line"/>
      <point x="245" y="0" type="line"/>
      <point x="245" y="281" type="line"/>
      <point x="441" y="281" type="line"/>
      <point x="441" y="0" type="line"/>
      <point x="637" y="0" type="line"/>
    </contour>
  </outline>
</glyph>
<glyph name="J" format="1">
  <advance width="540"/>
  <unicode hex="004A"/>
  <outline>
    <contour>
      <point x="305" y="710" type="line"/>
      <point x="305" y="231" type="line" smooth="yes"/>
      <point x="305" y="162"/>
      <point x="285" y="138"/>
      <point x="241" y="138" type="curve" smooth="yes"/>
      <point x="194" y="138"/>
      <point x="171" y="169"/>
      <point x="171" y="231" type="curve"/>
      <point x="2" y="233" type="line"/>
      <point x="1" y="227"/>
      <point x="0" y="218"/>
      <point x="0" y="210" type="curve" smooth="yes"/>
      <point x="0" y="63"/>
      <point x="89" y="-15"/>
      <point x="241" y="-15" type="curve" smooth="yes"/>
      <point x="399" y="-15"/>
      <point x="500" y="66"/>
      <point x="500" y="231" type="curve" smooth="yes"/>
      <point x="500" y="710" type="line"/>
    </contour>
  </outline>
</glyph>
<glyph name="K" format="1">
  <advance width="656"/>
  <unicode hex="004B"/>
  <outline>
    <contour>
      <point x="661" y="0" type="line"/>
      <point x="452" y="381" type="line"/>
      <point x="652" y="710" type="line"/>
      <point x="445" y="710" type="line"/>
      <point x="250" y="361" type="line"/>
      <point x="445" y="0" type="line"/>
    </contour>
    <contour>
      <point x="245" y="710" type="line"/>
      <point x="50" y="710" type="line"/>
      <point x="50" y="0" type="line"/>
      <point x="245" y="0" type="line"/>
    </contour>
  </outline>
</glyph>
<glyph name="L" format="1">
  <advance width="488"/>
  <unicode hex="004C"/>
  <outline>
    <contour>
      <point x="50" y="0" type="line"/>
      <point x="478" y="0" type="line"/>
      <point x="478" y="153" type="line"/>
      <point x="245" y="153" type="line"/>
      <point x="245" y="710" type="line"/>
      <point x="50" y="710" type="line"/>
    </contour>
  </outline>
</glyph>
<glyph name="M" format="1">
  <advance width="808"/>
  <unicode hex="004D"/>
  <outline>
    <contour>
      <point x="563" y="0" type="line"/>
      <point x="758" y="0" type="line"/>
      <point x="758" y="710" type="line"/>
      <point x="567" y="710" type="line"/>
    </contour>
    <contour>
      <point x="330" y="130" type="line"/>
      <point x="475" y="130" type="line"/>
      <point x="656" y="710" type="line"/>
      <point x="521" y="710" type="line"/>
    </contour>
    <contour>
      <point x="50" y="710" type="line"/>
      <point x="50" y="0" type="line"/>
      <point x="235" y="0" type="line"/>
      <point x="233" y="710" type="line"/>
    </contour>
    <contour>
      <point x="318" y="130" type="line"/>
      <point x="468" y="130" type="line"/>
      <point x="310" y="710" type="line"/>
      <point x="160" y="710" type="line"/>
    </contour>
  </outline>
</glyph>
<glyph name="N" format="1">
  <advance width="722"/>
  <unicode hex="004E"/>
  <outline>
    <contour>
      <point x="486" y="0" type="line"/>
      <point x="672" y="0" type="line"/>
      <point x="672" y="710" type="line"/>
      <point x="486" y="710" type="line"/>
    </contour>
    <contour>
      <point x="118" y="710" type="line"/>
      <point x="414" y="0" type="line"/>
      <point x="600" y="0" type="line"/>
      <point x="304" y="710" type="line"/>
    </contour>
    <contour>
      <point x="50" y="710" type="line"/>
      <point x="50" y="0" type="line"/>
      <point x="235" y="0" type="line"/>
      <point x="235" y="710" type="line"/>
    </contour>
  </outline>
</glyph>
<glyph name="O" format="1">
  <advance width="631"/>
  <unicode hex="004F"/>
  <outline>
    <contour>
      <point x="34" y="481" type="curve" smooth="yes"/>
      <point x="30" y="402"/>
      <point x="30" y="305"/>
      <point x="34" y="231" type="curve" smooth="yes"/>
      <point x="41" y="68"/>
      <point x="157" y="-15"/>
      <point x="316" y="-15" type="curve" smooth="yes"/>
      <point x="473" y="-15"/>
      <point x="594" y="68"/>
      <point x="599" y="229" type="curve" smooth="yes"/>
      <point x="601" y="307"/>
      <point x="601" y="413"/>
      <point x="599" y="481" type="curve" smooth="yes"/>
      <point x="593" y="640"/>
      <point x="475" y="725"/>
      <point x="317" y="725" type="curve" smooth="yes"/>
      <point x="158" y="725"/>
      <point x="40" y="640"/>
    </contour>
    <contour>
      <point x="228" y="226" type="curve" smooth="yes"/>
      <point x="224" y="293"/>
      <point x="224" y="426"/>
      <point x="228" y="488" type="curve" smooth="yes"/>
      <point x="231" y="546"/>
      <point x="265" y="572"/>
      <point x="317" y="572" type="curve" smooth="yes"/>
      <point x="368" y="572"/>
      <point x="401" y="546"/>
      <point x="403" y="488" type="curve" smooth="yes"/>
      <point x="406" y="421"/>
      <point x="407" y="289"/>
      <point x="403" y="226" type="curve" smooth="yes"/>
      <point x="400" y="165"/>
      <point x="367" y="138"/>
      <point x="316" y="138" type="curve" smooth="yes"/>
      <point x="265" y="138"/>
      <point x="231" y="165"/>
    </contour>
  </outline>
</glyph>
<glyph name="P" format="1">
  <advance width="602"/>
  <unicode hex="0050"/>
  <outline>
    <contour>
      <point x="245" y="0" type="line"/>
      <point x="245" y="234" type="line"/>
      <point x="245" y="234"/>
      <point x="271" y="232"/>
      <point x="306" y="232" type="curve" smooth="yes"/>
      <point x="486" y="232"/>
      <point x="602" y="325"/>
      <point x="602" y="470" type="curve" smooth="yes"/>
      <point x="602" y="683"/>
      <point x="417" y="711"/>
      <point x="231" y="711" type="curve" smooth="yes"/>
      <point x="153" y="711"/>
      <point x="50" y="710"/>
      <point x="50" y="710" type="curve"/>
      <point x="50" y="0" type="line"/>
    </contour>
    <contour>
      <point x="245" y="557" type="line"/>
      <point x="245" y="557"/>
      <point x="266" y="558"/>
      <point x="280" y="558" type="curve" smooth="yes"/>
      <point x="366" y="558"/>
      <point x="403" y="528"/>
      <point x="403" y="470" type="curve" smooth="yes"/>
      <point x="403" y="400"/>
      <point x="352" y="376"/>
      <point x="287" y="376" type="curve" smooth="yes"/>
      <point x="266" y="376"/>
      <point x="245" y="377"/>
      <point x="245" y="377" type="curve"/>
    </contour>
  </outline>
</glyph>
<glyph name="Q" format="1">
  <advance width="634"/>
  <unicode hex="0051"/>
  <outline>
    <contour>
      <point x="35" y="481" type="curve" smooth="yes"/>
      <point x="30" y="401"/>
      <point x="30" y="307"/>
      <point x="35" y="231" type="curve" smooth="yes"/>
      <point x="41" y="69"/>
      <point x="164" y="-15"/>
      <point x="334" y="-15" type="curve" smooth="yes"/>
      <point x="503" y="-15"/>
      <point x="630" y="69"/>
      <point x="635" y="230" type="curve" smooth="yes"/>
      <point x="637" y="309"/>
      <point x="637" y="411"/>
      <point x="635" y="481" type="curve" smooth="yes"/>
      <point x="628" y="639"/>
      <point x="505" y="725"/>
      <point x="335" y="725" type="curve" smooth="yes"/>
      <point x="165" y="725"/>
      <point x="41" y="639"/>
    </contour>
    <contour>
      <point x="228" y="227" type="curve" smooth="yes"/>
      <point x="224" y="298"/>
      <point x="224" y="423"/>
      <point x="228" y="486" type="curve" smooth="yes"/>
      <point x="231" y="552"/>
      <point x="271" y="583"/>
      <point x="335" y="583" type="curve" smooth="yes"/>
      <point x="397" y="583"/>
      <point x="437" y="552"/>
      <point x="439" y="486" type="curve" smooth="yes"/>
      <point x="442" y="419"/>
      <point x="444" y="294"/>
      <point x="439" y="227" type="curve" smooth="yes"/>
      <point x="436" y="159"/>
      <point x="396" y="127"/>
      <point x="334" y="127" type="curve" smooth="yes"/>
      <point x="271" y="127"/>
      <point x="231" y="159"/>
    </contour>
    <contour>
      <point x="386" y="-109" type="curve"/>
      <point x="467" y="-159"/>
      <point x="506" y="-171"/>
      <point x="563" y="-175" type="curve" smooth="yes"/>
      <point x="602" y="-181"/>
      <point x="628" y="-177"/>
      <point x="643" y="-165" type="curve" smooth="yes"/>
      <point x="646" y="-165"/>
      <point x="648" y="-56"/>
      <point x="649" y="-55" type="curve"/>
      <point x="637" y="-48" type="line"/>
      <point x="603" y="-48"/>
      <point x="576" y="-46"/>
      <point x="497" y="-26" type="curve" smooth="yes"/>
      <point x="407" y="-4"/>
      <point x="352" y="4"/>
      <point x="296" y="9" type="curve" smooth="yes"/>
      <point x="285" y="13"/>
      <point x="234" y="14"/>
      <point x="225" y="14" type="curve" smooth="yes"/>
      <point x="219" y="0" type="line"/>
      <point x="254" y="-11"/>
      <point x="311" y="-61"/>
    </contour>
  </outline>
</glyph>
<glyph name="R" format="1">
  <advance width="640"/>
  <unicode hex="0052"/>
  <outline>
    <contour>
      <point x="250" y="0" type="line"/>
      <point x="250" y="253" type="line"/>
      <point x="344" y="253" type="line" smooth="yes"/>
      <point x="361" y="285" type="line"/>
      <point x="504" y="298"/>
      <point x="606" y="358"/>
      <point x="606" y="503" type="curve" smooth="yes"/>
      <point x="606" y="673"/>
      <point x="469" y="710"/>
      <point x="278" y="710" type="curve" smooth="yes"/>
      <point x="55" y="710" type="line"/>
      <point x="55" y="0" type="line"/>
    </contour>
    <contour>
      <point x="250" y="557" type="line"/>
      <point x="298" y="557" type="line" smooth="yes"/>
      <point x="374" y="557"/>
      <point x="407" y="537"/>
      <point x="407" y="475" type="curve" smooth="yes"/>
      <point x="407" y="412"/>
      <point x="375" y="392"/>
      <point x="297" y="392" type="curve" smooth="yes"/>
      <point x="250" y="392" type="line"/>
    </contour>
    <contour>
      <point x="270" y="337" type="line"/>
      <point x="442" y="0" type="line"/>
      <point x="650" y="0" type="line"/>
      <point x="470" y="337" type="line"/>
    </contour>
  </outline>
</glyph>
<glyph name="S" format="1">
  <advance width="606"/>
  <unicode hex="0053"/>
  <outline>
    <contour>
      <point x="313" y="-15" type="curve" smooth="yes"/>
      <point x="478" y="-15"/>
      <point x="586" y="66"/>
      <point x="586" y="197" type="curve" smooth="yes"/>
      <point x="586" y="329"/>
      <point x="515" y="373"/>
      <point x="372" y="422" type="curve" smooth="yes"/>
      <point x="258" y="462"/>
      <point x="232" y="479"/>
      <point x="232" y="520" type="curve" smooth="yes"/>
      <point x="232" y="555"/>
      <point x="265" y="572"/>
      <point x="306" y="572" type="curve" smooth="yes"/>
      <point x="362" y="572"/>
      <point x="390" y="542"/>
      <point x="390" y="479" type="curve"/>
      <point x="570" y="479" type="line"/>
      <point x="571" y="488"/>
      <point x="571" y="497"/>
      <point x="571" y="505" type="curve" smooth="yes"/>
      <point x="571" y="662"/>
      <point x="468" y="725"/>
      <point x="308" y="725" type="curve" smooth="yes"/>
      <point x="162" y="725"/>
      <point x="37" y="653"/>
      <point x="37" y="506" type="curve" smooth="yes"/>
      <point x="37" y="385"/>
      <point x="109" y="335"/>
      <point x="254" y="284" type="curve" smooth="yes"/>
      <point x="369" y="244"/>
      <point x="390" y="228"/>
      <point x="390" y="192" type="curve" smooth="yes"/>
      <point x="390" y="155"/>
      <point x="362" y="138"/>
      <point x="313" y="138" type="curve" smooth="yes"/>
      <point x="256" y="138"/>
      <point x="211" y="163"/>
      <point x="211" y="231" type="curve"/>
      <point x="31" y="231" type="line"/>
      <point x="30" y="223"/>
      <point x="30" y="215"/>
      <point x="30" y="208" type="curve" smooth="yes"/>
      <point x="30" y="53"/>
      <point x="157" y="-15"/>
    </contour>
  </outline>
</glyph>
<glyph name="T" format="1">
  <advance width="554"/>
  <unicode hex="0054"/>
  <outline>
    <contour>
      <point x="180" y="0" type="line"/>
      <point x="374" y="0" type="line"/>
      <point x="374" y="557" type="line"/>
      <point x="554" y="557" type="line"/>
      <point x="554" y="710" type="line"/>
      <point x="0" y="710" type="line"/>
      <point x="0" y="557" type="line"/>
      <point x="180" y="557" type="line"/>
    </contour>
  </outline>
</glyph>
<glyph name="U" format="1">
  <advance width="625"/>
  <unicode hex="0055"/>
  <outline>
    <contour>
      <point x="393" y="710" type="line"/>
      <point x="393" y="232" type="line" smooth="yes"/>
      <point x="393" y="173"/>
      <point x="369" y="138"/>
      <point x="311" y="138" type="curve" smooth="yes"/>
      <point x="253" y="138"/>
      <point x="226" y="173"/>
      <point x="226" y="232" type="curve" smooth="yes"/>
      <point x="226" y="710" type="line"/>
      <point x="39" y="710" type="line"/>
      <point x="39" y="234" type="line" smooth="yes"/>
      <point x="39" y="65"/>
      <point x="147" y="-15"/>
      <point x="307" y="-15" type="curve" smooth="yes"/>
      <point x="467" y="-15"/>
      <point x="580" y="67"/>
      <point x="580" y="232" type="curve" smooth="yes"/>
      <point x="580" y="710" type="line"/>
    </contour>
  </outline>
</glyph>
<glyph name="V" format="1">
  <advance width="633"/>
  <unicode hex="0056"/>
  <outline>
    <contour>
      <point x="271" y="0" type="line"/>
      <point x="451" y="0" type="line"/>
      <point x="633" y="710" type="line"/>
      <point x="437" y="710" type="line"/>
    </contour>
    <contour>
      <point x="361" y="0" type="line"/>
      <point x="206" y="710" type="line"/>
      <point x="0" y="710" type="line"/>
      <point x="190" y="0" type="line"/>
    </contour>
  </outline>
</glyph>
<glyph name="W" format="1">
  <advance width="921"/>
  <unicode hex="0057"/>
  <outline>
    <contour>
      <point x="219" y="0" type="line"/>
      <point x="389" y="0" type="line"/>
      <point x="516" y="710" type="line"/>
      <point x="356" y="710" type="line"/>
    </contour>
    <contour>
      <point x="316" y="0" type="line"/>
      <point x="205" y="710" type="line"/>
      <point x="0" y="710" type="line"/>
      <point x="146" y="0" type="line"/>
    </contour>
    <contour>
      <point x="603" y="0" type="line"/>
      <point x="783" y="0" type="line"/>
      <point x="921" y="710" type="line"/>
      <point x="726" y="710" type="line"/>
    </contour>
    <contour>
      <point x="700" y="0" type="line"/>
      <point x="583" y="710" type="line"/>
      <point x="408" y="710" type="line"/>
      <point x="535" y="0" type="line"/>
    </contour>
  </outline>
</glyph>
<glyph name="X" format="1">
  <advance width="651"/>
  <unicode hex="0058"/>
  <outline>
    <contour>
      <point x="417" y="317" type="line"/>
      <point x="642" y="710" type="line"/>
      <point x="431" y="710" type="line"/>
      <point x="308" y="458" type="line"/>
    </contour>
    <contour>
      <point x="284" y="290" type="line"/>
      <point x="431" y="0" type="line"/>
      <point x="656" y="0" type="line"/>
      <point x="421" y="392" type="line"/>
      <point x="361" y="431" type="line"/>
      <point x="225" y="710" type="line"/>
      <point x="0" y="710" type="line"/>
      <point x="223" y="332" type="line"/>
    </contour>
    <contour>
      <point x="215" y="386" type="line"/>
      <point x="0" y="0" type="line"/>
      <point x="210" y="0" type="line"/>
      <point x="330" y="267" type="line"/>
    </contour>
  </outline>
</glyph>
<glyph name="Y" format="1">
  <advance width="597"/>
  <unicode hex="0059"/>
  <outline>
    <contour>
      <point x="362" y="268" type="line"/>
      <point x="177" y="710" type="line"/>
      <point x="-30" y="710" type="line"/>
      <point x="198" y="266" type="line"/>
    </contour>
    <contour>
      <point x="198" y="310" type="line"/>
      <point x="198" y="0" type="line"/>
      <point x="394" y="0" type="line"/>
      <point x="394" y="310" type="line"/>
    </contour>
    <contour>
      <point x="394" y="265" type="line"/>
      <point x="627" y="710" type="line"/>
      <point x="428" y="710" type="line"/>
      <point x="227" y="267" type="line"/>
    </contour>
  </outline>
</glyph>
<glyph name="Z" format="1">
  <advance width="559"/>
  <unicode hex="005A"/>
  <outline>
    <contour>
      <point x="14" y="557" type="line"/>
      <point x="308" y="557" type="line"/>
      <point x="10" y="107" type="line"/>
      <point x="15" y="0" type="line"/>
      <point x="549" y="0" type="line"/>
      <point x="549" y="153" type="line"/>
      <point x="248" y="153" type="line"/>
      <point x="545" y="608" type="line"/>
      <point x="538" y="710" type="line"/>
      <point x="14" y="710" type="line"/>
    </contour>
  </outline>
</glyph>
<glyph name="asciicircum" format="1">
  <advance width="443"/>
  <unicode hex="005E"/>
  <outline>
    <contour>
      <point x="144" y="710" type="line"/>
      <point x="5" y="530" type="line"/>
      <point x="150" y="530" type="line"/>
      <point x="224" y="628" type="line"/>
      <point x="288" y="530" type="line"/>
      <point x="438" y="530" type="line"/>
      <point x="307" y="710" type="line"/>
    </contour>
  </outline>
</glyph>
<glyph name="a" format="1">
  <advance width="537"/>
  <unicode hex="0061"/>
  <outline>
    <contour>
      <point x="290" y="331" type="curve" smooth="yes"/>
      <point x="290" y="159" type="line" smooth="yes"/>
      <point x="290" y="131"/>
      <point x="275" y="118"/>
      <point x="250" y="118" type="curve" smooth="yes"/>
      <point x="224" y="118"/>
      <point x="210" y="132"/>
      <point x="210" y="159" type="curve" smooth="yes"/>
      <point x="210" y="181"/>
      <point x="217" y="192"/>
      <point x="255" y="201" type="curve" smooth="yes"/>
      <point x="286" y="207"/>
      <point x="331" y="211"/>
      <point x="384" y="215" type="curve"/>
      <point x="384" y="294" type="line"/>
      <point x="302" y="287"/>
      <point x="210" y="276"/>
      <point x="152" y="263" type="curve" smooth="yes"/>
      <point x="69" y="244"/>
      <point x="30" y="214"/>
      <point x="30" y="139" type="curve" smooth="yes"/>
      <point x="30" y="42"/>
      <point x="98" y="-15"/>
      <point x="186" y="-15" type="curve" smooth="yes"/>
      <point x="251" y="-15"/>
      <point x="306" y="13"/>
      <point x="331" y="60" type="curve"/>
      <point x="349" y="10"/>
      <point x="392" y="-12"/>
      <point x="455" y="-12" type="curve" smooth="yes"/>
      <point x="482" y="-12"/>
      <point x="509" y="-7"/>
      <point x="527" y="0" type="curve"/>
      <point x="527" y="119" type="line"/>
      <point x="512" y="119" type="line" smooth="yes"/>
      <point x="477" y="119"/>
      <point x="470" y="132"/>
      <point x="470" y="169" type="curve" smooth="yes"/>
      <point x="470" y="332" type="line" smooth="yes"/>
      <point x="470" y="452"/>
      <point x="391" y="510"/>
      <point x="256" y="510" type="curve" smooth="yes"/>
      <point x="134" y="510"/>
      <point x="51" y="452"/>
      <point x="51" y="346" type="curve" smooth="yes"/>
      <point x="51" y="335"/>
      <point x="52" y="327"/>
      <point x="54" y="322" type="curve"/>
      <point x="218" y="322" type="line"/>
      <point x="218" y="335" type="line" smooth="yes"/>
      <point x="218" y="360"/>
      <point x="231" y="371"/>
      <point x="256" y="371" type="curve" smooth="yes"/>
      <point x="279" y="371"/>
      <point x="290" y="360"/>
    </contour>
  </outline>
</glyph>
<glyph name="b" format="1">
  <advance width="527"/>
  <unicode hex="0062"/>
  <outline>
    <contour>
      <point x="40" y="21" type="line"/>
      <point x="107" y="-3"/>
      <point x="169" y="-15"/>
      <point x="257" y="-15" type="curve" smooth="yes"/>
      <point x="385" y="-15"/>
      <point x="486" y="51"/>
      <point x="494" y="172" type="curve" smooth="yes"/>
      <point x="499" y="232"/>
      <point x="499" y="284"/>
      <point x="494" y="345" type="curve" smooth="yes"/>
      <point x="488" y="442"/>
      <point x="442" y="510"/>
      <point x="340" y="510" type="curve" smooth="yes"/>
      <point x="286" y="510"/>
      <point x="245" y="487"/>
      <point x="220" y="453" type="curve"/>
      <point x="220" y="750" type="line"/>
      <point x="40" y="710" type="line"/>
    </contour>
    <contour>
      <point x="220" y="309" type="line"/>
      <point x="220" y="348"/>
      <point x="237" y="371"/>
      <point x="268" y="371" type="curve" smooth="yes"/>
      <point x="295" y="371"/>
      <point x="311" y="358"/>
      <point x="314" y="315" type="curve" smooth="yes"/>
      <point x="317" y="269"/>
      <point x="317" y="218"/>
      <point x="314" y="178" type="curve" smooth="yes"/>
      <point x="311" y="137"/>
      <point x="290" y="123"/>
      <point x="261" y="123" type="curve" smooth="yes"/>
      <point x="246" y="123"/>
      <point x="231" y="126"/>
      <point x="220" y="132" type="curve"/>
    </contour>
  </outline>
</glyph>
<glyph name="c" format="1">
  <advance width="485"/>
  <unicode hex="0063"/>
  <outline>
    <contour>
      <point x="256" y="-15" type="curve" smooth="yes"/>
      <point x="388" y="-15"/>
      <point x="465" y="56"/>
      <point x="465" y="151" type="curve" smooth="yes"/>
      <point x="465" y="162"/>
      <point x="463" y="168"/>
      <point x="461" y="174" type="curve"/>
      <point x="296" y="174" type="line"/>
      <point x="296" y="167" type="line" smooth="yes"/>
      <point x="296" y="140"/>
      <point x="283" y="123"/>
      <point x="256" y="123" type="curve" smooth="yes"/>
      <point x="228" y="123"/>
      <point x="214" y="142"/>
      <point x="212" y="185" type="curve" smooth="yes"/>
      <point x="210" y="230"/>
      <point x="210" y="270"/>
      <point x="212" y="311" type="curve" smooth="yes"/>
      <point x="214" y="354"/>
      <point x="229" y="370"/>
      <point x="255" y="370" type="curve" smooth="yes"/>
      <point x="283" y="370"/>
      <point x="296" y="357"/>
      <point x="296" y="326" type="curve" smooth="yes"/>
      <point x="296" y="316" type="line"/>
      <point x="461" y="316" type="line"/>
      <point x="463" y="323"/>
      <point x="465" y="332"/>
      <point x="465" y="343" type="curve" smooth="yes"/>
      <point x="465" y="451"/>
      <point x="388" y="510"/>
      <point x="255" y="510" type="curve" smooth="yes"/>
      <point x="114" y="510"/>
      <point x="43" y="447"/>
      <point x="32" y="318" type="curve" smooth="yes"/>
      <point x="29" y="282"/>
      <point x="29" y="228"/>
      <point x="32" y="185" type="curve" smooth="yes"/>
      <point x="42" y="52"/>
      <point x="113" y="-15"/>
    </contour>
  </outline>
</glyph>
<glyph name="d" format="1">
  <advance width="555"/>
  <unicode hex="0064"/>
  <outline>
    <contour>
      <point x="540" y="119" type="line"/>
      <point x="525" y="119" type="line" smooth="yes"/>
      <point x="496" y="119"/>
      <point x="484" y="129"/>
      <point x="484" y="169" type="curve" smooth="yes"/>
      <point x="484" y="750" type="line"/>
      <point x="304" y="710" type="line"/>
      <point x="304" y="477" type="line"/>
      <point x="285" y="496"/>
      <point x="256" y="510"/>
      <point x="211" y="510" type="curve" smooth="yes"/>
      <point x="109" y="510"/>
      <point x="40" y="447"/>
      <point x="32" y="314" type="curve" smooth="yes"/>
      <point x="29" y="262"/>
      <point x="29" y="212"/>
      <point x="32" y="162" type="curve" smooth="yes"/>
      <point x="39" y="45"/>
      <point x="110" y="-15"/>
      <point x="202" y="-15" type="curve" smooth="yes"/>
      <point x="267" y="-15"/>
      <point x="310" y="10"/>
      <point x="336" y="60" type="curve"/>
      <point x="364" y="8"/>
      <point x="416" y="-12"/>
      <point x="469" y="-12" type="curve" smooth="yes"/>
      <point x="495" y="-12"/>
      <point x="520" y="-7"/>
      <point x="540" y="0" type="curve"/>
    </contour>
    <contour>
      <point x="304" y="177" type="line"/>
      <point x="304" y="138"/>
      <point x="285" y="123"/>
      <point x="256" y="123" type="curve" smooth="yes"/>
      <point x="229" y="123"/>
      <point x="214" y="139"/>
      <point x="212" y="169" type="curve" smooth="yes"/>
      <point x="210" y="220"/>
      <point x="210" y="276"/>
      <point x="212" y="326" type="curve" smooth="yes"/>
      <point x="214" y="356"/>
      <point x="228" y="371"/>
      <point x="256" y="371" type="curve" smooth="yes"/>
      <point x="286" y="371"/>
      <point x="304" y="353"/>
      <point x="304" y="316" type="curve" smooth="yes"/>
    </contour>
  </outline>
</glyph>
<glyph name="e" format="1">
  <advance width="496"/>
  <unicode hex="0065"/>
  <outline>
    <contour>
      <point x="131" y="279" type="curve"/>
      <point x="131" y="194" type="line"/>
      <point x="206" y="200"/>
      <point x="284" y="210"/>
      <point x="339" y="220" type="curve" smooth="yes"/>
      <point x="437" y="239"/>
      <point x="471" y="264"/>
      <point x="471" y="336" type="curve" smooth="yes"/>
      <point x="471" y="456"/>
      <point x="379" y="510"/>
      <point x="255" y="510" type="curve" smooth="yes"/>
      <point x="112" y="510"/>
      <point x="42" y="441"/>
      <point x="31" y="317" type="curve" smooth="yes"/>
      <point x="28" y="281"/>
      <point x="28" y="229"/>
      <point x="31" y="186" type="curve" smooth="yes"/>
      <point x="41" y="56"/>
      <point x="112" y="-15"/>
      <point x="256" y="-15" type="curve" smooth="yes"/>
      <point x="391" y="-15"/>
      <point x="464" y="56"/>
      <point x="464" y="151" type="curve" smooth="yes"/>
      <point x="464" y="159"/>
      <point x="463" y="168"/>
      <point x="461" y="173" type="curve"/>
      <point x="296" y="173" type="line"/>
      <point x="296" y="167" type="line" smooth="yes"/>
      <point x="296" y="138"/>
      <point x="282" y="124"/>
      <point x="256" y="123" type="curve" smooth="yes"/>
      <point x="226" y="122"/>
      <point x="215" y="143"/>
      <point x="211" y="187" type="curve" smooth="yes"/>
      <point x="208" y="220"/>
      <point x="208" y="268"/>
      <point x="211" y="308" type="curve" smooth="yes"/>
      <point x="214" y="353"/>
      <point x="223" y="371"/>
      <point x="255" y="371" type="curve" smooth="yes"/>
      <point x="282" y="371"/>
      <point x="291" y="358"/>
      <point x="291" y="327" type="curve" smooth="yes"/>
      <point x="291" y="304"/>
      <point x="284" y="297"/>
      <point x="258" y="292" type="curve" smooth="yes"/>
      <point x="221" y="287"/>
      <point x="174" y="282"/>
    </contour>
  </outline>
</glyph>
<glyph name="f" format="1">
  <advance width="346"/>
  <unicode hex="0066"/>
  <outline>
    <contour>
      <point x="280" y="610" type="curve" smooth="yes"/>
      <point x="306" y="610"/>
      <point x="317" y="598"/>
      <point x="317" y="569" type="curve" smooth="yes"/>
      <point x="317" y="558" type="line"/>
      <point x="482" y="558" type="line"/>
      <point x="484" y="565"/>
      <point x="485" y="574"/>
      <point x="485" y="586" type="curve" smooth="yes"/>
      <point x="485" y="692"/>
      <point x="409" y="750"/>
      <point x="280" y="750" type="curve" smooth="yes"/>
      <point x="140" y="750"/>
      <point x="60" y="687"/>
      <point x="60" y="558" type="curve" smooth="yes"/>
      <point x="60" y="490" type="line"/>
      <point x="0" y="490" type="line"/>
      <point x="0" y="370" type="line"/>
      <point x="60" y="370" type="line"/>
      <point x="60" y="0" type="line"/>
      <point x="240" y="0" type="line"/>
      <point x="240" y="370" type="line"/>
      <point x="344" y="370" type="line"/>
      <point x="344" y="490" type="line"/>
      <point x="240" y="490" type="line"/>
      <point x="240" y="550" type="line" smooth="yes"/>
      <point x="240" y="595"/>
      <point x="254" y="610"/>
    </contour>
  </outline>
</glyph>
<glyph name="g" format="1">
  <advance width="552"/>
  <unicode hex="0067"/>
  <outline>
    <contour>
      <point x="45" y="81" type="curve" smooth="yes"/>
      <point x="45" y="18"/>
      <point x="90" y="-13"/>
      <point x="168" y="-23" type="curve" smooth="yes"/>
      <point x="288" y="-38" type="line" smooth="yes"/>
      <point x="347" y="-45"/>
      <point x="368" y="-58"/>
      <point x="368" y="-83" type="curve" smooth="yes"/>
      <point x="368" y="-114"/>
      <point x="340" y="-130"/>
      <point x="285" y="-130" type="curve" smooth="yes"/>
      <point x="226" y="-130"/>
      <point x="201" y="-112"/>
      <point x="201" y="-86" type="curve" smooth="yes"/>
      <point x="201" y="-70"/>
      <point x="213" y="-62"/>
      <point x="237" y="-55" type="curve" smooth="yes"/>
      <point x="304" y="-38" type="line"/>
      <point x="281" y="-3" type="line" smooth="yes"/>
      <point x="128" y="-29" type="line" smooth="yes"/>
      <point x="42" y="-44"/>
      <point x="20" y="-68"/>
      <point x="20" y="-116" type="curve" smooth="yes"/>
      <point x="20" y="-207"/>
      <point x="108" y="-264"/>
      <point x="284" y="-264" type="curve" smooth="yes"/>
      <point x="453" y="-264"/>
      <point x="547" y="-190"/>
      <point x="547" y="-69" type="curve" smooth="yes"/>
      <point x="547" y="31"/>
      <point x="489" y="77"/>
      <point x="374" y="91" type="curve" smooth="yes"/>
      <point x="230" y="109" type="line" smooth="yes"/>
      <point x="206" y="112"/>
      <point x="196" y="119"/>
      <point x="196" y="132" type="curve" smooth="yes"/>
      <point x="196" y="147"/>
      <point x="207" y="155"/>
      <point x="228" y="159" type="curve"/>
      <point x="166" y="200" type="line"/>
      <point x="100" y="182"/>
      <point x="45" y="144"/>
    </contour>
    <contour>
      <point x="277" y="150" type="curve" smooth="yes"/>
      <point x="384" y="150"/>
      <point x="485" y="196"/>
      <point x="485" y="298" type="curve" smooth="yes"/>
      <point x="485" y="376"/>
      <point x="438" y="400"/>
      <point x="368" y="424" type="curve"/>
      <point x="368" y="495" type="line"/>
      <point x="368" y="495"/>
      <point x="324" y="510"/>
      <point x="274" y="510" type="curve" smooth="yes"/>
      <point x="150" y="510"/>
      <point x="49" y="443"/>
      <point x="49" y="325" type="curve" smooth="yes"/>
      <point x="49" y="208"/>
      <point x="154" y="150"/>
    </contour>
    <contour>
      <point x="274" y="376" type="curve" smooth="yes"/>
      <point x="301" y="376"/>
      <point x="318" y="357"/>
      <point x="318" y="331" type="curve" smooth="yes"/>
      <point x="318" y="303"/>
      <point x="302" y="283"/>
      <point x="274" y="283" type="curve" smooth="yes"/>
      <point x="245" y="283"/>
      <point x="230" y="304"/>
      <point x="230" y="331" type="curve" smooth="yes"/>
      <point x="230" y="357"/>
      <point x="247" y="376"/>
    </contour>
    <contour>
      <point x="319" y="441" type="line"/>
      <point x="375" y="405"/>
      <point x="459" y="380"/>
      <point x="537" y="380" type="curve"/>
      <point x="537" y="494" type="line"/>
      <point x="450" y="495"/>
      <point x="360" y="509"/>
      <point x="275" y="510" type="curve"/>
    </contour>
  </outline>
</glyph>
<glyph name="h" format="1">
  <advance width="539"/>
  <unicode hex="0068"/>
  <outline>
    <contour>
      <point x="225" y="319" type="line"/>
      <point x="225" y="351"/>
      <point x="244" y="371"/>
      <point x="279" y="371" type="curve" smooth="yes"/>
      <point x="312" y="371"/>
      <point x="324" y="351"/>
      <point x="324" y="315" type="curve" smooth="yes"/>
      <point x="324" y="0" type="line"/>
      <point x="504" y="0" type="line"/>
      <point x="504" y="341" type="line" smooth="yes"/>
      <point x="504" y="463"/>
      <point x="443" y="510"/>
      <point x="356" y="510" type="curve" smooth="yes"/>
      <point x="287" y="510"/>
      <point x="239" y="478"/>
      <point x="208" y="429" type="curve"/>
      <point x="208" y="319" type="line"/>
    </contour>
    <contour>
      <point x="225" y="750" type="line"/>
      <point x="45" y="710" type="line"/>
      <point x="45" y="0" type="line"/>
      <point x="225" y="0" type="line"/>
    </contour>
  </outline>
</glyph>
<glyph name="i" format="1">
  <advance width="298"/>
  <unicode hex="0069"/>
  <outline>
    <contour>
      <point x="30" y="652" type="curve" smooth="yes"/>
      <point x="30" y="598"/>
      <point x="76" y="560"/>
      <point x="133" y="560" type="curve" smooth="yes"/>
      <point x="191" y="560"/>
      <point x="237" y="598"/>
      <point x="237" y="652" type="curve" smooth="yes"/>
      <point x="237" y="709"/>
      <point x="191" y="748"/>
      <point x="133" y="748" type="curve" smooth="yes"/>
      <point x="76" y="748"/>
      <point x="30" y="709"/>
    </contour>
    <contour>
      <point x="221" y="500" type="line"/>
      <point x="41" y="469" type="line"/>
      <point x="41" y="133" type="line" smooth="yes"/>
      <point x="41" y="19"/>
      <point x="118" y="-10"/>
      <point x="196" y="-10" type="curve" smooth="yes"/>
      <point x="226" y="-10"/>
      <point x="258" y="-5"/>
      <point x="283" y="0" type="curve"/>
      <point x="283" y="119" type="line"/>
      <point x="272" y="119" type="line" smooth="yes"/>
      <point x="241" y="119"/>
      <point x="221" y="129"/>
      <point x="221" y="165" type="curve" smooth="yes"/>
    </contour>
  </outline>
</glyph>
<glyph name="j" format="1">
  <advance width="305"/>
  <unicode hex="006A"/>
  <outline>
    <contour>
      <point x="56" y="-256" type="curve" smooth="yes"/>
      <point x="146" y="-256"/>
      <point x="246" y="-221"/>
      <point x="246" y="-86" type="curve" smooth="yes"/>
      <point x="246" y="500" type="line"/>
      <point x="66" y="469" type="line"/>
      <point x="66" y="-72" type="line" smooth="yes"/>
      <point x="66" y="-115"/>
      <point x="43" y="-131"/>
      <point x="-1" y="-131" type="curve" smooth="yes"/>
      <point x="-12" y="-131"/>
      <point x="-20" y="-129"/>
      <point x="-25" y="-128" type="curve"/>
      <point x="-25" y="-248" type="line"/>
      <point x="-3" y="-253"/>
      <point x="26" y="-256"/>
    </contour>
    <contour>
      <point x="53" y="652" type="curve" smooth="yes"/>
      <point x="53" y="598"/>
      <point x="99" y="560"/>
      <point x="156" y="560" type="curve" smooth="yes"/>
      <point x="213" y="560"/>
      <point x="260" y="598"/>
      <point x="260" y="652" type="curve" smooth="yes"/>
      <point x="260" y="709"/>
      <point x="213" y="748"/>
      <point x="156" y="748" type="curve" smooth="yes"/>
      <point x="99" y="748"/>
      <point x="53" y="709"/>
    </contour>
  </outline>
</glyph>
<glyph name="k" format="1">
  <advance width="542"/>
  <unicode hex="006B"/>
  <outline>
    <contour>
      <point x="225" y="750" type="line"/>
      <point x="45" y="710" type="line"/>
      <point x="45" y="0" type="line"/>
      <point x="225" y="0" type="line"/>
    </contour>
    <contour>
      <point x="393" y="495" type="line"/>
      <point x="226" y="277" type="line"/>
      <point x="226" y="261" type="line"/>
      <point x="334" y="86" type="line" smooth="yes"/>
      <point x="384" y="5"/>
      <point x="415" y="-15"/>
      <point x="481" y="-15" type="curve" smooth="yes"/>
      <point x="511" y="-15"/>
      <point x="538" y="-10"/>
      <point x="563" y="-1" type="curve"/>
      <point x="563" y="118" type="line"/>
      <point x="552" y="118" type="line" smooth="yes"/>
      <point x="528" y="118"/>
      <point x="513" y="126"/>
      <point x="494" y="154" type="curve" smooth="yes"/>
      <point x="415" y="275" type="line"/>
      <point x="579" y="495" type="line"/>
    </contour>
  </outline>
</glyph>
<glyph name="l" format="1">
  <advance width="297"/>
  <unicode hex="006C"/>
  <outline>
    <contour>
      <point x="282" y="119" type="line"/>
      <point x="268" y="119" type="line" smooth="yes"/>
      <point x="239" y="119"/>
      <point x="220" y="130"/>
      <point x="220" y="165" type="curve" smooth="yes"/>
      <point x="220" y="750" type="line"/>
      <point x="40" y="710" type="line"/>
      <point x="40" y="133" type="line" smooth="yes"/>
      <point x="40" y="19"/>
      <point x="117" y="-10"/>
      <point x="195" y="-10" type="curve" smooth="yes"/>
      <point x="225" y="-10"/>
      <point x="257" y="-5"/>
      <point x="282" y="0" type="curve"/>
    </contour>
  </outline>
</glyph>
<glyph name="m" format="1">
  <advance width="810"/>
  <unicode hex="006D"/>
  <outline>
    <contour>
      <point x="244" y="319" type="line"/>
      <point x="244" y="354"/>
      <point x="261" y="371"/>
      <point x="292" y="371" type="curve" smooth="yes"/>
      <point x="317" y="371"/>
      <point x="329" y="355"/>
      <point x="329" y="322" type="curve" smooth="yes"/>
      <point x="329" y="0" type="line"/>
      <point x="509" y="0" type="line"/>
      <point x="509" y="320" type="line" smooth="yes"/>
      <point x="509" y="353"/>
      <point x="527" y="371"/>
      <point x="556" y="371" type="curve" smooth="yes"/>
      <point x="584" y="371"/>
      <point x="595" y="353"/>
      <point x="595" y="322" type="curve" smooth="yes"/>
      <point x="595" y="0" type="line"/>
      <point x="775" y="0" type="line"/>
      <point x="775" y="335" type="line" smooth="yes"/>
      <point x="775" y="449"/>
      <point x="719" y="510"/>
      <point x="622" y="510" type="curve" smooth="yes"/>
      <point x="563" y="510"/>
      <point x="511" y="481"/>
      <point x="487" y="431" type="curve"/>
      <point x="466" y="482"/>
      <point x="419" y="510"/>
      <point x="350" y="510" type="curve" smooth="yes"/>
      <point x="293" y="510"/>
      <point x="237" y="485"/>
      <point x="214" y="432" type="curve"/>
      <point x="188" y="485"/>
      <point x="140" y="504"/>
      <point x="85" y="504" type="curve" smooth="yes"/>
      <point x="59" y="504"/>
      <point x="34" y="498"/>
      <point x="10" y="490" type="curve"/>
      <point x="10" y="375" type="line"/>
      <point x="22" y="375" type="line" smooth="yes"/>
      <point x="52" y="375"/>
      <point x="64" y="362"/>
      <point x="64" y="322" type="curve" smooth="yes"/>
      <point x="64" y="0" type="line"/>
      <point x="244" y="0" type="line"/>
    </contour>
  </outline>
</glyph>
<glyph name="n" format="1">
  <advance width="556"/>
  <unicode hex="006E"/>
  <outline>
    <contour>
      <point x="244" y="315" type="line"/>
      <point x="244" y="354"/>
      <point x="262" y="371"/>
      <point x="296" y="371" type="curve" smooth="yes"/>
      <point x="324" y="371"/>
      <point x="340" y="355"/>
      <point x="340" y="320" type="curve" smooth="yes"/>
      <point x="340" y="0" type="line"/>
      <point x="521" y="0" type="line"/>
      <point x="521" y="327" type="line" smooth="yes"/>
      <point x="521" y="433"/>
      <point x="473" y="510"/>
      <point x="365" y="510" type="curve" smooth="yes"/>
      <point x="300" y="510"/>
      <point x="240" y="485"/>
      <point x="215" y="430" type="curve"/>
      <point x="189" y="485"/>
      <point x="145" y="504"/>
      <point x="85" y="504" type="curve" smooth="yes"/>
      <point x="59" y="504"/>
      <point x="33" y="499"/>
      <point x="10" y="490" type="curve"/>
      <point x="10" y="375" type="line"/>
      <point x="23" y="375" type="line" smooth="yes"/>
      <point x="53" y="375"/>
      <point x="64" y="363"/>
      <point x="64" y="322" type="curve" smooth="yes"/>
      <point x="64" y="0" type="line"/>
      <point x="244" y="0" type="line"/>
    </contour>
  </outline>
</glyph>
<glyph name="o" format="1">
  <advance width="515"/>
  <unicode hex="006F"/>
  <outline>
    <contour>
      <point x="258" y="-15" type="curve" smooth="yes"/>
      <point x="388" y="-15"/>
      <point x="479" y="49"/>
      <point x="483" y="164" type="curve" smooth="yes"/>
      <point x="485" y="219"/>
      <point x="485" y="274"/>
      <point x="483" y="329" type="curve" smooth="yes"/>
      <point x="478" y="444"/>
      <point x="389" y="510"/>
      <point x="258" y="510" type="curve" smooth="yes"/>
      <point x="127" y="510"/>
      <point x="36" y="444"/>
      <point x="32" y="329" type="curve" smooth="yes"/>
      <point x="30" y="274"/>
      <point x="30" y="220"/>
      <point x="32" y="165" type="curve" smooth="yes"/>
      <point x="37" y="50"/>
      <point x="128" y="-15"/>
    </contour>
    <contour>
      <point x="258" y="123" type="curve" smooth="yes"/>
      <point x="229" y="123"/>
      <point x="214" y="142"/>
      <point x="212" y="173" type="curve" smooth="yes"/>
      <point x="210" y="223"/>
      <point x="210" y="274"/>
      <point x="212" y="324" type="curve" smooth="yes"/>
      <point x="213" y="355"/>
      <point x="229" y="371"/>
      <point x="258" y="371" type="curve" smooth="yes"/>
      <point x="286" y="371"/>
      <point x="301" y="355"/>
      <point x="303" y="324" type="curve" smooth="yes"/>
      <point x="305" y="274"/>
      <point x="305" y="223"/>
      <point x="303" y="173" type="curve" smooth="yes"/>
      <point x="301" y="142"/>
      <point x="286" y="123"/>
    </contour>
  </outline>
</glyph>
<glyph name="p" format="1">
  <advance width="550"/>
  <unicode hex="0070"/>
  <outline>
    <contour>
      <point x="221" y="425" type="curve"/>
      <point x="194" y="486"/>
      <point x="140" y="504"/>
      <point x="86" y="504" type="curve" smooth="yes"/>
      <point x="58" y="504"/>
      <point x="31" y="499"/>
      <point x="10" y="494" type="curve"/>
      <point x="10" y="375" type="line"/>
      <point x="23" y="375" type="line" smooth="yes"/>
      <point x="50" y="375"/>
      <point x="64" y="357"/>
      <point x="64" y="322" type="curve" smooth="yes"/>
      <point x="64" y="-249" type="line"/>
      <point x="244" y="-249" type="line"/>
      <point x="244" y="-1" type="line"/>
      <point x="260" y="-10"/>
      <point x="279" y="-15"/>
      <point x="304" y="-15" type="curve" smooth="yes"/>
      <point x="438" y="-15"/>
      <point x="510" y="51"/>
      <point x="518" y="172" type="curve" smooth="yes"/>
      <point x="522" y="231"/>
      <point x="522" y="284"/>
      <point x="518" y="345" type="curve" smooth="yes"/>
      <point x="512" y="442"/>
      <point x="466" y="510"/>
      <point x="364" y="510" type="curve" smooth="yes"/>
      <point x="296" y="510"/>
      <point x="247" y="478"/>
    </contour>
    <contour>
      <point x="293" y="371" type="curve" smooth="yes"/>
      <point x="323" y="371"/>
      <point x="335" y="357"/>
      <point x="338" y="315" type="curve" smooth="yes"/>
      <point x="341" y="269"/>
      <point x="341" y="218"/>
      <point x="338" y="177" type="curve" smooth="yes"/>
      <point x="335" y="137"/>
      <point x="319" y="123"/>
      <point x="290" y="123" type="curve" smooth="yes"/>
      <point x="262" y="123"/>
      <point x="244" y="141"/>
      <point x="244" y="176" type="curve" smooth="yes"/>
      <point x="244" y="312" type="line" smooth="yes"/>
      <point x="244" y="349"/>
      <point x="262" y="371"/>
    </contour>
  </outline>
</glyph>
<glyph name="q" format="1">
  <advance width="524"/>
  <unicode hex="0071"/>
  <outline>
    <contour>
      <point x="484" y="474" type="line"/>
      <point x="417" y="497"/>
      <point x="354" y="510"/>
      <point x="266" y="510" type="curve" smooth="yes"/>
      <point x="133" y="510"/>
      <point x="38" y="442"/>
      <point x="29" y="318" type="curve" smooth="yes"/>
      <point x="25" y="259"/>
      <point x="25" y="206"/>
      <point x="29" y="145" type="curve" smooth="yes"/>
      <point x="35" y="42"/>
      <point x="88" y="-15"/>
      <point x="189" y="-15" type="curve" smooth="yes"/>
      <point x="240" y="-15"/>
      <point x="279" y="8"/>
      <point x="303" y="42" type="curve"/>
      <point x="303" y="-249" type="line"/>
      <point x="484" y="-249" type="line"/>
    </contour>
    <contour>
      <point x="303" y="186" type="line"/>
      <point x="303" y="147"/>
      <point x="287" y="123"/>
      <point x="256" y="123" type="curve" smooth="yes"/>
      <point x="229" y="123"/>
      <point x="212" y="135"/>
      <point x="209" y="175" type="curve" smooth="yes"/>
      <point x="206" y="221"/>
      <point x="206" y="272"/>
      <point x="209" y="312" type="curve" smooth="yes"/>
      <point x="213" y="356"/>
      <point x="233" y="371"/>
      <point x="263" y="371" type="curve" smooth="yes"/>
      <point x="278" y="371"/>
      <point x="292" y="368"/>
      <point x="303" y="363" type="curve"/>
    </contour>
  </outline>
</glyph>
<glyph name="r" format="1">
  <advance width="489"/>
  <unicode hex="0072"/>
  <outline>
    <contour>
      <point x="349" y="510" type="curve" smooth="yes"/>
      <point x="261" y="510"/>
      <point x="207" y="460"/>
      <point x="197" y="368" type="curve"/>
      <point x="197" y="273" type="line"/>
      <point x="244" y="273" type="line"/>
      <point x="244" y="350"/>
      <point x="261" y="370"/>
      <point x="289" y="370" type="curve" smooth="yes"/>
      <point x="310" y="370"/>
      <point x="320" y="356"/>
      <point x="320" y="325" type="curve" smooth="yes"/>
      <point x="320" y="314" type="line"/>
      <point x="485" y="314" type="line"/>
      <point x="487" y="322"/>
      <point x="489" y="335"/>
      <point x="489" y="351" type="curve" smooth="yes"/>
      <point x="489" y="450"/>
      <point x="447" y="510"/>
    </contour>
    <contour>
      <point x="223" y="326" type="line"/>
      <point x="222" y="467"/>
      <point x="173" y="504"/>
      <point x="85" y="504" type="curve" smooth="yes"/>
      <point x="59" y="504"/>
      <point x="33" y="499"/>
      <point x="10" y="490" type="curve"/>
      <point x="10" y="375" type="line"/>
      <point x="21" y="375" type="line" smooth="yes"/>
      <point x="50" y="375"/>
      <point x="64" y="362"/>
      <point x="64" y="322" type="curve" smooth="yes"/>
      <point x="64" y="0" type="line"/>
      <point x="244" y="0" type="line"/>
      <point x="244" y="326" type="line"/>
    </contour>
  </outline>
</glyph>
<glyph name="s" format="1">
  <advance width="471"/>
  <unicode hex="0073"/>
  <outline>
    <contour>
      <point x="441" y="322" type="line"/>
      <point x="442" y="331"/>
      <point x="444" y="340"/>
      <point x="444" y="349" type="curve" smooth="yes"/>
      <point x="444" y="451"/>
      <point x="368" y="510"/>
      <point x="236" y="510" type="curve" smooth="yes"/>
      <point x="102" y="510"/>
      <point x="22" y="447"/>
      <point x="22" y="346" type="curve" smooth="yes"/>
      <point x="22" y="254"/>
      <point x="83" y="218"/>
      <point x="197" y="194" type="curve" smooth="yes"/>
      <point x="257" y="181"/>
      <point x="271" y="173"/>
      <point x="271" y="151" type="curve" smooth="yes"/>
      <point x="271" y="133"/>
      <point x="255" y="123"/>
      <point x="230" y="123" type="curve" smooth="yes"/>
      <point x="201" y="123"/>
      <point x="185" y="135"/>
      <point x="185" y="160" type="curve" smooth="yes"/>
      <point x="185" y="169" type="line"/>
      <point x="21" y="169" type="line"/>
      <point x="20" y="165"/>
      <point x="19" y="158"/>
      <point x="19" y="149" type="curve" smooth="yes"/>
      <point x="19" y="45"/>
      <point x="100" y="-15"/>
      <point x="230" y="-15" type="curve" smooth="yes"/>
      <point x="377" y="-15"/>
      <point x="451" y="51"/>
      <point x="451" y="152" type="curve" smooth="yes"/>
      <point x="451" y="241"/>
      <point x="394" y="264"/>
      <point x="281" y="294" type="curve" smooth="yes"/>
      <point x="218" y="309"/>
      <point x="203" y="321"/>
      <point x="203" y="341" type="curve" smooth="yes"/>
      <point x="203" y="362"/>
      <point x="216" y="371"/>
      <point x="238" y="371" type="curve" smooth="yes"/>
      <point x="264" y="371"/>
      <point x="276" y="358"/>
      <point x="276" y="330" type="curve" smooth="yes"/>
      <point x="276" y="322" type="line"/>
    </contour>
  </outline>
</glyph>
<glyph name="t" format="1">
  <advance width="390"/>
  <unicode hex="0074"/>
  <outline>
    <contour>
      <point x="385" y="1" type="curve"/>
      <point x="380" y="120" type="line"/>
      <point x="363" y="118"/>
      <point x="347" y="117"/>
      <point x="330" y="117" type="curve" smooth="yes"/>
      <point x="277" y="117"/>
      <point x="248" y="137"/>
      <point x="248" y="196" type="curve" smooth="yes"/>
      <point x="248" y="375" type="line"/>
      <point x="375" y="375" type="line"/>
      <point x="375" y="494" type="line"/>
      <point x="248" y="494" type="line"/>
      <point x="248" y="634" type="line"/>
      <point x="68" y="604" type="line"/>
      <point x="68" y="494" type="line"/>
      <point x="-5" y="494" type="line"/>
      <point x="-5" y="375" type="line"/>
      <point x="68" y="375" type="line"/>
      <point x="68" y="168" type="line" smooth="yes"/>
      <point x="68" y="28"/>
      <point x="169" y="-15"/>
      <point x="273" y="-15" type="curve" smooth="yes"/>
      <point x="311" y="-15"/>
      <point x="350" y="-11"/>
    </contour>
  </outline>
</glyph>
<glyph name="u" format="1">
  <advance width="558"/>
  <unicode hex="0075"/>
  <outline>
    <contour>
      <point x="340" y="65" type="curve"/>
      <point x="363" y="11"/>
      <point x="411" y="-10"/>
      <point x="465" y="-10" type="curve" smooth="yes"/>
      <point x="493" y="-10"/>
      <point x="519" y="-8"/>
      <point x="543" y="0" type="curve"/>
      <point x="543" y="120" type="line"/>
      <point x="534" y="120" type="line" smooth="yes"/>
      <point x="498" y="120"/>
      <point x="487" y="131"/>
      <point x="487" y="169" type="curve" smooth="yes"/>
      <point x="487" y="500" type="line"/>
      <point x="306" y="471" type="line"/>
      <point x="306" y="175" type="line" smooth="yes"/>
      <point x="306" y="144"/>
      <point x="290" y="123"/>
      <point x="260" y="123" type="curve" smooth="yes"/>
      <point x="229" y="123"/>
      <point x="215" y="140"/>
      <point x="215" y="180" type="curve" smooth="yes"/>
      <point x="215" y="500" type="line"/>
      <point x="35" y="470" type="line"/>
      <point x="35" y="150" type="line" smooth="yes"/>
      <point x="35" y="38"/>
      <point x="100" y="-15"/>
      <point x="189" y="-15" type="curve" smooth="yes"/>
      <point x="259" y="-15"/>
      <point x="309" y="11"/>
    </contour>
  </outline>
</glyph>
<glyph name="v" format="1">
  <advance width="487"/>
  <unicode hex="0076"/>
  <outline>
    <contour>
      <point x="281" y="0" type="line"/>
      <point x="185" y="495" type="line"/>
      <point x="-10" y="495" type="line"/>
      <point x="139" y="0" type="line"/>
    </contour>
    <contour>
      <point x="212" y="0" type="line"/>
      <point x="353" y="0" type="line"/>
      <point x="497" y="495" type="line"/>
      <point x="322" y="495" type="line"/>
    </contour>
  </outline>
</glyph>
<glyph name="w" format="1">
  <advance width="780"/>
  <unicode hex="0077"/>
  <outline>
    <contour>
      <point x="264" y="0" type="line"/>
      <point x="185" y="495" type="line"/>
      <point x="-10" y="495" type="line"/>
      <point x="123" y="0" type="line"/>
    </contour>
    <contour>
      <point x="181" y="0" type="line"/>
      <point x="321" y="0" type="line"/>
      <point x="449" y="495" type="line"/>
      <point x="294" y="495" type="line"/>
    </contour>
    <contour>
      <point x="498" y="0" type="line"/>
      <point x="638" y="0" type="line"/>
      <point x="766" y="495" type="line"/>
      <point x="591" y="495" type="line"/>
    </contour>
    <contour>
      <point x="580" y="0" type="line"/>
      <point x="482" y="495" type="line"/>
      <point x="307" y="495" type="line"/>
      <point x="439" y="0" type="line"/>
    </contour>
  </outline>
</glyph>
<glyph name="x" format="1">
  <advance width="525"/>
  <unicode hex="0078"/>
  <outline>
    <contour>
      <point x="330" y="0" type="line"/>
      <point x="535" y="0" type="line"/>
      <point x="354" y="279" type="line"/>
      <point x="293" y="304" type="line"/>
      <point x="198" y="495" type="line"/>
      <point x="-8" y="495" type="line"/>
      <point x="170" y="228" type="line"/>
      <point x="213" y="199" type="line"/>
    </contour>
    <contour>
      <point x="179" y="285" type="line"/>
      <point x="-10" y="0" type="line"/>
      <point x="175" y="0" type="line"/>
      <point x="275" y="166" type="line"/>
    </contour>
    <contour>
      <point x="356" y="220" type="line"/>
      <point x="530" y="495" type="line"/>
      <point x="342" y="495" type="line"/>
      <point x="250" y="323" type="line"/>
    </contour>
  </outline>
</glyph>
<glyph name="y" format="1">
  <advance width="499"/>
  <unicode hex="0079"/>
  <outline>
    <contour>
      <point x="197" y="107" type="line"/>
      <point x="75" y="-249" type="line"/>
      <point x="255" y="-249" type="line"/>
      <point x="504" y="495" type="line"/>
      <point x="324" y="495" type="line"/>
      <point x="244" y="140" type="line"/>
    </contour>
    <contour>
      <point x="291" y="83" type="line"/>
      <point x="185" y="495" type="line"/>
      <point x="-5" y="495" type="line"/>
      <point x="172" y="-24" type="line"/>
    </contour>
  </outline>
</glyph>
<glyph name="z" format="1">
  <advance width="462"/>
  <unicode hex="007A"/>
  <outline>
    <contour>
      <point x="447" y="129" type="line"/>
      <point x="243" y="129" type="line"/>
      <point x="434" y="375" type="line"/>
      <point x="427" y="495" type="line"/>
      <point x="25" y="495" type="line"/>
      <point x="25" y="365" type="line"/>
      <point x="223" y="365" type="line"/>
      <point x="25" y="109" type="line"/>
      <point x="30" y="0" type="line"/>
      <point x="447" y="0" type="line"/>
    </contour>
  </outline>
</glyph>
<glyph name="braceleft" format="1">
  <advance width="359"/>
  <unicode hex="007B"/>
  <outline>
    <contour>
      <point x="76" y="415" type="line"/>
      <point x="76" y="366"/>
      <point x="53" y="344"/>
      <point x="10" y="334" type="curve"/>
      <point x="10" y="269" type="line"/>
      <point x="53" y="259"/>
      <point x="76" y="237"/>
      <point x="76" y="188" type="curve" smooth="yes"/>
      <point x="76" y="8" type="line" smooth="yes"/>
      <point x="76" y="-172"/>
      <point x="268" y="-156"/>
      <point x="324" y="-109" type="curve"/>
      <point x="334" y="-48" type="line"/>
      <point x="280" y="-48"/>
      <point x="246" y="-40"/>
      <point x="246" y="35" type="curve" smooth="yes"/>
      <point x="246" y="166" type="line" smooth="yes"/>
      <point x="246" y="238"/>
      <point x="191" y="299"/>
      <point x="122" y="300" type="curve"/>
      <point x="191" y="300"/>
      <point x="246" y="360"/>
      <point x="246" y="432" type="curve" smooth="yes"/>
      <point x="246" y="565" type="line" smooth="yes"/>
      <point x="246" y="640"/>
      <point x="280" y="648"/>
      <point x="334" y="648" type="curve"/>
      <point x="324" y="709" type="line"/>
      <point x="268" y="753"/>
      <point x="76" y="772"/>
      <point x="76" y="592" type="curve" smooth="yes"/>
    </contour>
  </outline>
</glyph>
<glyph name="cent" format="1">
  <advance width="468"/>
  <unicode hex="00A2"/>
  <outline>
    <contour>
      <point x="316" y="443" type="line"/>
      <point x="316" y="605" type="line"/>
      <point x="176" y="569" type="line"/>
      <point x="176" y="434" type="line"/>
    </contour>
    <contour>
      <point x="176" y="68" type="line"/>
      <point x="176" y="-115" type="line"/>
      <point x="316" y="-79" type="line"/>
      <point x="316" y="66" type="line"/>
    </contour>
    <component base="c"/>
  </outline>
</glyph>
<glyph name="sterling" format="1">
  <advance width="593"/>
  <unicode hex="00A3"/>
  <outline>
    <contour>
      <point x="45" y="0" type="line"/>
      <point x="90" y="0"/>
      <point x="135" y="31"/>
      <point x="181" y="68" type="curve" smooth="yes"/>
      <point x="233" y="110"/>
      <point x="302" y="154"/>
      <point x="302" y="243" type="curve" smooth="yes"/>
      <point x="302" y="320"/>
      <point x="297" y="438"/>
      <point x="297" y="490" type="curve" smooth="yes"/>
      <point x="297" y="531"/>
      <point x="308" y="560"/>
      <point x="340" y="560" type="curve" smooth="yes"/>
      <point x="370" y="560"/>
      <point x="386" y="533"/>
      <point x="382" y="485" type="curve"/>
      <point x="567" y="490" type="line"/>
      <point x="578" y="632"/>
      <point x="487" y="725"/>
      <point x="350" y="725" type="curve" smooth="yes"/>
      <point x="208" y="725"/>
      <point x="107" y="635"/>
      <point x="107" y="480" type="curve" smooth="yes"/>
      <point x="107" y="407"/>
      <point x="112" y="263"/>
      <point x="112" y="207" type="curve" smooth="yes"/>
      <point x="112" y="119"/>
      <point x="29" y="105"/>
      <point x="29" y="105" type="curve"/>
    </contour>
    <contour>
      <point x="555" y="0" type="line"/>
      <point x="573" y="160" type="line"/>
      <point x="374" y="160" type="line" smooth="yes"/>
      <point x="243" y="160"/>
      <point x="58" y="31"/>
      <point x="58" y="31" type="curve" smooth="yes"/>
      <point x="58" y="29"/>
      <point x="45" y="-1"/>
      <point x="46" y="0" type="curve"/>
    </contour>
    <contour>
      <point x="391" y="265" type="line"/>
      <point x="409" y="390" type="line"/>
      <point x="43" y="390" type="line"/>
      <point x="25" y="265" type="line"/>
    </contour>
  </outline>
</glyph>
<glyph name="brokenbar" format="1">
  <advance width="240"/>
  <unicode hex="00A6"/>
  <outline>
    <contour>
      <point x="190" y="345" type="line"/>
      <point x="190" y="750" type="line"/>
      <point x="50" y="750" type="line"/>
      <point x="50" y="345" type="line"/>
    </contour>
    <contour>
      <point x="190" y="-250" type="line"/>
      <point x="190" y="165" type="line"/>
      <point x="50" y="165" type="line"/>
      <point x="50" y="-250" type="line"/>
    </contour>
  </outline>
</glyph>
<glyph name="section" format="1">
  <advance width="501"/>
  <unicode hex="00A7"/>
  <outline>
    <contour>
      <point x="409" y="225" type="curve"/>
      <point x="444" y="239"/>
      <point x="471" y="270"/>
      <point x="471" y="322" type="curve" smooth="yes"/>
      <point x="471" y="405"/>
      <point x="401" y="447"/>
      <point x="336" y="476" type="curve" smooth="yes"/>
      <point x="277" y="502"/>
      <point x="232" y="523"/>
      <point x="232" y="559" type="curve" smooth="yes"/>
      <point x="232" y="578"/>
      <point x="244" y="590"/>
      <point x="259" y="590" type="curve" smooth="yes"/>
      <point x="277" y="590"/>
      <point x="289" y="579"/>
      <point x="289" y="548" type="curve"/>
      <point x="442" y="553" type="line"/>
      <point x="443" y="667"/>
      <point x="368" y="725"/>
      <point x="256" y="725" type="curve" smooth="yes"/>
      <point x="141" y="725"/>
      <point x="57" y="662"/>
      <point x="57" y="567" type="curve" smooth="yes"/>
      <point x="57" y="473"/>
      <point x="113" y="430"/>
      <point x="177" y="398" type="curve" smooth="yes"/>
      <point x="242" y="365"/>
      <point x="294" y="354"/>
      <point x="294" y="315" type="curve" smooth="yes"/>
      <point x="294" y="298"/>
      <point x="286" y="287"/>
      <point x="281" y="283" type="curve"/>
      <point x="381" y="247"/>
      <point x="395" y="240"/>
    </contour>
    <contour>
      <point x="102" y="382" type="curve"/>
      <point x="68" y="363"/>
      <point x="37" y="327"/>
      <point x="37" y="279" type="curve" smooth="yes"/>
      <point x="37" y="197"/>
      <point x="106" y="158"/>
      <point x="176" y="130" type="curve" smooth="yes"/>
      <point x="228" y="109"/>
      <point x="274" y="93"/>
      <point x="274" y="66" type="curve" smooth="yes"/>
      <point x="274" y="49"/>
      <point x="261" y="33"/>
      <point x="239" y="33" type="curve" smooth="yes"/>
      <point x="217" y="33"/>
      <point x="201" y="48"/>
      <point x="200" y="73" type="curve"/>
      <point x="35" y="68" type="line"/>
      <point x="40" y="-41"/>
      <point x="129" y="-102"/>
      <point x="244" y="-102" type="curve" smooth="yes"/>
      <point x="360" y="-102"/>
      <point x="454" y="-39"/>
      <point x="454" y="53" type="curve" smooth="yes"/>
      <point x="454" y="154"/>
      <point x="381" y="191"/>
      <point x="316" y="224" type="curve" smooth="yes"/>
      <point x="260" y="253"/>
      <point x="208" y="263"/>
      <point x="208" y="297" type="curve" smooth="yes"/>
      <point x="208" y="319"/>
      <point x="223" y="328"/>
      <point x="223" y="328" type="curve"/>
      <point x="139" y="358"/>
      <point x="111" y="368"/>
    </contour>
  </outline>
</glyph>
<glyph name="dieresis" format="1">
  <advance width="464"/>
  <unicode hex="00A8"/>
  <outline>
    <contour>
      <point x="58" y="641" type="curve" smooth="yes"/>
      <point x="58" y="600"/>
      <point x="92" y="566"/>
      <point x="134" y="566" type="curve" smooth="yes"/>
      <point x="175" y="566"/>
      <point x="209" y="600"/>
      <point x="209" y="641" type="curve" smooth="yes"/>
      <point x="209" y="683"/>
      <point x="175" y="717"/>
      <point x="134" y="717" type="curve" smooth="yes"/>
      <point x="92" y="717"/>
      <point x="58" y="683"/>
    </contour>
    <contour>
      <point x="255" y="641" type="curve" smooth="yes"/>
      <point x="255" y="600"/>
      <point x="289" y="566"/>
      <point x="331" y="566" type="curve" smooth="yes"/>
      <point x="372" y="566"/>
      <point x="406" y="600"/>
      <point x="406" y="641" type="curve" smooth="yes"/>
      <point x="406" y="683"/>
      <point x="372" y="717"/>
      <point x="331" y="717" type="curve" smooth="yes"/>
      <point x="289" y="717"/>
      <point x="255" y="683"/>
    </contour>
  </outline>
</glyph>
<glyph name="registered" format="1">
  <advance width="795"/>
  <unicode hex="00AE"/>
  <outline>
    <contour>
      <point x="25" y="327" type="curve" smooth="yes"/>
      <point x="25" y="121"/>
      <point x="191" y="-45"/>
      <point x="397" y="-45" type="curve" smooth="yes"/>
      <point x="604" y="-45"/>
      <point x="770" y="121"/>
      <point x="770" y="327" type="curve" smooth="yes"/>
      <point x="770" y="534"/>
      <point x="604" y="700"/>
      <point x="397" y="700" type="curve" smooth="yes"/>
      <point x="191" y="700"/>
      <point x="25" y="534"/>
    </contour>
    <contour>
      <point x="145" y="328" type="curve" smooth="yes"/>
      <point x="145" y="483"/>
      <point x="249" y="596"/>
      <point x="399" y="596" type="curve" smooth="yes"/>
      <point x="547" y="596"/>
      <point x="650" y="483"/>
      <point x="650" y="328" type="curve" smooth="yes"/>
      <point x="650" y="173"/>
      <point x="547" y="60"/>
      <point x="399" y="60" type="curve" smooth="yes"/>
      <point x="249" y="60"/>
      <point x="145" y="173"/>
    </contour>
    <contour>
      <point x="375" y="416" type="line"/>
      <point x="396" y="416" type="line" smooth="yes"/>
      <point x="424" y="416"/>
      <point x="436" y="406"/>
      <point x="436" y="387" type="curve" smooth="yes"/>
      <point x="436" y="368"/>
      <point x="425" y="353"/>
      <point x="397" y="353" type="curve" smooth="yes"/>
      <point x="375" y="353" type="line"/>
    </contour>
    <contour>
      <point x="435" y="150" type="line"/>
      <point x="575" y="150" type="line"/>
      <point x="519" y="282" type="line" smooth="yes"/>
      <point x="512" y="298"/>
      <point x="499" y="306"/>
      <point x="499" y="306" type="curve"/>
      <point x="530" y="323"/>
      <point x="566" y="351"/>
      <point x="566" y="404" type="curve" smooth="yes"/>
      <point x="566" y="466"/>
      <point x="514" y="515"/>
      <point x="407" y="515" type="curve" smooth="yes"/>
      <point x="245" y="515" type="line"/>
      <point x="245" y="150" type="line"/>
      <point x="375" y="150" type="line"/>
      <point x="375" y="284" type="line"/>
      <point x="384" y="284" type="line"/>
    </contour>
  </outline>
</glyph>
<glyph name="twosuperior" format="1">
  <advance width="399"/>
  <unicode hex="00B2"/>
  <outline>
    <contour>
      <point x="46" y="390" type="line"/>
      <point x="374" y="390" type="line"/>
      <point x="374" y="495" type="line"/>
      <point x="209" y="495" type="line"/>
      <point x="228" y="505"/>
      <point x="272" y="525"/>
      <point x="303" y="553" type="curve" smooth="yes"/>
      <point x="338" y="584"/>
      <point x="360" y="612"/>
      <point x="360" y="661" type="curve" smooth="yes"/>
      <point x="360" y="744"/>
      <point x="299" y="795"/>
      <point x="205" y="795" type="curve" smooth="yes"/>
      <point x="100" y="795"/>
      <point x="32" y="735"/>
      <point x="37" y="645" type="curve"/>
      <point x="167" y="650" type="line"/>
      <point x="167" y="681"/>
      <point x="177" y="695"/>
      <point x="200" y="695" type="curve" smooth="yes"/>
      <point x="214" y="695"/>
      <point x="225" y="684"/>
      <point x="225" y="667" type="curve" smooth="yes"/>
      <point x="225" y="633"/>
      <point x="211" y="610"/>
      <point x="161" y="569" type="curve" smooth="yes"/>
      <point x="127" y="541"/>
      <point x="70" y="505"/>
      <point x="35" y="475" type="curve"/>
    </contour>
  </outline>
</glyph>
<glyph name="threesuperior" format="1">
  <advance width="384"/>
  <unicode hex="00B3"/>
  <outline>
    <contour>
      <point x="219" y="517" type="curve" smooth="yes"/>
      <point x="219" y="495"/>
      <point x="206" y="480"/>
      <point x="187" y="480" type="curve" smooth="yes"/>
      <point x="169" y="480"/>
      <point x="155" y="491"/>
      <point x="155" y="515" type="curve"/>
      <point x="25" y="510" type="line"/>
      <point x="32" y="420"/>
      <point x="98" y="380"/>
      <point x="185" y="380" type="curve" smooth="yes"/>
      <point x="274" y="380"/>
      <point x="354" y="432"/>
      <point x="354" y="518" type="curve" smooth="yes"/>
      <point x="354" y="574"/>
      <point x="318" y="618"/>
      <point x="258" y="620" type="curve"/>
      <point x="336" y="708" type="line"/>
      <point x="336" y="780" type="line"/>
      <point x="39" y="780" type="line"/>
      <point x="39" y="680" type="line"/>
      <point x="188" y="680" type="line"/>
      <point x="120" y="613" type="line"/>
      <point x="128" y="563" type="line"/>
      <point x="137" y="564"/>
      <point x="148" y="566"/>
      <point x="159" y="566" type="curve" smooth="yes"/>
      <point x="186" y="566"/>
      <point x="219" y="559"/>
    </contour>
  </outline>
</glyph>
<glyph name="Aring" format="1">
  <advance width="610"/>
  <unicode hex="00C5"/>
  <outline>
    <contour>
      <point x="367" y="282" type="line"/>
      <point x="240" y="282" type="line"/>
      <point x="305" y="561" type="line"/>
    </contour>
    <contour>
      <point x="430" y="0" type="line"/>
      <point x="630" y="0" type="line"/>
      <point x="438" y="710" type="line"/>
      <point x="416" y="710" type="line"/>
      <point x="405" y="685"/>
      <point x="349" y="670"/>
      <point x="304" y="670" type="curve"/>
      <point x="257" y="670"/>
      <point x="204" y="683"/>
      <point x="188" y="710" type="curve"/>
      <point x="158" y="710" type="line"/>
      <point x="168" y="692" type="line"/>
      <point x="-20" y="0" type="line"/>
      <point x="175" y="0" type="line"/>
      <point x="206" y="134" type="line"/>
      <point x="400" y="134" type="line"/>
    </contour>
    <component base="ring" xOffset="143" yOffset="170"/>
  </outline>
</glyph>
<glyph name="AE" format="1">
  <advance width="820.0"/>
  <unicode hex="00C6"/>
  <outline>
    <contour>
      <point x="377" y="0" type="line"/>
      <point x="780" y="0" type="line"/>
      <point x="780" y="160" type="line"/>
      <point x="562" y="160" type="line"/>
      <point x="562" y="282" type="line"/>
      <point x="758" y="282" type="line"/>
      <point x="758" y="438" type="line"/>
      <point x="562" y="438" type="line"/>
      <point x="562" y="550" type="line"/>
      <point x="780" y="550" type="line"/>
      <point x="780" y="710" type="line"/>
      <point x="238" y="710" type="line"/>
      <point x="-15" y="0" type="line"/>
      <point x="185" y="0" type="line"/>
      <point x="377" y="578" type="line"/>
    </contour>
    <contour>
      <point x="472" y="283" type="line"/>
      <point x="181" y="283" type="line"/>
      <point x="132" y="127" type="line"/>
      <point x="472" y="127" type="line"/>
    </contour>
  </outline>
</glyph>
<glyph name="multiply" format="1">
  <advance width="542"/>
  <unicode hex="00D7"/>
  <outline>
    <contour>
      <point x="422" y="490" type="line"/>
      <point x="276" y="346" type="line"/>
      <point x="136" y="489" type="line"/>
      <point x="28" y="376" type="line"/>
      <point x="168" y="240" type="line"/>
      <point x="25" y="99" type="line"/>
      <point x="123" y="0" type="line"/>
      <point x="266" y="145" type="line"/>
      <point x="408" y="0" type="line"/>
      <point x="516" y="113" type="line"/>
      <point x="375" y="250" type="line"/>
      <point x="517" y="391" type="line"/>
    </contour>
  </outline>
</glyph>
<glyph name="Oslash" format="1">
  <advance width="607"/>
  <unicode hex="00D8"/>
  <outline>
    <contour>
      <point x="587" y="725" type="line"/>
      <point x="482" y="725" type="line"/>
      <point x="416" y="637" type="line"/>
      <point x="394" y="592" type="line"/>
      <point x="142" y="143" type="line"/>
      <point x="120" y="145" type="line"/>
      <point x="10" y="-15" type="line"/>
      <point x="120" y="-15" type="line"/>
      <point x="208" y="103" type="line"/>
      <point x="220" y="129" type="line"/>
      <point x="475" y="570" type="line"/>
      <point x="496" y="582" type="line"/>
    </contour>
    <component base="O" xOffset="3"/>
  </outline>
</glyph>
<glyph name="Thorn" format="1">
  <advance width="587"/>
  <unicode hex="00DE"/>
  <outline>
    <contour>
      <point x="245" y="710" type="line"/>
      <point x="50" y="710" type="line"/>
      <point x="50" y="0" type="line"/>
      <point x="245" y="0" type="line"/>
      <point x="245" y="132" type="line"/>
      <point x="272" y="132" type="line" smooth="yes"/>
      <point x="467" y="132"/>
      <point x="582" y="185"/>
      <point x="582" y="367" type="curve" smooth="yes"/>
      <point x="582" y="548"/>
      <point x="469" y="607"/>
      <point x="271" y="607" type="curve" smooth="yes"/>
      <point x="245" y="607" type="line"/>
    </contour>
    <contour>
      <point x="245" y="448" type="line"/>
      <point x="272" y="448" type="line" smooth="yes"/>
      <point x="340" y="448"/>
      <point x="382" y="424"/>
      <point x="382" y="367" type="curve" smooth="yes"/>
      <point x="382" y="309"/>
      <point x="340" y="282"/>
      <point x="272" y="282" type="curve" smooth="yes"/>
      <point x="245" y="282" type="line"/>
    </contour>
  </outline>
</glyph>
<glyph name="germandbls" format="1">
  <advance width="566"/>
  <unicode hex="00DF"/>
  <outline>
    <contour>
      <point x="267" y="1" type="line"/>
      <point x="292" y="-3"/>
      <point x="315" y="-5"/>
      <point x="337" y="-5" type="curve" smooth="yes"/>
      <point x="456" y="-5"/>
      <point x="536" y="53"/>
      <point x="540" y="164" type="curve" smooth="yes"/>
      <point x="541" y="191"/>
      <point x="541" y="227"/>
      <point x="540" y="250" type="curve" smooth="yes"/>
      <point x="535" y="370"/>
      <point x="438" y="418"/>
      <point x="344" y="399" type="curve"/>
      <point x="344" y="399"/>
      <point x="405" y="430"/>
      <point x="457" y="465" type="curve" smooth="yes"/>
      <point x="502" y="496"/>
      <point x="520" y="510"/>
      <point x="520" y="568" type="curve" smooth="yes"/>
      <point x="520" y="689"/>
      <point x="417" y="750"/>
      <point x="299" y="750" type="curve" smooth="yes"/>
      <point x="170" y="750"/>
      <point x="45" y="676"/>
      <point x="45" y="528" type="curve" smooth="yes"/>
      <point x="45" y="0" type="line"/>
      <point x="225" y="0" type="line"/>
      <point x="225" y="541" type="line" smooth="yes"/>
      <point x="225" y="579"/>
      <point x="251" y="605"/>
      <point x="289" y="605" type="curve" smooth="yes"/>
      <point x="324" y="605"/>
      <point x="344" y="587"/>
      <point x="344" y="540" type="curve" smooth="yes"/>
      <point x="344" y="523"/>
      <point x="339" y="513"/>
      <point x="321" y="497" type="curve" smooth="yes"/>
      <point x="311" y="488"/>
      <point x="297" y="477"/>
      <point x="277" y="461" type="curve"/>
      <point x="277" y="282" type="line"/>
      <point x="283" y="283"/>
      <point x="289" y="284"/>
      <point x="295" y="284" type="curve" smooth="yes"/>
      <point x="326" y="284"/>
      <point x="358" y="268"/>
      <point x="360" y="237" type="curve" smooth="yes"/>
      <point x="361" y="217"/>
      <point x="361" y="187"/>
      <point x="360" y="165" type="curve" smooth="yes"/>
      <point x="358" y="130"/>
      <point x="329" y="125"/>
      <point x="303" y="125" type="curve" smooth="yes"/>
      <point x="287" y="125"/>
      <point x="272" y="126"/>
      <point x="267" y="127" type="curve"/>
    </contour>
  </outline>
</glyph>
<glyph name="ae" format="1">
  <advance width="721"/>
  <unicode hex="00E6"/>
  <outline>
    <contour>
      <point x="450" y="173" type="line"/>
      <point x="450" y="331" type="line" smooth="yes"/>
      <point x="450" y="450"/>
      <point x="367" y="510"/>
      <point x="255" y="510" type="curve" smooth="yes"/>
      <point x="127" y="510"/>
      <point x="43" y="437"/>
      <point x="53" y="320" type="curve"/>
      <point x="218" y="325" type="line"/>
      <point x="214" y="353"/>
      <point x="229" y="365"/>
      <point x="248" y="365" type="curve" smooth="yes"/>
      <point x="263" y="365"/>
      <point x="275" y="355"/>
      <point x="275" y="330" type="curve" smooth="yes"/>
      <point x="275" y="290" type="line"/>
      <point x="275" y="290"/>
      <point x="202" y="280"/>
      <point x="135" y="262" type="curve" smooth="yes"/>
      <point x="59" y="242"/>
      <point x="30" y="204"/>
      <point x="30" y="137" type="curve" smooth="yes"/>
      <point x="30" y="48"/>
      <point x="94" y="-15"/>
      <point x="177" y="-15" type="curve" smooth="yes"/>
      <point x="252" y="-15"/>
      <point x="304" y="21"/>
      <point x="329" y="66" type="curve"/>
      <point x="331" y="66" type="line"/>
    </contour>
    <contour>
      <point x="236" y="206" type="curve" smooth="yes"/>
      <point x="253" y="212"/>
      <point x="275" y="216"/>
      <point x="275" y="216" type="curve"/>
      <point x="275" y="216"/>
      <point x="275" y="173"/>
      <point x="275" y="159" type="curve" smooth="yes"/>
      <point x="275" y="137"/>
      <point x="261" y="125"/>
      <point x="243" y="125" type="curve" smooth="yes"/>
      <point x="224" y="125"/>
      <point x="210" y="137"/>
      <point x="210" y="163" type="curve" smooth="yes"/>
      <point x="210" y="184"/>
      <point x="216" y="199"/>
    </contour>
    <contour>
      <point x="689" y="165" type="curve"/>
      <point x="525" y="170" type="line"/>
      <point x="524" y="144"/>
      <point x="507" y="131"/>
      <point x="490" y="131" type="curve" smooth="yes"/>
      <point x="471" y="130"/>
      <point x="452" y="144"/>
      <point x="452" y="172" type="curve" smooth="yes"/>
      <point x="452" y="191"/>
      <point x="452" y="196"/>
      <point x="452" y="209" type="curve" smooth="yes"/>
      <point x="452" y="209"/>
      <point x="524" y="216"/>
      <point x="585" y="231" type="curve" smooth="yes"/>
      <point x="654" y="248"/>
      <point x="696" y="262"/>
      <point x="696" y="335" type="curve" smooth="yes"/>
      <point x="696" y="450"/>
      <point x="602" y="510"/>
      <point x="493" y="510" type="curve" smooth="yes"/>
      <point x="372" y="510"/>
      <point x="289" y="433"/>
      <point x="285" y="317" type="curve" smooth="yes"/>
      <point x="283" y="265"/>
      <point x="283" y="221"/>
      <point x="285" y="172" type="curve" smooth="yes"/>
      <point x="291" y="44"/>
      <point x="377" y="-15"/>
      <point x="488" y="-15" type="curve" smooth="yes"/>
      <point x="600" y="-15"/>
      <point x="685" y="54"/>
    </contour>
    <contour>
      <point x="452" y="330" type="line"/>
      <point x="452" y="353"/>
      <point x="466" y="365"/>
      <point x="485" y="365" type="curve" smooth="yes"/>
      <point x="504" y="365"/>
      <point x="516" y="353"/>
      <point x="516" y="328" type="curve" smooth="yes"/>
      <point x="516" y="303"/>
      <point x="509" y="297"/>
      <point x="486" y="292" type="curve" smooth="yes"/>
      <point x="469" y="288"/>
      <point x="452" y="287"/>
      <point x="452" y="287" type="curve"/>
    </contour>
  </outline>
</glyph>
<glyph name="eth" format="1">
  <advance width="507"/>
  <unicode hex="00F0"/>
  <outline>
    <contour>
      <point x="166" y="740" type="curve"/>
      <point x="54" y="711" type="line"/>
      <point x="127" y="681"/>
      <point x="245" y="610"/>
      <point x="278" y="455" type="curve"/>
      <point x="263" y="465"/>
      <point x="237" y="475"/>
      <point x="197" y="475" type="curve" smooth="yes"/>
      <point x="116" y="475"/>
      <point x="36" y="422"/>
      <point x="32" y="298" type="curve" smooth="yes"/>
      <point x="30" y="241"/>
      <point x="29" y="204"/>
      <point x="32" y="151" type="curve" smooth="yes"/>
      <point x="38" y="43"/>
      <point x="132" y="-15"/>
      <point x="247" y="-15" type="curve" smooth="yes"/>
      <point x="364" y="-15"/>
      <point x="461" y="46"/>
      <point x="465" y="155" type="curve" smooth="yes"/>
      <point x="467" y="211"/>
      <point x="465" y="277"/>
      <point x="465" y="325" type="curve" smooth="yes"/>
      <point x="465" y="622"/>
      <point x="264" y="726"/>
    </contour>
    <contour>
      <point x="285" y="159" type="curve" smooth="yes"/>
      <point x="284" y="133"/>
      <point x="265" y="120"/>
      <point x="249" y="120" type="curve" smooth="yes"/>
      <point x="232" y="120"/>
      <point x="213" y="133"/>
      <point x="212" y="159" type="curve" smooth="yes"/>
      <point x="210" y="205"/>
      <point x="210" y="257"/>
      <point x="212" y="302" type="curve" smooth="yes"/>
      <point x="213" y="327"/>
      <point x="229" y="340"/>
      <point x="250" y="340" type="curve" smooth="yes"/>
      <point x="268" y="340"/>
      <point x="285" y="328"/>
      <point x="286" y="302" type="curve" smooth="yes"/>
      <point x="288" y="253"/>
      <point x="287" y="202"/>
    </contour>
    <contour>
      <point x="466" y="740" type="line"/>
      <point x="333" y="740" type="line"/>
      <point x="264" y="694" type="line"/>
      <point x="186" y="644" type="line"/>
      <point x="31" y="546" type="line"/>
      <point x="165" y="546" type="line"/>
      <point x="237" y="594" type="line"/>
      <point x="325" y="651" type="line"/>
    </contour>
  </outline>
</glyph>
<glyph name="oslash" format="1">
  <advance width="507"/>
  <unicode hex="00F8"/>
  <outline>
    <contour>
      <point x="482" y="510" type="line"/>
      <point x="387" y="510" type="line"/>
      <point x="326" y="421" type="line"/>
      <point x="299" y="378" type="line"/>
      <point x="200" y="204" type="line"/>
      <point x="123" y="119" type="line"/>
      <point x="37" y="-15" type="line"/>
      <point x="132" y="-15" type="line"/>
      <point x="179" y="55" type="line"/>
      <point x="224" y="130" type="line"/>
      <point x="323" y="307" type="line"/>
      <point x="390" y="374" type="line"/>
    </contour>
    <component base="o" xOffset="5"/>
  </outline>
</glyph>
<glyph name="dotlessi" format="1">
  <advance width="293"/>
  <unicode hex="0131"/>
  <outline>
    <contour>
      <point x="221" y="500" type="line"/>
      <point x="41" y="469" type="line"/>
      <point x="41" y="133" type="line" smooth="yes"/>
      <point x="41" y="19"/>
      <point x="118" y="-10"/>
      <point x="196" y="-10" type="curve" smooth="yes"/>
      <point x="226" y="-10"/>
      <point x="258" y="-5"/>
      <point x="283" y="0" type="curve"/>
      <point x="283" y="119" type="line"/>
      <point x="272" y="119" type="line" smooth="yes"/>
      <point x="241" y="119"/>
      <point x="221" y="129"/>
      <point x="221" y="165" type="curve" smooth="yes"/>
    </contour>
  </outline>
</glyph>
<glyph name="OE" format="1">
  <advance width="835.0"/>
  <unicode hex="0152"/>
  <outline>
    <contour>
      <point x="413" y="0" type="curve"/>
      <point x="795" y="0" type="line"/>
      <point x="795" y="160" type="line"/>
      <point x="561" y="160" type="line"/>
      <point x="561" y="282" type="line"/>
      <point x="773" y="282" type="line"/>
      <point x="773" y="438" type="line"/>
      <point x="561" y="438" type="line"/>
      <point x="561" y="550" type="line"/>
      <point x="795" y="550" type="line"/>
      <point x="795" y="710" type="line"/>
      <point x="413" y="710" type="line"/>
      <point x="383" y="720"/>
      <point x="348" y="725"/>
      <point x="309" y="725" type="curve" smooth="yes"/>
      <point x="156" y="725"/>
      <point x="39" y="641"/>
      <point x="33" y="482" type="curve" smooth="yes"/>
      <point x="30" y="403"/>
      <point x="30" y="302"/>
      <point x="33" y="229" type="curve" smooth="yes"/>
      <point x="40" y="67"/>
      <point x="155" y="-15"/>
      <point x="308" y="-15" type="curve" smooth="yes"/>
      <point x="346" y="-15"/>
      <point x="382" y="-10"/>
    </contour>
    <contour>
      <point x="308" y="145" type="curve" smooth="yes"/>
      <point x="262" y="145"/>
      <point x="231" y="169"/>
      <point x="228" y="224" type="curve" smooth="yes"/>
      <point x="224" y="289"/>
      <point x="224" y="428"/>
      <point x="228" y="490" type="curve" smooth="yes"/>
      <point x="231" y="542"/>
      <point x="263" y="565"/>
      <point x="309" y="565" type="curve" smooth="yes"/>
      <point x="334" y="565"/>
      <point x="357" y="562"/>
      <point x="371" y="549" type="curve"/>
      <point x="371" y="160" type="line"/>
      <point x="357" y="146"/>
      <point x="334" y="145"/>
    </contour>
  </outline>
</glyph>
<glyph name="oe" format="1">
  <advance width="736"/>
  <unicode hex="0153"/>
  <outline>
    <contour>
      <point x="387" y="279" type="curve"/>
      <point x="387" y="194" type="line"/>
      <point x="462" y="200"/>
      <point x="540" y="210"/>
      <point x="595" y="220" type="curve" smooth="yes"/>
      <point x="693" y="239"/>
      <point x="727" y="264"/>
      <point x="727" y="336" type="curve" smooth="yes"/>
      <point x="727" y="456"/>
      <point x="635" y="510"/>
      <point x="511" y="510" type="curve" smooth="yes"/>
      <point x="380.767857143" y="510.0"/>
      <point x="317.992671369" y="440.917386342"/>
      <point x="307" y="317" type="curve" smooth="yes"/>
      <point x="304.020689655" y="281.248275862"/>
      <point x="304.007274697" y="228.895729336"/>
      <point x="307" y="186" type="curve" smooth="yes"/>
      <point x="316.995002382" y="56.0649690305"/>
      <point x="380.8" y="-15.0"/>
      <point x="512" y="-15" type="curve" smooth="yes"/>
      <point x="647" y="-15"/>
      <point x="720" y="56"/>
      <point x="720" y="151" type="curve" smooth="yes"/>
      <point x="720" y="159"/>
      <point x="719" y="168"/>
      <point x="717" y="173" type="curve"/>
      <point x="552" y="173" type="line"/>
      <point x="552" y="167" type="line" smooth="yes"/>
      <point x="552" y="138"/>
      <point x="538" y="124"/>
      <point x="512" y="123" type="curve" smooth="yes"/>
      <point x="482" y="122"/>
      <point x="471" y="143"/>
      <point x="467" y="187" type="curve" smooth="yes"/>
      <point x="464" y="220"/>
      <point x="464" y="268"/>
      <point x="467" y="308" type="curve" smooth="yes"/>
      <point x="470" y="353"/>
      <point x="479" y="371"/>
      <point x="511" y="371" type="curve" smooth="yes"/>
      <point x="538" y="371"/>
      <point x="547" y="358"/>
      <point x="547" y="327" type="curve" smooth="yes"/>
      <point x="547" y="304"/>
      <point x="540" y="297"/>
      <point x="514" y="292" type="curve" smooth="yes"/>
      <point x="477" y="287"/>
      <point x="430" y="282"/>
    </contour>
    <contour>
      <point x="258" y="-15" type="curve" smooth="yes"/>
      <point x="376.444444444" y="-15.0"/>
      <point x="459.000410568" y="49.0118038246"/>
      <point x="463" y="164" type="curve" smooth="yes"/>
      <point x="464.998678996" y="218.963672387"/>
      <point x="464.997358864" y="274.072631231"/>
      <point x="463" y="329" type="curve" smooth="yes"/>
      <point x="458.000801369" y="443.981568521"/>
      <point x="377.355555556" y="510.0"/>
      <point x="258" y="510" type="curve" smooth="yes"/>
      <point x="127" y="510"/>
      <point x="36" y="444"/>
      <point x="32" y="329" type="curve" smooth="yes"/>
      <point x="30" y="274"/>
      <point x="30" y="220"/>
      <point x="32" y="165" type="curve" smooth="yes"/>
      <point x="37" y="50"/>
      <point x="128" y="-15"/>
    </contour>
    <contour>
      <point x="258" y="123" type="curve" smooth="yes"/>
      <point x="229" y="123"/>
      <point x="214" y="142"/>
      <point x="212" y="173" type="curve" smooth="yes"/>
      <point x="210" y="223"/>
      <point x="210" y="274"/>
      <point x="212" y="324" type="curve" smooth="yes"/>
      <point x="213" y="355"/>
      <point x="229" y="371"/>
      <point x="258" y="371" type="curve" smooth="yes"/>
      <point x="286" y="371"/>
      <point x="301" y="355"/>
      <point x="303" y="324" type="curve" smooth="yes"/>
      <point x="305" y="274"/>
      <point x="305" y="223"/>
      <point x="303" y="173" type="curve" smooth="yes"/>
      <point x="301" y="142"/>
      <point x="286" y="123"/>
    </contour>
  </outline>
</glyph>
<glyph name="florin" format="1">
  <advance width="519"/>
  <unicode hex="0192"/>
  <outline>
    <contour>
      <point x="366" y="539" type="line" smooth="yes"/>
      <point x="372" y="579"/>
      <point x="396" y="600"/>
      <point x="428" y="600" type="curve" smooth="yes"/>
      <point x="454" y="600"/>
      <point x="476" y="595"/>
      <point x="476" y="595" type="curve"/>
      <point x="519" y="722" type="line"/>
      <point x="519" y="722"/>
      <point x="473" y="750"/>
      <point x="400" y="750" type="curve" smooth="yes"/>
      <point x="285" y="750"/>
      <point x="207" y="679"/>
      <point x="185" y="542" type="curve" smooth="yes"/>
      <point x="93" y="-39" type="line"/>
      <point x="87" y="-79"/>
      <point x="65" y="-100"/>
      <point x="31" y="-100" type="curve" smooth="yes"/>
      <point x="5" y="-100"/>
      <point x="-17" y="-95"/>
      <point x="-17" y="-95" type="curve"/>
      <point x="-60" y="-222" type="line"/>
      <point x="-60" y="-222"/>
      <point x="-14" y="-250"/>
      <point x="59" y="-250" type="curve" smooth="yes"/>
      <point x="174" y="-250"/>
      <point x="252" y="-179"/>
      <point x="274" y="-42" type="curve" smooth="yes"/>
    </contour>
    <contour>
      <point x="426" y="370" type="line"/>
      <point x="450" y="495" type="line"/>
      <point x="119" y="495" type="line"/>
      <point x="95" y="370" type="line"/>
    </contour>
  </outline>
</glyph>
<glyph name="jsuperior" format="1">
  <advance width="207"/>
  <unicode hex="02B2"/>
  <outline>
    <contour>
      <point x="170" y="715" type="line"/>
      <point x="45" y="695" type="line"/>
      <point x="45" y="344" type="line" smooth="yes"/>
      <point x="45" y="318"/>
      <point x="26" y="309"/>
      <point x="0" y="309" type="curve"/>
      <point x="0" y="227" type="line"/>
      <point x="60" y="214"/>
      <point x="170" y="217"/>
      <point x="170" y="335" type="curve" smooth="yes"/>
    </contour>
    <contour>
      <point x="33" y="797" type="curve" smooth="yes"/>
      <point x="33" y="766"/>
      <point x="60" y="741"/>
      <point x="105" y="741" type="curve" smooth="yes"/>
      <point x="150" y="741"/>
      <point x="177" y="766"/>
      <point x="177" y="797" type="curve" smooth="yes"/>
      <point x="177" y="830"/>
      <point x="150" y="855"/>
      <point x="105" y="855" type="curve" smooth="yes"/>
      <point x="60" y="855"/>
      <point x="33" y="830"/>
    </contour>
  </outline>
</glyph>
<glyph name="ysuperior" format="1">
  <advance width="329"/>
  <unicode hex="02B8"/>
  <outline>
    <contour>
      <point x="56" y="227" type="line"/>
      <point x="178" y="227" type="line"/>
      <point x="324" y="710" type="line"/>
      <point x="202" y="710" type="line"/>
      <point x="178" y="570" type="line"/>
      <point x="168" y="512" type="line"/>
      <point x="167" y="512" type="line"/>
      <point x="157" y="570" type="line"/>
      <point x="133" y="710" type="line"/>
      <point x="5" y="710" type="line"/>
      <point x="102" y="383" type="line"/>
    </contour>
  </outline>
</glyph>
<glyph name="circumflex" format="1">
  <advance width="398"/>
  <unicode hex="02C6"/>
  <outline>
    <contour>
      <point x="123" y="710" type="line"/>
      <point x="5" y="565" type="line"/>
      <point x="150" y="565" type="line"/>
      <point x="199" y="628" type="line"/>
      <point x="243" y="565" type="line"/>
      <point x="393" y="565" type="line"/>
      <point x="282" y="710" type="line"/>
    </contour>
  </outline>
</glyph>
<glyph name="breve" format="1">
  <advance width="346"/>
  <unicode hex="02D8"/>
  <outline>
    <contour>
      <point x="173" y="675" type="curve"/>
      <point x="143" y="675"/>
      <point x="105" y="682"/>
      <point x="105" y="728" type="curve"/>
      <point x="67" y="708" type="line"/>
      <point x="20" y="624"/>
      <point x="80" y="560"/>
      <point x="173" y="560" type="curve" smooth="yes"/>
      <point x="266" y="560"/>
      <point x="326" y="624"/>
      <point x="279" y="708" type="curve"/>
      <point x="241" y="728" type="line"/>
      <point x="241" y="682"/>
      <point x="203" y="675"/>
    </contour>
  </outline>
</glyph>
<glyph name="xsuperior" format="1">
  <advance width="362"/>
  <unicode hex="02E3"/>
  <outline>
    <contour>
      <point x="219" y="390" type="line"/>
      <point x="357" y="390" type="line"/>
      <point x="145" y="710" type="line"/>
      <point x="6" y="710" type="line"/>
    </contour>
    <contour>
      <point x="131" y="390" type="line"/>
      <point x="191" y="487" type="line"/>
      <point x="128" y="576" type="line"/>
      <point x="5" y="390" type="line"/>
    </contour>
    <contour>
      <point x="357" y="710" type="line" smooth="yes"/>
      <point x="230" y="710" type="line"/>
      <point x="171" y="601" type="line"/>
      <point x="244" y="532" type="line"/>
    </contour>
  </outline>
</glyph>
<glyph name="Omega" format="1">
  <advance width="640"/>
  <unicode hex="03A9"/>
  <unicode hex="2126"/>
  <outline>
    <contour>
      <point x="40" y="0" type="line"/>
      <point x="299" y="0" type="line"/>
      <point x="299" y="140" type="line"/>
      <point x="265" y="143"/>
      <point x="255" y="163"/>
      <point x="252" y="207" type="curve" smooth="yes"/>
      <point x="248" y="270"/>
      <point x="249" y="421"/>
      <point x="252" y="482" type="curve" smooth="yes"/>
      <point x="255" y="533"/>
      <point x="282" y="560"/>
      <point x="322" y="560" type="curve" smooth="yes"/>
      <point x="362" y="560"/>
      <point x="390" y="533"/>
      <point x="392" y="482" type="curve" smooth="yes"/>
      <point x="395" y="416"/>
      <point x="396" y="265"/>
      <point x="392" y="207" type="curve" smooth="yes"/>
      <point x="389" y="164"/>
      <point x="378" y="143"/>
      <point x="341" y="140" type="curve"/>
      <point x="341" y="0" type="line"/>
      <point x="600" y="0" type="line"/>
      <point x="610" y="150" type="line"/>
      <point x="511" y="146" type="line"/>
      <point x="550" y="176"/>
      <point x="575" y="219"/>
      <point x="578" y="290" type="curve" smooth="yes"/>
      <point x="580" y="346"/>
      <point x="580" y="447"/>
      <point x="578" y="493" type="curve" smooth="yes"/>
      <point x="571" y="648"/>
      <point x="463" y="725"/>
      <point x="322" y="725" type="curve" smooth="yes"/>
      <point x="181" y="725"/>
      <point x="71" y="648"/>
      <point x="62" y="493" type="curve" smooth="yes"/>
      <point x="59" y="440"/>
      <point x="59" y="349"/>
      <point x="62" y="292" type="curve" smooth="yes"/>
      <point x="65" y="219"/>
      <point x="90" y="176"/>
      <point x="129" y="146" type="curve"/>
      <point x="30" y="150" type="line"/>
    </contour>
  </outline>
</glyph>
<glyph name="mu" format="1">
  <advance width="537"/>
  <unicode hex="03BC"/>
  <outline>
    <contour>
      <point x="215" y="-220" type="line"/>
      <point x="215" y="-131" type="line" smooth="yes"/>
      <point x="215" y="-79"/>
      <point x="203" y="-42"/>
      <point x="188" y="-15" type="curve"/>
      <point x="195" y="-15" type="line" smooth="yes"/>
      <point x="278" y="-15"/>
      <point x="312" y="37"/>
      <point x="318" y="49" type="curve"/>
      <point x="363" y="-15"/>
      <point x="456" y="-22"/>
      <point x="522" y="0" type="curve"/>
      <point x="522" y="125" type="line"/>
      <point x="478" y="125"/>
      <point x="470" y="134"/>
      <point x="470" y="173" type="curve" smooth="yes"/>
      <point x="470" y="500" type="line"/>
      <point x="290" y="471" type="line"/>
      <point x="290" y="172" type="line"/>
      <point x="290" y="147"/>
      <point x="276" y="130"/>
      <point x="252" y="130" type="curve" smooth="yes"/>
      <point x="230" y="130"/>
      <point x="215" y="145"/>
      <point x="215" y="181" type="curve" smooth="yes"/>
      <point x="215" y="500" type="line"/>
      <point x="35" y="470" type="line"/>
      <point x="35" y="-250" type="line"/>
    </contour>
  </outline>
</glyph>
<glyph name="dagger" format="1">
  <advance width="541"/>
  <unicode hex="2020"/>
  <outline>
    <contour>
      <point x="531" y="475" type="line"/>
      <point x="353" y="469" type="line"/>
      <point x="361" y="716" type="line"/>
      <point x="187" y="696" type="line"/>
      <point x="193" y="469" type="line"/>
      <point x="10" y="475" type="line"/>
      <point x="11" y="345" type="line"/>
      <point x="194" y="352" type="line"/>
      <point x="203" y="-250" type="line"/>
      <point x="343" y="-250" type="line"/>
      <point x="354" y="351" type="line"/>
      <point x="530" y="345" type="line"/>
    </contour>
  </outline>
</glyph>
<glyph name="daggerdbl" format="1">
  <advance width="521"/>
  <unicode hex="2021"/>
  <outline>
    <contour>
      <point x="511" y="112" type="line"/>
      <point x="342" y="106" type="line"/>
      <point x="340" y="360" type="line"/>
      <point x="509" y="354" type="line"/>
      <point x="511" y="491" type="line"/>
      <point x="341" y="484" type="line"/>
      <point x="350" y="715" type="line"/>
      <point x="173" y="695" type="line"/>
      <point x="180" y="484" type="line"/>
      <point x="12" y="491" type="line"/>
      <point x="10" y="354" type="line"/>
      <point x="37" y="354"/>
      <point x="150" y="359"/>
      <point x="182" y="361" type="curve"/>
      <point x="181" y="105" type="line"/>
      <point x="12" y="112" type="line"/>
      <point x="10" y="-25" type="line"/>
      <point x="180" y="-18" type="line"/>
      <point x="173" y="-249" type="line"/>
      <point x="350" y="-229" type="line"/>
      <point x="341" y="-18" type="line"/>
      <point x="509" y="-25" type="line"/>
    </contour>
  </outline>
</glyph>
<glyph name="perthousand" format="1">
  <advance width="1072"/>
  <unicode hex="2030"/>
  <outline>
    <contour>
      <point x="20" y="534" type="curve" smooth="yes"/>
      <point x="20" y="446"/>
      <point x="82" y="385"/>
      <point x="170" y="385" type="curve" smooth="yes"/>
      <point x="253" y="385"/>
      <point x="321" y="446"/>
      <point x="321" y="534" type="curve" smooth="yes"/>
      <point x="321" y="623"/>
      <point x="259" y="685"/>
      <point x="170" y="685" type="curve" smooth="yes"/>
      <point x="82" y="685"/>
      <point x="20" y="623"/>
    </contour>
    <contour>
      <point x="141" y="535" type="curve" smooth="yes"/>
      <point x="141" y="555"/>
      <point x="154" y="570"/>
      <point x="171" y="570" type="curve" smooth="yes"/>
      <point x="188" y="570"/>
      <point x="201" y="555"/>
      <point x="201" y="535" type="curve" smooth="yes"/>
      <point x="201" y="515"/>
      <point x="188" y="500"/>
      <point x="171" y="500" type="curve" smooth="yes"/>
      <point x="154" y="500"/>
      <point x="141" y="515"/>
    </contour>
    <contour>
      <point x="420" y="134" type="curve" smooth="yes"/>
      <point x="420" y="46"/>
      <point x="482" y="-15"/>
      <point x="570" y="-15" type="curve" smooth="yes"/>
      <point x="653" y="-15"/>
      <point x="721" y="46"/>
      <point x="721" y="134" type="curve" smooth="yes"/>
      <point x="721" y="223"/>
      <point x="659" y="285"/>
      <point x="570" y="285" type="curve" smooth="yes"/>
      <point x="482" y="285"/>
      <point x="420" y="223"/>
    </contour>
    <contour>
      <point x="541" y="135" type="curve" smooth="yes"/>
      <point x="541" y="155"/>
      <point x="554" y="170"/>
      <point x="571" y="170" type="curve" smooth="yes"/>
      <point x="588" y="170"/>
      <point x="601" y="155"/>
      <point x="601" y="135" type="curve" smooth="yes"/>
      <point x="601" y="115"/>
      <point x="588" y="100"/>
      <point x="571" y="100" type="curve" smooth="yes"/>
      <point x="554" y="100"/>
      <point x="541" y="115"/>
    </contour>
    <contour>
      <point x="751" y="134" type="curve" smooth="yes"/>
      <point x="751" y="46"/>
      <point x="813" y="-15"/>
      <point x="901" y="-15" type="curve" smooth="yes"/>
      <point x="984" y="-15"/>
      <point x="1052" y="46"/>
      <point x="1052" y="134" type="curve" smooth="yes"/>
      <point x="1052" y="223"/>
      <point x="990" y="285"/>
      <point x="901" y="285" type="curve" smooth="yes"/>
      <point x="813" y="285"/>
      <point x="751" y="223"/>
    </contour>
    <contour>
      <point x="872" y="135" type="curve" smooth="yes"/>
      <point x="872" y="155"/>
      <point x="885" y="170"/>
      <point x="902" y="170" type="curve" smooth="yes"/>
      <point x="919" y="170"/>
      <point x="932" y="155"/>
      <point x="932" y="135" type="curve" smooth="yes"/>
      <point x="932" y="115"/>
      <point x="919" y="100"/>
      <point x="902" y="100" type="curve" smooth="yes"/>
      <point x="885" y="100"/>
      <point x="872" y="115"/>
    </contour>
    <component base="fraction" xOffset="95"/>
  </outline>
</glyph>
<glyph name="guilsinglright" format="1">
  <advance width="327"/>
  <unicode hex="203A"/>
  <outline>
    <contour>
      <point x="103" y="28" type="line"/>
      <point x="312" y="260" type="line"/>
      <point x="312" y="281" type="line"/>
      <point x="97" y="506" type="line"/>
      <point x="5" y="411" type="line"/>
      <point x="131" y="282" type="line"/>
      <point x="131" y="263" type="line"/>
      <point x="8" y="121" type="line"/>
    </contour>
  </outline>
</glyph>
<glyph name="fraction" format="1">
  <advance width="547"/>
  <unicode hex="2044"/>
  <outline>
    <contour>
      <point x="517" y="710" type="line"/>
      <point x="387" y="710" type="line"/>
      <point x="50" y="0" type="line"/>
      <point x="180" y="0" type="line"/>
    </contour>
  </outline>
</glyph>
<glyph name="zerosuperior" format="1">
  <advance width="395"/>
  <unicode hex="2070"/>
  <outline>
    <contour>
      <point x="366" y="504" type="curve" smooth="yes"/>
      <point x="371" y="554"/>
      <point x="371" y="627"/>
      <point x="366" y="670" type="curve" smooth="yes"/>
      <point x="357" y="753"/>
      <point x="278" y="795"/>
      <point x="199" y="795" type="curve" smooth="yes"/>
      <point x="119" y="795"/>
      <point x="39" y="752"/>
      <point x="29" y="670" type="curve" smooth="yes"/>
      <point x="24" y="624"/>
      <point x="24" y="556"/>
      <point x="28" y="504" type="curve" smooth="yes"/>
      <point x="34" y="421"/>
      <point x="114" y="380"/>
      <point x="195" y="380" type="curve" smooth="yes"/>
      <point x="276" y="380"/>
      <point x="358" y="422"/>
    </contour>
    <contour>
      <point x="232" y="656" type="curve" smooth="yes"/>
      <point x="234" y="617"/>
      <point x="235" y="557"/>
      <point x="232" y="517" type="curve" smooth="yes"/>
      <point x="230" y="492"/>
      <point x="211" y="485"/>
      <point x="197" y="485" type="curve" smooth="yes"/>
      <point x="183" y="485"/>
      <point x="165" y="492"/>
      <point x="163" y="517" type="curve" smooth="yes"/>
      <point x="160" y="557"/>
      <point x="160" y="615"/>
      <point x="163" y="656" type="curve" smooth="yes"/>
      <point x="165" y="682"/>
      <point x="184" y="690"/>
      <point x="198" y="690" type="curve" smooth="yes"/>
      <point x="212" y="690"/>
      <point x="230" y="682"/>
    </contour>
  </outline>
</glyph>
<glyph name="fivesuperior" format="1">
  <advance width="381"/>
  <unicode hex="2075"/>
  <outline>
    <contour>
      <point x="356" y="520" type="curve" smooth="yes"/>
      <point x="356" y="611"/>
      <point x="287" y="647"/>
      <point x="227" y="647" type="curve" smooth="yes"/>
      <point x="202" y="647"/>
      <point x="184" y="636"/>
      <point x="184" y="636" type="curve"/>
      <point x="192" y="680" type="line"/>
      <point x="326" y="680" type="line"/>
      <point x="326" y="780" type="line"/>
      <point x="78" y="780" type="line"/>
      <point x="56" y="555" type="line"/>
      <point x="170" y="550" type="line"/>
      <point x="174" y="559"/>
      <point x="184" y="567"/>
      <point x="195" y="567" type="curve" smooth="yes"/>
      <point x="213" y="567"/>
      <point x="221" y="556"/>
      <point x="221" y="525" type="curve" smooth="yes"/>
      <point x="221" y="501"/>
      <point x="212" y="480"/>
      <point x="194" y="480" type="curve" smooth="yes"/>
      <point x="175" y="480"/>
      <point x="169" y="494"/>
      <point x="169" y="515" type="curve"/>
      <point x="40" y="510" type="line"/>
      <point x="47" y="420"/>
      <point x="108" y="380"/>
      <point x="195" y="380" type="curve" smooth="yes"/>
      <point x="284" y="380"/>
      <point x="356" y="434"/>
    </contour>
  </outline>
</glyph>
<glyph name="sixsuperior" format="1">
  <advance width="409"/>
  <unicode hex="2076"/>
  <outline>
    <contour>
      <point x="206" y="380" type="curve" smooth="yes"/>
      <point x="309" y="380"/>
      <point x="379" y="441"/>
      <point x="379" y="524" type="curve" smooth="yes"/>
      <point x="379" y="607"/>
      <point x="317" y="638"/>
      <point x="251" y="638" type="curve" smooth="yes"/>
      <point x="221" y="638"/>
      <point x="193" y="629"/>
      <point x="172" y="610" type="curve"/>
      <point x="172" y="629"/>
      <point x="173" y="646"/>
      <point x="176" y="660" type="curve" smooth="yes"/>
      <point x="182" y="681"/>
      <point x="194" y="695"/>
      <point x="210" y="695" type="curve" smooth="yes"/>
      <point x="225" y="695"/>
      <point x="236" y="689"/>
      <point x="236" y="663" type="curve"/>
      <point x="366" y="668" type="line"/>
      <point x="366" y="750"/>
      <point x="315" y="795"/>
      <point x="215" y="795" type="curve" smooth="yes"/>
      <point x="137" y="795"/>
      <point x="82" y="757"/>
      <point x="57" y="695" type="curve" smooth="yes"/>
      <point x="42" y="657"/>
      <point x="33" y="610"/>
      <point x="35" y="556" type="curve" smooth="yes"/>
      <point x="40" y="437"/>
      <point x="120" y="380"/>
    </contour>
    <contour>
      <point x="203" y="470" type="curve" smooth="yes"/>
      <point x="184" y="470"/>
      <point x="169" y="488"/>
      <point x="169" y="517" type="curve"/>
      <point x="169" y="543"/>
      <point x="185" y="558"/>
      <point x="204" y="558" type="curve" smooth="yes"/>
      <point x="224" y="558"/>
      <point x="239" y="542"/>
      <point x="239" y="512" type="curve" smooth="yes"/>
      <point x="239" y="486"/>
      <point x="222" y="470"/>
    </contour>
  </outline>
</glyph>
<glyph name="sevensuperior" format="1">
  <advance width="338"/>
  <unicode hex="2077"/>
  <outline>
    <contour>
      <point x="319" y="780" type="line"/>
      <point x="10" y="780" type="line"/>
      <point x="10" y="690" type="line"/>
      <point x="170" y="690" type="line"/>
      <point x="34" y="390" type="line"/>
      <point x="177" y="390" type="line"/>
      <point x="328" y="714" type="line"/>
    </contour>
  </outline>
</glyph>
<glyph name="ninesuperior" format="1">
  <advance width="414"/>
  <unicode hex="2079"/>
  <outline>
    <contour>
      <point x="205" y="614" type="curve" smooth="yes"/>
      <point x="185" y="614"/>
      <point x="170" y="634"/>
      <point x="170" y="660" type="curve" smooth="yes"/>
      <point x="170" y="689"/>
      <point x="185" y="704"/>
      <point x="204" y="704" type="curve" smooth="yes"/>
      <point x="223" y="704"/>
      <point x="240" y="688"/>
      <point x="240" y="658" type="curve" smooth="yes"/>
      <point x="240" y="632"/>
      <point x="224" y="614"/>
    </contour>
    <contour>
      <point x="198" y="479" type="curve"/>
      <point x="178" y="479"/>
      <point x="168" y="493"/>
      <point x="168" y="511" type="curve"/>
      <point x="38" y="506" type="line"/>
      <point x="43" y="429"/>
      <point x="91" y="380"/>
      <point x="191" y="380" type="curve" smooth="yes"/>
      <point x="276" y="380"/>
      <point x="330" y="424"/>
      <point x="356" y="493" type="curve" smooth="yes"/>
      <point x="376" y="548"/>
      <point x="381" y="628"/>
      <point x="362" y="681" type="curve" smooth="yes"/>
      <point x="336" y="760"/>
      <point x="269" y="794"/>
      <point x="201" y="794" type="curve" smooth="yes"/>
      <point x="93" y="794"/>
      <point x="30" y="736"/>
      <point x="30" y="653" type="curve" smooth="yes"/>
      <point x="30" y="570"/>
      <point x="92" y="534"/>
      <point x="158" y="534" type="curve" smooth="yes"/>
      <point x="188" y="534"/>
      <point x="217" y="539"/>
      <point x="237" y="559" type="curve"/>
      <point x="237" y="550"/>
      <point x="237" y="542"/>
      <point x="236" y="534" type="curve" smooth="yes"/>
      <point x="233" y="502"/>
      <point x="220" y="479"/>
    </contour>
  </outline>
</glyph>
<glyph name="parenleftsuperior" format="1">
  <advance width="268"/>
  <unicode hex="207D"/>
  <outline>
    <contour>
      <point x="279" y="279" type="line"/>
      <point x="279" y="279"/>
      <point x="185" y="382"/>
      <point x="185" y="569" type="curve" smooth="yes"/>
      <point x="185" y="751"/>
      <point x="283" y="868"/>
      <point x="283" y="868" type="curve"/>
      <point x="202" y="880" type="line"/>
      <point x="202" y="880"/>
      <point x="45" y="776"/>
      <point x="45" y="565" type="curve" smooth="yes"/>
      <point x="45" y="356"/>
      <point x="199" y="261"/>
      <point x="199" y="261" type="curve"/>
    </contour>
  </outline>
</glyph>
<glyph name="parenrightsuperior" format="1">
  <advance width="268"/>
  <unicode hex="207E"/>
  <outline>
    <contour>
      <point x="59" y="261" type="line"/>
      <point x="59" y="261"/>
      <point x="213" y="356"/>
      <point x="213" y="565" type="curve" smooth="yes"/>
      <point x="213" y="776"/>
      <point x="56" y="880"/>
      <point x="56" y="880" type="curve"/>
      <point x="-25" y="868" type="line"/>
      <point x="-25" y="868"/>
      <point x="73" y="751"/>
      <point x="73" y="569" type="curve" smooth="yes"/>
      <point x="73" y="382"/>
      <point x="-21" y="279"/>
      <point x="-21" y="279" type="curve"/>
    </contour>
  </outline>
</glyph>
<glyph name="Euro" format="1">
  <advance width="594"/>
  <unicode hex="20AC"/>
  <outline>
    <contour>
      <point x="568" y="495" type="line"/>
      <point x="573" y="658"/>
      <point x="466" y="725"/>
      <point x="338" y="725" type="curve" smooth="yes"/>
      <point x="208" y="725"/>
      <point x="96" y="643"/>
      <point x="90" y="493" type="curve" smooth="yes"/>
      <point x="87" y="421"/>
      <point x="87" y="331"/>
      <point x="90" y="222" type="curve" smooth="yes"/>
      <point x="94" y="78"/>
      <point x="185" y="-15"/>
      <point x="332" y="-15" type="curve" smooth="yes"/>
      <point x="484" y="-15"/>
      <point x="568" y="75"/>
      <point x="568" y="215" type="curve"/>
      <point x="393" y="220" type="line"/>
      <point x="393" y="178"/>
      <point x="373" y="150"/>
      <point x="337" y="150" type="curve" smooth="yes"/>
      <point x="302" y="150"/>
      <point x="282" y="178"/>
      <point x="280" y="232" type="curve" smooth="yes"/>
      <point x="278" y="308"/>
      <point x="277" y="416"/>
      <point x="280" y="484" type="curve" smooth="yes"/>
      <point x="282" y="535"/>
      <point x="302" y="560"/>
      <point x="338" y="560" type="curve" smooth="yes"/>
      <point x="375" y="560"/>
      <point x="393" y="537"/>
      <point x="393" y="490" type="curve"/>
    </contour>
    <contour>
      <point x="428" y="367" type="line"/>
      <point x="452" y="462" type="line"/>
      <point x="31" y="462" type="line"/>
      <point x="6" y="367" type="line"/>
    </contour>
    <contour>
      <point x="396" y="237" type="line"/>
      <point x="421" y="332" type="line"/>
      <point x="25" y="332" type="line"/>
      <point x="0" y="237" type="line"/>
    </contour>
  </outline>
</glyph>
<glyph name="afii61352" format="1">
  <advance width="1025"/>
  <unicode hex="2116"/>
  <outline>
    <contour>
      <point x="694" y="170" type="line"/>
      <point x="990" y="170" type="line"/>
      <point x="990" y="280" type="line"/>
      <point x="694" y="280" type="line"/>
    </contour>
    <contour>
      <point x="990" y="455" type="curve"/>
      <point x="992" y="491"/>
      <point x="992" y="526"/>
      <point x="990" y="557" type="curve" smooth="yes"/>
      <point x="987" y="628"/>
      <point x="929" y="676"/>
      <point x="842" y="676" type="curve" smooth="yes"/>
      <point x="754" y="676"/>
      <point x="697" y="628"/>
      <point x="693" y="557" type="curve" smooth="yes"/>
      <point x="691" y="521"/>
      <point x="691" y="489"/>
      <point x="693" y="455" type="curve" smooth="yes"/>
      <point x="697" y="383"/>
      <point x="754" y="336"/>
      <point x="842" y="336" type="curve" smooth="yes"/>
      <point x="930" y="336"/>
      <point x="988" y="383"/>
    </contour>
    <contour>
      <point x="865" y="554" type="curve"/>
      <point x="867" y="522"/>
      <point x="867" y="488"/>
      <point x="865" y="460" type="curve"/>
      <point x="865" y="444"/>
      <point x="855" y="431"/>
      <point x="842" y="431" type="curve" smooth="yes"/>
      <point x="829" y="431"/>
      <point x="818" y="444"/>
      <point x="818" y="460" type="curve"/>
      <point x="816" y="490"/>
      <point x="816" y="524"/>
      <point x="818" y="554" type="curve"/>
      <point x="818" y="569"/>
      <point x="829" y="581"/>
      <point x="842" y="581" type="curve" smooth="yes"/>
      <point x="855" y="581"/>
      <point x="865" y="569"/>
    </contour>
    <contour>
      <point x="694" y="0" type="line"/>
      <point x="990" y="0" type="line"/>
      <point x="990" y="110" type="line"/>
      <point x="694" y="110" type="line"/>
    </contour>
    <component base="N" xOffset="10"/>
  </outline>
</glyph>
<glyph name="arrowright" format="1">
  <advance width="720"/>
  <unicode hex="2192"/>
  <outline>
    <contour>
      <point x="324" y="56" type="line"/>
      <point x="424" y="-44" type="line"/>
      <point x="720" y="236" type="line"/>
      <point x="720" y="287" type="line"/>
      <point x="429" y="575" type="line"/>
      <point x="324" y="479" type="line"/>
      <point x="428" y="376" type="line"/>
      <point x="492" y="347" type="line"/>
      <point x="10" y="349" type="line"/>
      <point x="10" y="181" type="line"/>
      <point x="496" y="183" type="line"/>
      <point x="430" y="152" type="line"/>
    </contour>
  </outline>
</glyph>
<glyph name="arrowdownright" format="1">
  <advance width="720"/>
  <unicode hex="2198"/>
  <outline>
    <contour>
      <point x="196" y="138" type="line"/>
      <point x="197" y="2" type="line"/>
      <point x="601" y="-10" type="line"/>
      <point x="637" y="27" type="line"/>
      <point x="634" y="441" type="line"/>
      <point x="496" y="441" type="line"/>
      <point x="497" y="267" type="line"/>
      <point x="518" y="206" type="line"/>
      <point x="183" y="567" type="line"/>
      <point x="70" y="453" type="line"/>
      <point x="403" y="105" type="line"/>
      <point x="340" y="127" type="line"/>
    </contour>
  </outline>
</glyph>
<glyph name="arrowdownleft" format="1">
  <advance width="720"/>
  <unicode hex="2199"/>
  <outline>
    <contour>
      <point x="524" y="138" type="line"/>
      <point x="523" y="2" type="line"/>
      <point x="119" y="-10" type="line"/>
      <point x="83" y="27" type="line"/>
      <point x="86" y="441" type="line"/>
      <point x="224" y="441" type="line"/>
      <point x="223" y="267" type="line"/>
      <point x="202" y="206" type="line"/>
      <point x="537" y="567" type="line"/>
      <point x="650" y="449" type="line"/>
      <point x="317" y="105" type="line"/>
      <point x="380" y="127" type="line"/>
    </contour>
  </outline>
</glyph>
<glyph name="infinity" format="1">
  <advance width="778"/>
  <unicode hex="221E"/>
  <outline>
    <contour>
      <point x="480" y="298" type="line"/>
      <point x="492" y="319"/>
      <point x="511" y="330"/>
      <point x="539" y="330" type="curve" smooth="yes"/>
      <point x="570" y="330"/>
      <point x="588" y="300"/>
      <point x="588" y="270" type="curve" smooth="yes"/>
      <point x="588" y="237"/>
      <point x="566" y="210"/>
      <point x="536" y="210" type="curve" smooth="yes"/>
      <point x="500" y="210"/>
      <point x="468" y="255"/>
      <point x="429" y="308" type="curve" smooth="yes"/>
      <point x="380" y="374"/>
      <point x="313" y="450"/>
      <point x="208" y="450" type="curve" smooth="yes"/>
      <point x="93" y="450"/>
      <point x="20" y="376"/>
      <point x="20" y="266" type="curve" smooth="yes"/>
      <point x="20" y="155"/>
      <point x="101" y="88"/>
      <point x="205" y="88" type="curve" smooth="yes"/>
      <point x="279" y="88"/>
      <point x="327" y="120"/>
      <point x="359" y="172" type="curve"/>
      <point x="297" y="245" type="line"/>
      <point x="297" y="245"/>
      <point x="286" y="210"/>
      <point x="241" y="210" type="curve" smooth="yes"/>
      <point x="208" y="210"/>
      <point x="189" y="240"/>
      <point x="189" y="270" type="curve" smooth="yes"/>
      <point x="189" y="307"/>
      <point x="208" y="330"/>
      <point x="240" y="330" type="curve" smooth="yes"/>
      <point x="277" y="330"/>
      <point x="312" y="283"/>
      <point x="350" y="233" type="curve" smooth="yes"/>
      <point x="402" y="165"/>
      <point x="470" y="89"/>
      <point x="576" y="89" type="curve" smooth="yes"/>
      <point x="685" y="89"/>
      <point x="758" y="170"/>
      <point x="758" y="273" type="curve" smooth="yes"/>
      <point x="758" y="367"/>
      <point x="702" y="450"/>
      <point x="574" y="450" type="curve" smooth="yes"/>
      <point x="478" y="450"/>
      <point x="418" y="373"/>
      <point x="418" y="373" type="curve"/>
    </contour>
  </outline>
</glyph>
<glyph name="integral" format="1">
  <advance width="414"/>
  <unicode hex="222B"/>
  <outline>
    <contour>
      <point x="292" y="552" type="line"/>
      <point x="292" y="586"/>
      <point x="317" y="600"/>
      <point x="344" y="600" type="curve" smooth="yes"/>
      <point x="370" y="600"/>
      <point x="396" y="595"/>
      <point x="396" y="595" type="curve"/>
      <point x="419" y="723" type="line"/>
      <point x="384" y="743"/>
      <point x="347" y="750"/>
      <point x="305" y="750" type="curve" smooth="yes"/>
      <point x="199" y="750"/>
      <point x="112" y="681"/>
      <point x="112" y="562" type="curve" smooth="yes"/>
      <point x="112" y="-52" type="line" smooth="yes"/>
      <point x="112" y="-86"/>
      <point x="89" y="-100"/>
      <point x="60" y="-100" type="curve" smooth="yes"/>
      <point x="34" y="-100"/>
      <point x="8" y="-95"/>
      <point x="8" y="-95" type="curve"/>
      <point x="-15" y="-223" type="line"/>
      <point x="20" y="-243"/>
      <point x="57" y="-250"/>
      <point x="99" y="-250" type="curve" smooth="yes"/>
      <point x="205" y="-250"/>
      <point x="292" y="-181"/>
      <point x="292" y="-62" type="curve" smooth="yes"/>
    </contour>
  </outline>
</glyph>
<glyph name="uni2460" format="1">
  <advance width="775"/>
  <unicode hex="2460"/>
  <outline>
    <contour>
      <point x="50" y="330" type="curve" smooth="yes"/>
      <point x="50" y="145"/>
      <point x="199" y="-15"/>
      <point x="388" y="-15" type="curve" smooth="yes"/>
      <point x="576" y="-15"/>
      <point x="725" y="145"/>
      <point x="725" y="330" type="curve" smooth="yes"/>
      <point x="725" y="515"/>
      <point x="576" y="675"/>
      <point x="388" y="675" type="curve" smooth="yes"/>
      <point x="199" y="675"/>
      <point x="50" y="515"/>
    </contour>
    <contour>
      <point x="256" y="145" type="line"/>
      <point x="256" y="227" type="line"/>
      <point x="328" y="239" type="line"/>
      <point x="328" y="440" type="line"/>
      <point x="262" y="440" type="line"/>
      <point x="256" y="512" type="line"/>
      <point x="405" y="545" type="line"/>
      <point x="463" y="540" type="line"/>
      <point x="463" y="240" type="line"/>
      <point x="537" y="228" type="line"/>
      <point x="537" y="145" type="line"/>
    </contour>
  </outline>
</glyph>
<glyph name="uni2461" format="1">
  <advance width="775"/>
  <unicode hex="2461"/>
  <outline>
    <contour>
      <point x="50" y="330" type="curve" smooth="yes"/>
      <point x="50" y="146"/>
      <point x="199" y="-15"/>
      <point x="388" y="-15" type="curve" smooth="yes"/>
      <point x="576" y="-15"/>
      <point x="725" y="146"/>
      <point x="725" y="330" type="curve" smooth="yes"/>
      <point x="725" y="514"/>
      <point x="576" y="675"/>
      <point x="388" y="675" type="curve" smooth="yes"/>
      <point x="199" y="675"/>
      <point x="50" y="514"/>
    </contour>
    <contour>
      <point x="217" y="230" type="line"/>
      <point x="252" y="260"/>
      <point x="309" y="296"/>
      <point x="343" y="324" type="curve" smooth="yes"/>
      <point x="393" y="365"/>
      <point x="407" y="388"/>
      <point x="407" y="422" type="curve" smooth="yes"/>
      <point x="407" y="439"/>
      <point x="396" y="450"/>
      <point x="382" y="450" type="curve" smooth="yes"/>
      <point x="359" y="450"/>
      <point x="349" y="436"/>
      <point x="349" y="405" type="curve"/>
      <point x="219" y="400" type="line"/>
      <point x="214" y="490"/>
      <point x="282" y="550"/>
      <point x="387" y="550" type="curve" smooth="yes"/>
      <point x="481" y="550"/>
      <point x="542" y="499"/>
      <point x="542" y="416" type="curve" smooth="yes"/>
      <point x="542" y="367"/>
      <point x="520" y="339"/>
      <point x="485" y="308" type="curve" smooth="yes"/>
      <point x="454" y="280"/>
      <point x="410" y="260"/>
      <point x="391" y="250" type="curve"/>
      <point x="556" y="250" type="line"/>
      <point x="556" y="145" type="line"/>
      <point x="228" y="145" type="line"/>
    </contour>
  </outline>
</glyph>
<glyph name="uni2462" format="1">
  <advance width="775"/>
  <unicode hex="2462"/>
  <outline>
    <contour>
      <point x="50" y="330" type="curve" smooth="yes"/>
      <point x="50" y="147"/>
      <point x="199" y="-15"/>
      <point x="388" y="-15" type="curve" smooth="yes"/>
      <point x="576" y="-15"/>
      <point x="725" y="147"/>
      <point x="725" y="330" type="curve" smooth="yes"/>
      <point x="725" y="513"/>
      <point x="576" y="675"/>
      <point x="388" y="675" type="curve" smooth="yes"/>
      <point x="199" y="675"/>
      <point x="50" y="513"/>
    </contour>
    <contour>
      <point x="418" y="271" type="curve" smooth="yes"/>
      <point x="418" y="313"/>
      <point x="385" y="320"/>
      <point x="358" y="320" type="curve" smooth="yes"/>
      <point x="347" y="320"/>
      <point x="336" y="318"/>
      <point x="327" y="317" type="curve"/>
      <point x="319" y="367" type="line"/>
      <point x="387" y="439" type="line"/>
      <point x="238" y="439" type="line"/>
      <point x="238" y="539" type="line"/>
      <point x="535" y="539" type="line"/>
      <point x="535" y="467" type="line"/>
      <point x="457" y="374" type="line"/>
      <point x="517" y="372"/>
      <point x="553" y="328"/>
      <point x="553" y="272" type="curve" smooth="yes"/>
      <point x="553" y="186"/>
      <point x="473" y="134"/>
      <point x="384" y="134" type="curve" smooth="yes"/>
      <point x="297" y="134"/>
      <point x="231" y="174"/>
      <point x="224" y="264" type="curve"/>
      <point x="354" y="269" type="line"/>
      <point x="354" y="245"/>
      <point x="368" y="234"/>
      <point x="386" y="234" type="curve" smooth="yes"/>
      <point x="405" y="234"/>
      <point x="418" y="249"/>
    </contour>
  </outline>
</glyph>
<glyph name="uni2465" format="1">
  <advance width="775"/>
  <unicode hex="2465"/>
  <outline>
    <contour>
      <point x="388" y="-15" type="curve" smooth="yes"/>
      <point x="576" y="-15"/>
      <point x="725" y="146"/>
      <point x="725" y="330" type="curve" smooth="yes"/>
      <point x="725" y="514"/>
      <point x="576" y="675"/>
      <point x="388" y="675" type="curve" smooth="yes"/>
      <point x="199" y="675"/>
      <point x="50" y="514"/>
      <point x="50" y="330" type="curve" smooth="yes"/>
      <point x="50" y="146"/>
      <point x="199" y="-15"/>
    </contour>
    <contour>
      <point x="382" y="137" type="curve" smooth="yes"/>
      <point x="311" y="137"/>
      <point x="242" y="174"/>
      <point x="219" y="261" type="curve" smooth="yes"/>
      <point x="206" y="314"/>
      <point x="210" y="383"/>
      <point x="225" y="433" type="curve" smooth="yes"/>
      <point x="249" y="507"/>
      <point x="302" y="552"/>
      <point x="391" y="552" type="curve" smooth="yes"/>
      <point x="491" y="552"/>
      <point x="542" y="507"/>
      <point x="542" y="425" type="curve"/>
      <point x="412" y="420" type="line"/>
      <point x="412" y="446"/>
      <point x="401" y="452"/>
      <point x="386" y="452" type="curve" smooth="yes"/>
      <point x="369" y="452"/>
      <point x="359" y="438"/>
      <point x="353" y="415" type="curve" smooth="yes"/>
      <point x="350" y="402"/>
      <point x="348" y="385"/>
      <point x="348" y="367" type="curve"/>
      <point x="369" y="386"/>
      <point x="397" y="395"/>
      <point x="427" y="395" type="curve" smooth="yes"/>
      <point x="493" y="395"/>
      <point x="555" y="364"/>
      <point x="555" y="281" type="curve" smooth="yes"/>
      <point x="555" y="198"/>
      <point x="485" y="137"/>
    </contour>
    <contour>
      <point x="380" y="227" type="curve" smooth="yes"/>
      <point x="399" y="227"/>
      <point x="415" y="243"/>
      <point x="415" y="269" type="curve" smooth="yes"/>
      <point x="415" y="299"/>
      <point x="400" y="315"/>
      <point x="380" y="315" type="curve" smooth="yes"/>
      <point x="361" y="315"/>
      <point x="345" y="300"/>
      <point x="345" y="274" type="curve" smooth="yes"/>
      <point x="345" y="245"/>
      <point x="361" y="227"/>
    </contour>
  </outline>
</glyph>
<glyph name="uni2466" format="1">
  <advance width="775"/>
  <unicode hex="2466"/>
  <outline>
    <contour>
      <point x="50" y="330" type="curve" smooth="yes"/>
      <point x="50" y="146"/>
      <point x="199" y="-15"/>
      <point x="388" y="-15" type="curve" smooth="yes"/>
      <point x="576" y="-15"/>
      <point x="725" y="146"/>
      <point x="725" y="330" type="curve" smooth="yes"/>
      <point x="725" y="514"/>
      <point x="576" y="675"/>
      <point x="388" y="675" type="curve" smooth="yes"/>
      <point x="199" y="675"/>
      <point x="50" y="514"/>
    </contour>
    <contour>
      <point x="559" y="474" type="line"/>
      <point x="408" y="145" type="line"/>
      <point x="265" y="145" type="line"/>
      <point x="401" y="450" type="line"/>
      <point x="241" y="450" type="line"/>
      <point x="241" y="540" type="line"/>
      <point x="550" y="540" type="line"/>
    </contour>
  </outline>
</glyph>
<glyph name="uni2467" format="1">
  <advance width="775"/>
  <unicode hex="2467"/>
  <outline>
    <contour>
      <point x="388" y="-15" type="curve" smooth="yes"/>
      <point x="576" y="-15"/>
      <point x="725" y="147"/>
      <point x="725" y="330" type="curve" smooth="yes"/>
      <point x="725" y="513"/>
      <point x="576" y="675"/>
      <point x="388" y="675" type="curve" smooth="yes"/>
      <point x="199" y="675"/>
      <point x="50" y="513"/>
      <point x="50" y="330" type="curve" smooth="yes"/>
      <point x="50" y="147"/>
      <point x="199" y="-15"/>
    </contour>
    <contour>
      <point x="386" y="135" type="curve" smooth="yes"/>
      <point x="294" y="135"/>
      <point x="223" y="179"/>
      <point x="223" y="257" type="curve" smooth="yes"/>
      <point x="223" y="297"/>
      <point x="245" y="319"/>
      <point x="283" y="346" type="curve"/>
      <point x="250" y="368"/>
      <point x="226" y="392"/>
      <point x="226" y="425" type="curve" smooth="yes"/>
      <point x="226" y="505"/>
      <point x="299" y="550"/>
      <point x="391" y="550" type="curve" smooth="yes"/>
      <point x="482" y="550"/>
      <point x="552" y="506"/>
      <point x="552" y="429" type="curve" smooth="yes"/>
      <point x="552" y="395"/>
      <point x="526" y="369"/>
      <point x="493" y="346" type="curve"/>
      <point x="531" y="331"/>
      <point x="554" y="299"/>
      <point x="554" y="260" type="curve" smooth="yes"/>
      <point x="554" y="180"/>
      <point x="480" y="135"/>
    </contour>
    <contour>
      <point x="389" y="382" type="curve" smooth="yes"/>
      <point x="405" y="382"/>
      <point x="417" y="394"/>
      <point x="417" y="417" type="curve" smooth="yes"/>
      <point x="417" y="437"/>
      <point x="405" y="450"/>
      <point x="389" y="450" type="curve" smooth="yes"/>
      <point x="373" y="450"/>
      <point x="361" y="436"/>
      <point x="361" y="417" type="curve" smooth="yes"/>
      <point x="361" y="394"/>
      <point x="373" y="382"/>
    </contour>
    <contour>
      <point x="389" y="235" type="curve" smooth="yes"/>
      <point x="408" y="235"/>
      <point x="420" y="249"/>
      <point x="420" y="275" type="curve" smooth="yes"/>
      <point x="420" y="301"/>
      <point x="405" y="312"/>
      <point x="389" y="312" type="curve" smooth="yes"/>
      <point x="373" y="312"/>
      <point x="358" y="301"/>
      <point x="358" y="275" type="curve" smooth="yes"/>
      <point x="358" y="248"/>
      <point x="373" y="235"/>
    </contour>
  </outline>
</glyph>
<glyph name="uni2468" format="1">
  <advance width="775"/>
  <unicode hex="2468"/>
  <outline>
    <contour>
      <point x="50" y="330" type="curve" smooth="yes"/>
      <point x="50" y="146"/>
      <point x="199" y="-15"/>
      <point x="388" y="-15" type="curve" smooth="yes"/>
      <point x="575" y="-15"/>
      <point x="725" y="146"/>
      <point x="725" y="330" type="curve" smooth="yes"/>
      <point x="725" y="514"/>
      <point x="575" y="675"/>
      <point x="388" y="675" type="curve" smooth="yes"/>
      <point x="199" y="675"/>
      <point x="50" y="514"/>
    </contour>
    <contour>
      <point x="400" y="370" type="curve" smooth="yes"/>
      <point x="419" y="370"/>
      <point x="435" y="388"/>
      <point x="435" y="414" type="curve" smooth="yes"/>
      <point x="435" y="444"/>
      <point x="418" y="460"/>
      <point x="399" y="460" type="curve" smooth="yes"/>
      <point x="380" y="460"/>
      <point x="365" y="445"/>
      <point x="365" y="416" type="curve" smooth="yes"/>
      <point x="365" y="390"/>
      <point x="380" y="370"/>
    </contour>
    <contour>
      <point x="393" y="235" type="curve" smooth="yes"/>
      <point x="420" y="235"/>
      <point x="434" y="272"/>
      <point x="432" y="315" type="curve"/>
      <point x="412" y="295"/>
      <point x="383" y="290"/>
      <point x="353" y="290" type="curve" smooth="yes"/>
      <point x="287" y="290"/>
      <point x="225" y="326"/>
      <point x="225" y="409" type="curve" smooth="yes"/>
      <point x="225" y="492"/>
      <point x="288" y="550"/>
      <point x="396" y="550" type="curve" smooth="yes"/>
      <point x="483" y="550"/>
      <point x="569" y="494"/>
      <point x="569" y="360" type="curve" smooth="yes"/>
      <point x="569" y="230"/>
      <point x="511" y="136"/>
      <point x="386" y="136" type="curve" smooth="yes"/>
      <point x="286" y="136"/>
      <point x="238" y="185"/>
      <point x="233" y="262" type="curve"/>
      <point x="363" y="267" type="line"/>
      <point x="363" y="249"/>
      <point x="373" y="235"/>
    </contour>
  </outline>
</glyph>
<glyph name="uni24EA" format="1">
  <advance width="775"/>
  <unicode hex="24EA"/>
  <outline>
    <contour>
      <point x="50" y="330" type="curve" smooth="yes"/>
      <point x="50" y="145"/>
      <point x="199" y="-15"/>
      <point x="388" y="-15" type="curve" smooth="yes"/>
      <point x="576" y="-15"/>
      <point x="725" y="145"/>
      <point x="725" y="330" type="curve" smooth="yes"/>
      <point x="725" y="515"/>
      <point x="576" y="675"/>
      <point x="388" y="675" type="curve" smooth="yes"/>
      <point x="199" y="675"/>
      <point x="50" y="515"/>
    </contour>
    <contour>
      <point x="556" y="261" type="curve" smooth="yes"/>
      <point x="548" y="179"/>
      <point x="468" y="137"/>
      <point x="387" y="137" type="curve" smooth="yes"/>
      <point x="306" y="137"/>
      <point x="224" y="178"/>
      <point x="218" y="261" type="curve" smooth="yes"/>
      <point x="214" y="313"/>
      <point x="214" y="381"/>
      <point x="219" y="427" type="curve" smooth="yes"/>
      <point x="229" y="509"/>
      <point x="309" y="552"/>
      <point x="389" y="552" type="curve" smooth="yes"/>
      <point x="468" y="552"/>
      <point x="547" y="510"/>
      <point x="556" y="427" type="curve" smooth="yes"/>
      <point x="561" y="384"/>
      <point x="561" y="311"/>
    </contour>
    <contour>
      <point x="422" y="413" type="curve" smooth="yes"/>
      <point x="420" y="439"/>
      <point x="402" y="447"/>
      <point x="388" y="447" type="curve" smooth="yes"/>
      <point x="374" y="447"/>
      <point x="355" y="439"/>
      <point x="353" y="413" type="curve" smooth="yes"/>
      <point x="350" y="372"/>
      <point x="350" y="314"/>
      <point x="353" y="274" type="curve" smooth="yes"/>
      <point x="355" y="249"/>
      <point x="373" y="242"/>
      <point x="387" y="242" type="curve" smooth="yes"/>
      <point x="401" y="242"/>
      <point x="420" y="249"/>
      <point x="422" y="274" type="curve" smooth="yes"/>
      <point x="425" y="314"/>
      <point x="424" y="374"/>
    </contour>
  </outline>
</glyph>
<glyph name="uni261E" format="1">
  <advance width="1335"/>
  <unicode hex="261E"/>
  <outline>
    <contour>
      <point x="1265" y="525" type="curve" smooth="yes"/>
      <point x="1014" y="542"/>
      <point x="829" y="542"/>
      <point x="829" y="542" type="curve"/>
      <point x="761" y="580"/>
      <point x="701" y="619"/>
      <point x="625" y="619" type="curve" smooth="yes"/>
      <point x="474" y="619"/>
      <point x="329" y="476"/>
      <point x="254" y="476" type="curve" smooth="yes"/>
      <point x="223" y="476"/>
      <point x="49" y="482"/>
      <point x="49" y="482" type="curve"/>
      <point x="26" y="482"/>
      <point x="22" y="40"/>
      <point x="49" y="40" type="curve"/>
      <point x="284" y="47" type="line"/>
      <point x="347" y="-40"/>
      <point x="516" y="-8"/>
      <point x="516" y="-8" type="curve"/>
      <point x="664" y="-22"/>
      <point x="853" y="-62"/>
      <point x="846" y="90" type="curve"/>
      <point x="922" y="106"/>
      <point x="944" y="173"/>
      <point x="930" y="226" type="curve"/>
      <point x="1002" y="273"/>
      <point x="987" y="367"/>
      <point x="944" y="382" type="curve"/>
      <point x="944" y="382"/>
      <point x="1219" y="392"/>
      <point x="1265" y="398" type="curve" smooth="yes"/>
      <point x="1339" y="407"/>
      <point x="1335" y="519"/>
    </contour>
    <contour>
      <point x="125" y="240" type="curve" smooth="yes"/>
      <point x="124" y="257"/>
      <point x="122" y="415"/>
      <point x="134" y="415" type="curve" smooth="yes"/>
      <point x="144" y="415"/>
      <point x="212" y="411"/>
      <point x="263" y="411" type="curve" smooth="yes"/>
      <point x="283" y="411"/>
      <point x="306" y="419"/>
      <point x="306" y="419" type="curve"/>
      <point x="278" y="377"/>
      <point x="284" y="311"/>
      <point x="309" y="282" type="curve"/>
      <point x="309" y="282"/>
      <point x="293" y="227"/>
      <point x="262" y="175" type="curve" smooth="yes"/>
      <point x="225" y="114"/>
      <point x="132" y="90"/>
    </contour>
    <contour>
      <point x="635" y="453" type="curve" smooth="yes"/>
      <point x="550" y="453"/>
      <point x="565" y="337"/>
      <point x="480" y="309" type="curve"/>
      <point x="484" y="275" type="line"/>
      <point x="551" y="235"/>
      <point x="527" y="69"/>
      <point x="446" y="69" type="curve" smooth="yes"/>
      <point x="399" y="69"/>
      <point x="358" y="107"/>
      <point x="358" y="170" type="curve" smooth="yes"/>
      <point x="358" y="251"/>
      <point x="401" y="267"/>
      <point x="430" y="271" type="curve"/>
      <point x="433" y="271"/>
      <point x="429" y="305"/>
      <point x="429" y="305" type="curve"/>
      <point x="351" y="312"/>
      <point x="355" y="418"/>
      <point x="425" y="473" type="curve" smooth="yes"/>
      <point x="506" y="537"/>
      <point x="567" y="558"/>
      <point x="625" y="558" type="curve" smooth="yes"/>
      <point x="684" y="558"/>
      <point x="704" y="548"/>
      <point x="798" y="493" type="curve"/>
      <point x="853" y="468"/>
      <point x="924" y="428"/>
      <point x="924" y="428" type="curve"/>
      <point x="929" y="428"/>
      <point x="902" y="391"/>
      <point x="863" y="391" type="curve" smooth="yes"/>
      <point x="773" y="391"/>
      <point x="732" y="453"/>
    </contour>
    <contour>
      <point x="737" y="39" type="curve" smooth="yes"/>
      <point x="715" y="41"/>
      <point x="623" y="62"/>
      <point x="591" y="71" type="curve" smooth="yes"/>
      <point x="561" y="81"/>
      <point x="576" y="131"/>
      <point x="607" y="124" type="curve" smooth="yes"/>
      <point x="640" y="117"/>
      <point x="773" y="99"/>
      <point x="773" y="99" type="curve" smooth="yes"/>
      <point x="798" y="95"/>
      <point x="790" y="33"/>
    </contour>
    <contour>
      <point x="822" y="156" type="curve" smooth="yes"/>
      <point x="759" y="156"/>
      <point x="662" y="177"/>
      <point x="616" y="187" type="curve" smooth="yes"/>
      <point x="586" y="194"/>
      <point x="592" y="241"/>
      <point x="622" y="241" type="curve" smooth="yes"/>
      <point x="647" y="241"/>
      <point x="797" y="223"/>
      <point x="839" y="216" type="curve" smooth="yes"/>
      <point x="881" y="210"/>
      <point x="865" y="156"/>
    </contour>
    <contour>
      <point x="875" y="270" type="curve" smooth="yes"/>
      <point x="856" y="269"/>
      <point x="655" y="300"/>
      <point x="636" y="304" type="curve" smooth="yes"/>
      <point x="601" y="313"/>
      <point x="606" y="359"/>
      <point x="648" y="359" type="curve" smooth="yes"/>
      <point x="694" y="359"/>
      <point x="862" y="341"/>
      <point x="882" y="336" type="curve" smooth="yes"/>
      <point x="922" y="324"/>
      <point x="911" y="271"/>
    </contour>
    <contour>
      <point x="1229" y="438" type="curve" smooth="yes"/>
      <point x="1187" y="435"/>
      <point x="1144" y="434"/>
      <point x="1118" y="434" type="curve" smooth="yes"/>
      <point x="1032" y="434"/>
      <point x="1011" y="452"/>
      <point x="910" y="498" type="curve"/>
      <point x="910" y="498"/>
      <point x="1135" y="489"/>
      <point x="1228" y="485" type="curve" smooth="yes"/>
      <point x="1259" y="483"/>
      <point x="1263" y="440"/>
    </contour>
  </outline>
</glyph>
<glyph name="fi" format="1">
  <advance width="615"/>
  <unicode hex="FB01"/>
  <outline>
    <contour>
      <point x="55" y="495" type="line"/>
      <point x="0" y="495" type="line"/>
      <point x="0" y="370" type="line"/>
      <point x="55" y="370" type="line"/>
      <point x="55" y="0" type="line"/>
      <point x="235" y="0" type="line"/>
      <point x="235" y="370" type="line"/>
      <point x="542" y="370" type="line"/>
      <point x="542" y="495" type="line"/>
      <point x="235" y="495" type="line"/>
      <point x="235" y="552" type="line" smooth="yes"/>
      <point x="235" y="586"/>
      <point x="261" y="600"/>
      <point x="288" y="600" type="curve" smooth="yes"/>
      <point x="314" y="600"/>
      <point x="336" y="595"/>
      <point x="336" y="595" type="curve"/>
      <point x="336" y="595"/>
      <point x="320" y="610"/>
      <point x="320" y="654" type="curve" smooth="yes"/>
      <point x="320" y="693"/>
      <point x="348" y="731"/>
      <point x="348" y="731" type="curve"/>
      <point x="318" y="745"/>
      <point x="287" y="750"/>
      <point x="248" y="750" type="curve" smooth="yes"/>
      <point x="142" y="750"/>
      <point x="55" y="681"/>
      <point x="55" y="562" type="curve" smooth="yes"/>
    </contour>
    <contour>
      <point x="349" y="651" type="curve" smooth="yes"/>
      <point x="349" y="595"/>
      <point x="395" y="555"/>
      <point x="451" y="555" type="curve" smooth="yes"/>
      <point x="508" y="555"/>
      <point x="554" y="595"/>
      <point x="554" y="651" type="curve" smooth="yes"/>
      <point x="554" y="710"/>
      <point x="508" y="750"/>
      <point x="451" y="750" type="curve" smooth="yes"/>
      <point x="395" y="750"/>
      <point x="349" y="710"/>
    </contour>
    <contour>
      <point x="542" y="495" type="line"/>
      <point x="362" y="469" type="line"/>
      <point x="362" y="137" type="line" smooth="yes"/>
      <point x="362" y="-28"/>
      <point x="511" y="-19"/>
      <point x="600" y="0" type="curve"/>
      <point x="600" y="125" type="line"/>
      <point x="566" y="125"/>
      <point x="542" y="130"/>
      <point x="542" y="169" type="curve" smooth="yes"/>
    </contour>
  </outline>
</glyph>
<glyph name="AE.small" format="1">
  <advance width="680"/>
  <outline>
    <contour>
      <point x="312" y="437" type="line"/>
      <point x="312" y="0" type="line"/>
      <point x="643" y="0" type="line"/>
      <point x="643" y="150" type="line"/>
      <point x="487" y="150" type="line"/>
      <point x="487" y="205" type="line"/>
      <point x="632" y="205" type="line"/>
      <point x="632" y="345" type="line"/>
      <point x="487" y="345" type="line"/>
      <point x="487" y="400" type="line"/>
      <point x="645" y="400" type="line"/>
      <point x="645" y="550" type="line"/>
      <point x="188" y="550" type="line"/>
      <point x="-15" y="0" type="line"/>
      <point x="170" y="0" type="line"/>
    </contour>
    <contour>
      <point x="317" y="230" type="line"/>
      <point x="229" y="230" type="line"/>
      <point x="230" y="228"/>
      <point x="178" y="81"/>
      <point x="179" y="80" type="curve"/>
      <point x="317" y="80" type="line"/>
    </contour>
  </outline>
</glyph>
<glyph name="Aring.small" format="1">
  <advance width="539"/>
  <outline>
    <contour>
      <point x="334" y="65" type="line"/>
      <point x="334" y="65"/>
      <point x="314" y="218"/>
      <point x="311" y="215" type="curve"/>
      <point x="222" y="215" type="line"/>
      <point x="222" y="212"/>
      <point x="194" y="65"/>
      <point x="194" y="65" type="curve"/>
    </contour>
    <contour>
      <point x="417" y="550" type="line"/>
      <point x="379" y="550" type="line"/>
      <point x="360" y="532"/>
      <point x="323" y="510"/>
      <point x="269" y="510" type="curve" smooth="yes"/>
      <point x="218" y="510"/>
      <point x="182" y="527"/>
      <point x="160" y="550" type="curve"/>
      <point x="128" y="550" type="line"/>
      <point x="3" y="0" type="line"/>
      <point x="187" y="0" type="line"/>
      <point x="265" y="420" type="line"/>
      <point x="269" y="420" type="line"/>
      <point x="340" y="0" type="line"/>
      <point x="535" y="0" type="line"/>
    </contour>
    <component base="ring" xOffset="110" yOffset="10"/>
  </outline>
</glyph>
<glyph name="C.small" format="1">
  <advance width="497"/>
  <outline>
    <contour>
      <point x="477" y="355" type="line"/>
      <point x="482" y="475"/>
      <point x="394" y="565"/>
      <point x="262" y="565" type="curve" smooth="yes"/>
      <point x="131" y="565"/>
      <point x="44" y="494"/>
      <point x="37" y="356" type="curve" smooth="yes"/>
      <point x="35" y="309"/>
      <point x="35" y="239"/>
      <point x="37" y="191" type="curve" smooth="yes"/>
      <point x="43" y="44"/>
      <point x="135" y="-15"/>
      <point x="262" y="-15" type="curve" smooth="yes"/>
      <point x="394" y="-15"/>
      <point x="477" y="77"/>
      <point x="482" y="195" type="curve"/>
      <point x="307" y="200" type="line"/>
      <point x="306" y="164"/>
      <point x="298" y="135"/>
      <point x="265" y="135" type="curve" smooth="yes"/>
      <point x="238" y="135"/>
      <point x="224" y="153"/>
      <point x="222" y="182" type="curve" smooth="yes"/>
      <point x="219" y="239"/>
      <point x="219" y="324"/>
      <point x="222" y="373" type="curve" smooth="yes"/>
      <point x="224" y="400"/>
      <point x="236" y="415"/>
      <point x="261" y="415" type="curve" smooth="yes"/>
      <point x="289" y="415"/>
      <point x="302" y="393"/>
      <point x="302" y="350" type="curve"/>
    </contour>
  </outline>
</glyph>
<glyph name="D.small" format="1">
  <advance width="525"/>
  <outline>
    <contour>
      <point x="50" y="0" type="line"/>
      <point x="50" y="0"/>
      <point x="101" y="-2"/>
      <point x="173" y="-2" type="curve" smooth="yes"/>
      <point x="340" y="-2"/>
      <point x="477" y="26"/>
      <point x="488" y="194" type="curve" smooth="yes"/>
      <point x="490" y="226"/>
      <point x="491" y="328"/>
      <point x="488" y="360" type="curve" smooth="yes"/>
      <point x="472" y="543"/>
      <point x="313" y="552"/>
      <point x="175" y="552" type="curve" smooth="yes"/>
      <point x="104" y="552"/>
      <point x="50" y="550"/>
      <point x="50" y="550" type="curve"/>
    </contour>
    <contour>
      <point x="304" y="338" type="curve" smooth="yes"/>
      <point x="305" y="317"/>
      <point x="305" y="235"/>
      <point x="304" y="215" type="curve" smooth="yes"/>
      <point x="301" y="167"/>
      <point x="285" y="149"/>
      <point x="244" y="149" type="curve" smooth="yes"/>
      <point x="238" y="149"/>
      <point x="236" y="150"/>
      <point x="230" y="150" type="curve"/>
      <point x="230" y="400" type="line"/>
      <point x="238" y="400"/>
      <point x="239" y="401"/>
      <point x="247" y="401" type="curve" smooth="yes"/>
      <point x="284" y="401"/>
      <point x="301" y="385"/>
    </contour>
  </outline>
</glyph>
<glyph name="F_J" format="1">
  <advance width="841"/>
  <outline>
    <contour>
      <point x="45" y="0" type="line"/>
      <point x="240" y="0" type="line"/>
      <point x="240" y="263" type="line"/>
      <point x="479" y="263" type="line"/>
      <point x="479" y="411" type="line"/>
      <point x="240" y="411" type="line"/>
      <point x="240" y="557" type="line"/>
      <point x="497" y="557" type="line"/>
      <point x="497" y="710" type="line"/>
      <point x="45" y="710" type="line"/>
    </contour>
    <contour>
      <point x="607" y="710" type="line"/>
      <point x="607" y="231" type="line" smooth="yes"/>
      <point x="607" y="162"/>
      <point x="587" y="138"/>
      <point x="543" y="138" type="curve" smooth="yes"/>
      <point x="496" y="138"/>
      <point x="473" y="166"/>
      <point x="473" y="223" type="curve"/>
      <point x="304" y="225" type="line"/>
      <point x="303" y="219"/>
      <point x="302" y="210"/>
      <point x="302" y="202" type="curve" smooth="yes"/>
      <point x="302" y="60"/>
      <point x="391" y="-15"/>
      <point x="543" y="-15" type="curve" smooth="yes"/>
      <point x="701" y="-15"/>
      <point x="802" y="66"/>
      <point x="802" y="231" type="curve" smooth="yes"/>
      <point x="802" y="710" type="line"/>
    </contour>
  </outline>
</glyph>
<glyph name="G.small" format="1">
  <advance width="518"/>
  <outline>
    <contour>
      <point x="270" y="200" type="line"/>
      <point x="322" y="200" type="line"/>
      <point x="322" y="193" type="line" smooth="yes"/>
      <point x="322" y="163"/>
      <point x="308" y="135"/>
      <point x="274" y="135" type="curve" smooth="yes"/>
      <point x="238" y="135"/>
      <point x="225" y="154"/>
      <point x="223" y="199" type="curve" smooth="yes"/>
      <point x="221" y="256"/>
      <point x="221" y="309"/>
      <point x="223" y="363" type="curve" smooth="yes"/>
      <point x="224" y="398"/>
      <point x="236" y="415"/>
      <point x="266" y="415" type="curve" smooth="yes"/>
      <point x="297" y="415"/>
      <point x="312" y="388"/>
      <point x="312" y="355" type="curve"/>
      <point x="487" y="360" type="line"/>
      <point x="491" y="490"/>
      <point x="401" y="565"/>
      <point x="269" y="565" type="curve" smooth="yes"/>
      <point x="133" y="565"/>
      <point x="45" y="486"/>
      <point x="38" y="353" type="curve" smooth="yes"/>
      <point x="35" y="301"/>
      <point x="35" y="248"/>
      <point x="38" y="200" type="curve" smooth="yes"/>
      <point x="47" y="55"/>
      <point x="132" y="-15"/>
      <point x="269" y="-15" type="curve" smooth="yes"/>
      <point x="406" y="-15"/>
      <point x="490" y="75"/>
      <point x="492" y="198" type="curve" smooth="yes"/>
      <point x="493" y="267"/>
      <point x="492" y="315"/>
      <point x="492" y="315" type="curve"/>
      <point x="270" y="315" type="line"/>
    </contour>
  </outline>
</glyph>
<glyph name="J.small" format="1">
  <advance width="457"/>
  <outline>
    <contour>
      <point x="237" y="550" type="line"/>
      <point x="237" y="186" type="line" smooth="yes"/>
      <point x="237" y="155"/>
      <point x="229" y="135"/>
      <point x="199" y="135" type="curve" smooth="yes"/>
      <point x="172" y="135"/>
      <point x="158" y="162"/>
      <point x="161" y="200" type="curve"/>
      <point x="1" y="195" type="line"/>
      <point x="-4" y="72"/>
      <point x="66" y="-11"/>
      <point x="194" y="-15" type="curve" smooth="yes"/>
      <point x="358" y="-20"/>
      <point x="422" y="78"/>
      <point x="422" y="219" type="curve" smooth="yes"/>
      <point x="422" y="550" type="line"/>
    </contour>
  </outline>
</glyph>
<glyph name="K.small" format="1">
  <advance width="547"/>
  <outline>
    <contour>
      <point x="547" y="0" type="line"/>
      <point x="418" y="301" type="line"/>
      <point x="543" y="550" type="line"/>
      <point x="362" y="550" type="line"/>
      <point x="239" y="289" type="line"/>
      <point x="352" y="0" type="line"/>
    </contour>
    <contour>
      <point x="235" y="550" type="line"/>
      <point x="50" y="550" type="line"/>
      <point x="50" y="0" type="line"/>
      <point x="235" y="0" type="line"/>
    </contour>
  </outline>
</glyph>
<glyph name="Oslash.small" format="1">
  <advance width="550"/>
  <outline>
    <contour>
      <point x="25" y="-15" type="line"/>
      <point x="120" y="-15" type="line"/>
      <point x="172" y="55" type="line"/>
      <point x="194" y="71" type="line"/>
      <point x="217" y="118" type="line"/>
      <point x="350" y="324" type="line"/>
      <point x="432" y="430" type="line"/>
      <point x="452" y="442" type="line"/>
      <point x="540" y="565" type="line"/>
      <point x="445" y="565" type="line"/>
      <point x="386" y="489" type="line"/>
      <point x="364" y="483" type="line"/>
      <point x="347" y="434" type="line"/>
      <point x="196" y="202" type="line"/>
      <point x="133" y="134" type="line"/>
      <point x="120" y="119" type="line"/>
    </contour>
    <component base="O.small" xOffset="10"/>
  </outline>
</glyph>
<glyph name="P.small" format="1">
  <advance width="510"/>
  <outline>
    <contour>
      <point x="235" y="0" type="line"/>
      <point x="235" y="136" type="line"/>
      <point x="235" y="136"/>
      <point x="240" y="134"/>
      <point x="256" y="134" type="curve" smooth="yes"/>
      <point x="406" y="134"/>
      <point x="500" y="211"/>
      <point x="500" y="338" type="curve" smooth="yes"/>
      <point x="500" y="489"/>
      <point x="405" y="551"/>
      <point x="201" y="551" type="curve" smooth="yes"/>
      <point x="118" y="551"/>
      <point x="50" y="550"/>
      <point x="50" y="550" type="curve"/>
      <point x="50" y="0" type="line"/>
    </contour>
    <contour>
      <point x="235" y="400" type="line"/>
      <point x="235" y="400"/>
      <point x="237" y="401"/>
      <point x="248" y="401" type="curve" smooth="yes"/>
      <point x="293" y="401"/>
      <point x="310" y="375"/>
      <point x="310" y="342" type="curve" smooth="yes"/>
      <point x="310" y="297"/>
      <point x="281" y="284"/>
      <point x="251" y="284" type="curve" smooth="yes"/>
      <point x="240" y="284"/>
      <point x="235" y="285"/>
      <point x="235" y="285" type="curve"/>
    </contour>
  </outline>
</glyph>
<glyph name="Q.small" format="1">
  <advance width="531"/>
  <outline>
    <contour>
      <point x="369" y="-116" type="curve" smooth="yes"/>
      <point x="433" y="-156"/>
      <point x="478" y="-184"/>
      <point x="527" y="-184" type="curve" smooth="yes"/>
      <point x="564" y="-184"/>
      <point x="576" y="-166"/>
      <point x="576" y="-166" type="curve"/>
      <point x="576" y="-46" type="line"/>
      <point x="570" y="-47"/>
      <point x="554" y="-47"/>
      <point x="548" y="-47" type="curve" smooth="yes"/>
      <point x="517" y="-47"/>
      <point x="506" y="-46"/>
      <point x="441" y="-34" type="curve" smooth="yes"/>
      <point x="375" y="-22"/>
      <point x="347" y="-14"/>
      <point x="319" y="-13" type="curve"/>
      <point x="319" y="-4" type="line"/>
      <point x="155" y="7" type="line"/>
      <point x="200" y="-12"/>
      <point x="285" y="-64"/>
    </contour>
    <component base="O.small"/>
  </outline>
</glyph>
<glyph name="Th" format="1">
  <advance width="982"/>
  <outline>
    <contour>
      <point x="685" y="740" type="line"/>
      <point x="505" y="710" type="line"/>
      <point x="505" y="0" type="line"/>
      <point x="685" y="0" type="line"/>
    </contour>
    <contour>
      <point x="767" y="0" type="line"/>
      <point x="947" y="0" type="line"/>
      <point x="947" y="341" type="line" smooth="yes"/>
      <point x="947" y="464"/>
      <point x="883" y="510"/>
      <point x="807" y="510" type="curve" smooth="yes"/>
      <point x="751" y="510"/>
      <point x="711" y="484"/>
      <point x="687" y="444" type="curve"/>
      <point x="682" y="444" type="line"/>
      <point x="685" y="320" type="line"/>
      <point x="685" y="330"/>
      <point x="692" y="365"/>
      <point x="730" y="365" type="curve" smooth="yes"/>
      <point x="758" y="365"/>
      <point x="767" y="344"/>
      <point x="767" y="315" type="curve" smooth="yes"/>
    </contour>
    <contour>
      <point x="154" y="0" type="line"/>
      <point x="354" y="0" type="line"/>
      <point x="354" y="550" type="line"/>
      <point x="513" y="550" type="line"/>
      <point x="513" y="710" type="line"/>
      <point x="-5" y="710" type="line"/>
      <point x="-5" y="550" type="line"/>
      <point x="154" y="550" type="line"/>
    </contour>
  </outline>
</glyph>
<glyph name="U.small" format="1">
  <advance width="535"/>
  <outline>
    <contour>
      <point x="313" y="550" type="line"/>
      <point x="314" y="504"/>
      <point x="315" y="237"/>
      <point x="313" y="194" type="curve" smooth="yes"/>
      <point x="311" y="155"/>
      <point x="298" y="135"/>
      <point x="268" y="135" type="curve" smooth="yes"/>
      <point x="237" y="135"/>
      <point x="223" y="154"/>
      <point x="222" y="194" type="curve" smooth="yes"/>
      <point x="221" y="242"/>
      <point x="220" y="504"/>
      <point x="222" y="550" type="curve"/>
      <point x="37" y="550" type="line"/>
      <point x="35" y="511"/>
      <point x="36" y="230"/>
      <point x="37" y="187" type="curve" smooth="yes"/>
      <point x="40" y="56"/>
      <point x="132" y="-15"/>
      <point x="268" y="-15" type="curve" smooth="yes"/>
      <point x="403" y="-15"/>
      <point x="492" y="55"/>
      <point x="498" y="180" type="curve" smooth="yes"/>
      <point x="500" y="225"/>
      <point x="500" y="514"/>
      <point x="498" y="550" type="curve"/>
    </contour>
  </outline>
</glyph>
<glyph name="V.small" format="1">
  <advance width="522"/>
  <outline>
    <contour>
      <point x="332" y="550" type="line"/>
      <point x="265" y="186" type="line"/>
      <point x="200" y="550" type="line"/>
      <point x="0" y="550" type="line"/>
      <point x="146" y="0" type="line"/>
      <point x="379" y="0" type="line"/>
      <point x="522" y="550" type="line"/>
    </contour>
  </outline>
</glyph>
<glyph name="a.alt" format="1">
  <advance width="544"/>
  <outline>
    <contour>
      <point x="216" y="159" type="curve" smooth="yes"/>
      <point x="216" y="132"/>
      <point x="229" y="118"/>
      <point x="255" y="118" type="curve" smooth="yes"/>
      <point x="280" y="118"/>
      <point x="295" y="131"/>
      <point x="295" y="159" type="curve" smooth="yes"/>
      <point x="295" y="330" type="line" smooth="yes"/>
      <point x="295" y="360"/>
      <point x="282" y="371"/>
      <point x="256" y="371" type="curve" smooth="yes"/>
      <point x="232" y="371"/>
      <point x="219" y="361"/>
      <point x="219" y="339" type="curve" smooth="yes"/>
      <point x="219" y="327"/>
      <point x="224" y="321"/>
      <point x="246" y="314" type="curve" smooth="yes"/>
      <point x="266" y="306" type="line"/>
      <point x="266" y="203" type="line"/>
      <point x="245" y="198" type="line" smooth="yes"/>
      <point x="221" y="193"/>
      <point x="216" y="183"/>
    </contour>
    <contour>
      <point x="35" y="139" type="curve" smooth="yes"/>
      <point x="35" y="209"/>
      <point x="76" y="236"/>
      <point x="156" y="253" type="curve" smooth="yes"/>
      <point x="181" y="258" type="line"/>
      <point x="121" y="275" type="line" smooth="yes"/>
      <point x="67" y="289"/>
      <point x="49" y="305"/>
      <point x="49" y="345" type="curve" smooth="yes"/>
      <point x="49" y="447"/>
      <point x="133" y="510"/>
      <point x="256" y="510" type="curve" smooth="yes"/>
      <point x="394" y="510"/>
      <point x="475" y="452"/>
      <point x="475" y="332" type="curve" smooth="yes"/>
      <point x="475" y="169" type="line" smooth="yes"/>
      <point x="475" y="132"/>
      <point x="482" y="119"/>
      <point x="518" y="119" type="curve" smooth="yes"/>
      <point x="531" y="119" type="line"/>
      <point x="531" y="0" type="line"/>
      <point x="514" y="-7"/>
      <point x="486" y="-12"/>
      <point x="460" y="-12" type="curve" smooth="yes"/>
      <point x="397" y="-12"/>
      <point x="355" y="10"/>
      <point x="336" y="61" type="curve"/>
      <point x="310" y="14"/>
      <point x="256" y="-15"/>
      <point x="191" y="-15" type="curve" smooth="yes"/>
      <point x="103" y="-15"/>
      <point x="35" y="42"/>
    </contour>
  </outline>
</glyph>
<glyph name="acute.cap" format="1">
  <advance width="299"/>
  <outline>
    <contour>
      <point x="495" y="710" type="line"/>
      <point x="338" y="595" type="line"/>
      <point x="220" y="595" type="line"/>
      <point x="300" y="710" type="line"/>
    </contour>
  </outline>
</glyph>
<glyph name="ae.alt" format="1">
  <advance width="721"/>
  <outline>
    <contour>
      <point x="401" y="275" type="curve"/>
      <point x="401" y="200" type="line"/>
      <point x="468.013487714" y="205.001006546"/>
      <point x="536.95377434" y="220.992452953"/>
      <point x="586" y="229" type="curve" smooth="yes"/>
      <point x="679.043486791" y="245.541064318"/>
      <point x="695" y="264"/>
      <point x="695" y="324" type="curve" smooth="yes"/>
      <point x="695" y="441"/>
      <point x="592" y="500"/>
      <point x="494" y="500" type="curve" smooth="yes"/>
      <point x="368" y="500"/>
      <point x="286" y="410"/>
      <point x="285" y="317" type="curve" smooth="yes"/>
      <point x="284" y="267"/>
      <point x="281.017194315" y="193.793668215"/>
      <point x="286" y="134" type="curve" smooth="yes"/>
      <point x="293" y="38"/>
      <point x="378" y="-15"/>
      <point x="476" y="-15" type="curve" smooth="yes"/>
      <point x="600" y="-15"/>
      <point x="687" y="47"/>
      <point x="701" y="160" type="curve"/>
      <point x="521" y="160" type="line"/>
      <point x="519.999954562" y="133.998818614"/>
      <point x="505.545454545" y="120.0"/>
      <point x="487" y="120" type="curve" smooth="yes"/>
      <point x="465.594594595" y="120.0"/>
      <point x="451.0" y="136.0"/>
      <point x="451" y="162" type="curve"/>
      <point x="451" y="329" type="line"/>
      <point x="451" y="353"/>
      <point x="465.0" y="365.0"/>
      <point x="484" y="365" type="curve" smooth="yes"/>
      <point x="503.0" y="365.0"/>
      <point x="515.0" y="353.9"/>
      <point x="515" y="328" type="curve" smooth="yes"/>
      <point x="515.0" y="293.6"/>
      <point x="510.074708086" y="290.014941617"/>
      <point x="485" y="285" type="curve" smooth="yes"/>
      <point x="459" y="280"/>
      <point x="430.459955532" y="277.182218928"/>
    </contour>
    <contour>
      <point x="210" y="158" type="curve" smooth="yes"/>
      <point x="210.0" y="178.625"/>
      <point x="209.725591819" y="187.945118364"/>
      <point x="225" y="191" type="curve" smooth="yes"/>
      <point x="245" y="195" type="line"/>
      <point x="245" y="312" type="line"/>
      <point x="230" y="316" type="line" smooth="yes"/>
      <point x="216" y="320"/>
      <point x="214.0" y="326.0"/>
      <point x="214" y="335" type="curve" smooth="yes"/>
      <point x="214" y="353"/>
      <point x="228" y="365"/>
      <point x="245" y="365" type="curve" smooth="yes"/>
      <point x="264" y="365"/>
      <point x="275" y="355"/>
      <point x="275" y="330" type="curve" smooth="yes"/>
      <point x="275" y="159" type="line" smooth="yes"/>
      <point x="275" y="132.365853659"/>
      <point x="263.45" y="120.0"/>
      <point x="242" y="120" type="curve" smooth="yes"/>
      <point x="220.666666667" y="120.0"/>
      <point x="210.0" y="132.666666667"/>
    </contour>
    <contour>
      <point x="30" y="139" type="curve" smooth="yes"/>
      <point x="30" y="35"/>
      <point x="103" y="-15"/>
      <point x="185" y="-15" type="curve" smooth="yes"/>
      <point x="246.245033113" y="-15.0"/>
      <point x="304" y="14"/>
      <point x="321" y="57" type="curve"/>
      <point x="435" y="159" type="line" smooth="yes"/>
      <point x="445" y="302" type="line"/>
      <point x="445" y="439"/>
      <point x="363" y="500"/>
      <point x="251" y="500" type="curve" smooth="yes"/>
      <point x="124" y="500"/>
      <point x="54" y="422"/>
      <point x="54" y="329" type="curve" smooth="yes"/>
      <point x="54" y="303"/>
      <point x="67.1141742721" y="291.971456432"/>
      <point x="99" y="284" type="curve"/>
      <point x="134" y="274"/>
      <point x="198" y="262"/>
      <point x="214" y="259" type="curve"/>
      <point x="119" y="244" type="line"/>
      <point x="57" y="234"/>
      <point x="30" y="212"/>
    </contour>
  </outline>
</glyph>
<glyph name="asuperior" format="1">
  <advance width="361"/>
  <outline>
    <contour>
      <point x="166" y="524" type="curve" smooth="yes"/>
      <point x="177" y="528"/>
      <point x="192" y="531"/>
      <point x="192" y="531" type="curve"/>
      <point x="192" y="497" type="line" smooth="yes"/>
      <point x="192" y="483"/>
      <point x="183" y="475"/>
      <point x="171" y="475" type="curve" smooth="yes"/>
      <point x="159" y="475"/>
      <point x="149" y="482"/>
      <point x="149" y="498" type="curve" smooth="yes"/>
      <point x="149" y="511"/>
      <point x="153" y="519"/>
    </contour>
    <contour>
      <point x="351" y="471" type="line"/>
      <point x="322" y="471"/>
      <point x="317" y="477"/>
      <point x="317" y="502" type="curve" smooth="yes"/>
      <point x="317" y="604" type="line" smooth="yes"/>
      <point x="317" y="681"/>
      <point x="252" y="720"/>
      <point x="179" y="720" type="curve" smooth="yes"/>
      <point x="96" y="720"/>
      <point x="34" y="672"/>
      <point x="40" y="596" type="curve"/>
      <point x="155" y="599" type="line"/>
      <point x="152" y="617"/>
      <point x="162" y="625"/>
      <point x="174" y="625" type="curve" smooth="yes"/>
      <point x="184" y="625"/>
      <point x="192" y="619"/>
      <point x="192" y="602" type="curve" smooth="yes"/>
      <point x="192" y="582" type="line"/>
      <point x="192" y="582"/>
      <point x="139" y="573"/>
      <point x="96" y="560" type="curve" smooth="yes"/>
      <point x="47" y="546"/>
      <point x="25" y="523"/>
      <point x="25" y="479" type="curve" smooth="yes"/>
      <point x="25" y="422"/>
      <point x="64" y="380"/>
      <point x="128" y="380" type="curve" smooth="yes"/>
      <point x="169" y="380"/>
      <point x="201" y="401"/>
      <point x="214" y="423" type="curve"/>
      <point x="241" y="367"/>
      <point x="323" y="380"/>
      <point x="351" y="390" type="curve"/>
    </contour>
  </outline>
</glyph>
<glyph name="bsuperior" format="1">
  <advance width="357"/>
  <outline>
    <contour>
      <point x="30" y="403" type="line"/>
      <point x="30" y="403"/>
      <point x="96" y="380"/>
      <point x="181" y="380" type="curve" smooth="yes"/>
      <point x="249" y="380"/>
      <point x="326" y="416"/>
      <point x="330" y="493" type="curve" smooth="yes"/>
      <point x="332" y="531"/>
      <point x="332" y="588"/>
      <point x="330" y="623" type="curve" smooth="yes"/>
      <point x="327" y="685"/>
      <point x="291" y="720"/>
      <point x="233" y="720" type="curve" smooth="yes"/>
      <point x="183" y="720"/>
      <point x="155" y="691"/>
      <point x="155" y="691" type="curve"/>
      <point x="155" y="850" type="line"/>
      <point x="30" y="831" type="line"/>
    </contour>
    <contour>
      <point x="155" y="595" type="line"/>
      <point x="155" y="612"/>
      <point x="166" y="625"/>
      <point x="183" y="625" type="curve" smooth="yes"/>
      <point x="195" y="625"/>
      <point x="205" y="618"/>
      <point x="205" y="602" type="curve" smooth="yes"/>
      <point x="206" y="565"/>
      <point x="206" y="531"/>
      <point x="205" y="498" type="curve" smooth="yes"/>
      <point x="204" y="483"/>
      <point x="191" y="475"/>
      <point x="180" y="475" type="curve" smooth="yes"/>
      <point x="165" y="475"/>
      <point x="155" y="480"/>
      <point x="155" y="480" type="curve"/>
    </contour>
  </outline>
</glyph>
<glyph name="caron.cap" format="1">
  <advance width="505"/>
  <outline>
    <contour>
      <point x="275" y="595" type="line"/>
      <point x="393" y="715" type="line"/>
      <point x="243" y="715" type="line"/>
      <point x="194" y="662" type="line"/>
      <point x="150" y="715" type="line"/>
      <point x="-5" y="715" type="line"/>
      <point x="106" y="595" type="line"/>
    </contour>
  </outline>
</glyph>
<glyph name="ct" format="1">
  <advance width="866"/>
  <outline>
    <contour>
      <point x="752" y="-15" type="curve" smooth="yes"/>
      <point x="789" y="-15"/>
      <point x="835" y="-9"/>
      <point x="861" y="0" type="curve"/>
      <point x="856" y="125" type="line"/>
      <point x="844" y="123"/>
      <point x="820" y="123"/>
      <point x="809" y="123" type="curve" smooth="yes"/>
      <point x="760" y="123"/>
      <point x="733" y="143"/>
      <point x="733" y="198" type="curve" smooth="yes"/>
      <point x="733" y="370" type="line"/>
      <point x="852" y="370" type="line"/>
      <point x="852" y="495" type="line"/>
      <point x="733" y="495" type="line"/>
      <point x="733" y="530" type="line" smooth="yes"/>
      <point x="733" y="671"/>
      <point x="643" y="750"/>
      <point x="517" y="750" type="curve" smooth="yes"/>
      <point x="402" y="750"/>
      <point x="302" y="682"/>
      <point x="302" y="567" type="curve" smooth="yes"/>
      <point x="302" y="554"/>
      <point x="303" y="544"/>
      <point x="306" y="529" type="curve"/>
      <point x="306" y="529"/>
      <point x="365" y="521"/>
      <point x="409" y="491" type="curve"/>
      <point x="405" y="500"/>
      <point x="403" y="517"/>
      <point x="403" y="534" type="curve" smooth="yes"/>
      <point x="403" y="584"/>
      <point x="437" y="610"/>
      <point x="476" y="610" type="curve" smooth="yes"/>
      <point x="517" y="610"/>
      <point x="553" y="585"/>
      <point x="553" y="533" type="curve" smooth="yes"/>
      <point x="553" y="495" type="line"/>
      <point x="484" y="495" type="line"/>
      <point x="484" y="370" type="line"/>
      <point x="553" y="370" type="line"/>
      <point x="553" y="169" type="line" smooth="yes"/>
      <point x="553" y="27"/>
      <point x="654" y="-15"/>
    </contour>
    <component base="c"/>
  </outline>
</glyph>
